<svg height="40px" viewBox="0 0 512.00101 512" width="40px" xmlns="http://www.w3.org/2000/svg"><path d="m194.960938 15.140625c0-8.273437-6.714844-14.988281-14.988282-14.988281-8.285156 0-14.992187 6.714844-14.992187 14.988281v19.839844h29.980469zm0 0"/><path d="m136 15.140625c0-8.273437-6.71875-14.988281-14.992188-14.988281-8.285156 0-14.992187 6.714844-14.992187 14.988281v19.839844h29.984375zm0 0"/><path d="m77.785156 15.140625c0-8.273437-6.71875-14.988281-14.992187-14.988281-8.285157 0-14.992188 6.714844-14.992188 14.988281v19.839844h29.984375zm0 0"/><path d="m311.890625 15.140625c0-8.273437-6.714844-14.988281-14.988281-14.988281-8.285156 0-14.992188 6.714844-14.992188 14.988281v19.839844h29.980469zm0 0"/><path d="m253.675781 15.140625c0-8.273437-6.714843-14.988281-14.988281-14.988281-8.285156 0-14.992188 6.714844-14.992188 14.988281v19.839844h29.980469zm0 0"/><path d="m318.070312 34.980469h-6.179687v49.820312c0 8.273438-6.714844 14.992188-14.988281 14.992188-8.285156 0-14.992188-6.71875-14.992188-14.992188v-49.820312h-28.234375v49.820312c0 8.273438-6.714843 14.992188-14.988281 14.992188-8.285156 0-14.992188-6.71875-14.992188-14.992188v-49.820312h-28.734374v49.820312c0 8.273438-6.714844 14.992188-14.988282 14.992188-8.285156 0-14.992187-6.71875-14.992187-14.992188v-49.820312h-28.980469v49.820312c0 8.273438-6.71875 14.992188-14.992188 14.992188-8.285156 0-14.992187-6.71875-14.992187-14.992188v-49.820312h-28.230469v49.820312c0 8.273438-6.71875 14.992188-14.992187 14.992188-8.285157 0-14.992188-6.71875-14.992188-14.992188v-49.820312h-6.175781c-22.957031 0-41.625 18.667969-41.625 41.625v393.554687c0 22.945313 18.667969 41.613282 41.625 41.613282h276.445312c22.945313 0 41.625-18.667969 41.625-41.613282v-393.554687c0-22.957031-18.679687-41.625-41.625-41.625zm-35.839843 323.101562h-204.527344c-8.277344 0-14.992187-6.714843-14.992187-14.992187 0-8.28125 6.714843-14.992188 14.992187-14.992188h204.527344c8.28125 0 14.992187 6.710938 14.992187 14.992188 0 8.277344-6.710937 14.992187-14.992187 14.992187zm0-58.21875h-204.527344c-8.277344 0-14.992187-6.710937-14.992187-14.992187 0-8.277344 6.714843-14.988282 14.992187-14.988282h204.527344c8.28125 0 14.992187 6.710938 14.992187 14.988282 0 8.28125-6.710937 14.992187-14.992187 14.992187zm0-58.960937h-204.527344c-8.277344 0-14.992187-6.710938-14.992187-14.992188 0-8.277344 6.714843-14.992187 14.992187-14.992187h204.527344c8.28125 0 14.992187 6.714843 14.992187 14.992187 0 8.28125-6.710937 14.992188-14.992187 14.992188zm0 0"/><path d="m511.867188 225.761719h-121.859376c-.140624 8.785156-.171874 15.601562-.171874 19.679687 0 51.441406 5.734374 103.242188 12.625 146.945313h96.574218c6.980469-43.648438 12.964844-95.9375 12.964844-146.945313 0-6.613281-.046875-13.175781-.132812-19.679687zm0 0"/><path d="m504.210938 105.285156-3.402344-23.324218-.050782-.3125c-3.285156-19.601563-7.167968-35.484376-11.542968-47.203126-8.535156-22.855468-21.417969-34.445312-38.296875-34.445312-16.875 0-29.757813 11.589844-38.292969 34.445312-9.460938 25.347657-15.003906 63.96875-18.25 101.535157h113.117188c-.949219-10.667969-2.042969-20.929688-3.28125-30.695313zm0 0"/><path d="m509.710938 165.960938h-117.492188c-.617188 10.476562-1.074219 20.535156-1.414062 29.820312h120.324218c-.359375-10.164062-.835937-20.117188-1.417968-29.820312zm0 0"/><path d="m421.617188 488.914062c3.273437 13.53125 15.167968 22.863282 29.035156 22.863282.191406 0 .382812-.003906.574218-.007813 13.550782-.25 25.261719-9.617187 28.484376-22.777343 2.945312-12.035157 8.488281-35.878907 14.15625-66.625h-86.300782c5.238282 28.660156 10.511719 51.941406 14.050782 66.546874zm0 0"/></svg>