<svg id="Capa_1" enable-background="new 0 0 510.02 510.02" height="512" viewBox="0 0 510.02 510.02" width="512" xmlns="http://www.w3.org/2000/svg"><g><path d="m342.01 99.009c0 56.374-47.329 101.404-103 98.91-52.74-2.101-95-45.66-95-98.91s42.26-96.81 95-98.91c55.634-2.492 103 42.497 103 98.91z" fill="#ffe278"/><path d="m342.01 99.009c0 56.374-47.329 101.404-103 98.91v-197.82c55.634-2.492 103 42.497 103 98.91z" fill="#ffb454"/><path d="m510.01 269.539v49.59c0 8.29-6.72 15-15 15-17.94 0-34.98 8.979-45.57 24.01-12.08 17.14-27.5 32.54-45.96 45.91l14.41 28.16c9.45 18.46 2.12 41.02-16.29 50.42l-45.46 23.26c-18.38 9.43-40.97 2.17-50.42-16.29l-19.94-38.97c-31.636 4.756-63.381 4.554-93.54 0l-19.94 38.97c-9.42 18.4-31.95 25.75-50.43 16.29l-45.45-23.26c-18.4-9.39-25.75-31.94-16.29-50.42l14.4-28.15c-47.54-34.45-74.52-82.27-74.52-132.93 0-72.54 57.4-138.97 144.09-168.29.83.72 38.35 32.81 94.91 32.81 1.733 0 1.88.036 4.14-.02 25.194-.627 49.367-10.813 64.51-30.09 8.47-12.3 19.39-22.11 31.68-29.16.02-.01.03-.021.05-.03 30.657-17.709 70.198-17.858 100.97 3.07 6.83 4.649 8.63 13.979 3.96 20.84l-30.97 45.52c25.02 20.381 43.5 44.75 54.17 71.471 24.23 5.059 42.49 26.579 42.49 52.289z" fill="#eaf1ff"/><path d="m510.01 269.539v49.59c0 8.29-6.72 15-15 15-17.94 0-34.98 8.979-45.57 24.01-12.08 17.14-27.5 32.54-45.96 45.91l14.41 28.16c9.45 18.46 2.12 41.02-16.29 50.42l-45.46 23.26c-18.38 9.43-40.97 2.17-50.42-16.29l-19.94-38.97c-14.724 2.214-30.292 3.49-46.77 3.49v-318.47c26.459.39 52.621-9.705 68.65-30.109 8.47-12.3 19.39-22.11 31.68-29.16.02-.01.03-.021.05-.03 30.657-17.709 70.198-17.858 100.97 3.07 6.83 4.649 8.63 13.979 3.96 20.84l-30.97 45.52c25.02 20.381 43.5 44.75 54.17 71.471 24.23 5.058 42.49 26.578 42.49 52.288z" fill="#b1d5f1"/><path d="m372.41 225.738c-5.943-5.943-5.771-15.6 0-21.21 5.735-5.751 15.269-5.941 21.21 0 2.71 2.703 4.391 6.543 4.391 10.601-.001 13.377-16.203 19.981-25.601 10.609z" fill="#453d81"/><path d="m276.48 327.129c-5.932 7.095-13.595 12.161-22.47 14.82v9.14c0 8.28-6.72 15-15 15s-15-6.72-15-15v-9.1c-23.7-6.641-40.86-28.351-40.86-53.9 0-25.58 17.18-47.3 40.86-53.92v-11.16c0-8.28 6.72-15 15-15s15 6.72 15 15v11.08c5.82 1.6 11.36 4.14 16.44 7.56 6.87 4.641 8.68 13.96 4.05 20.83-4.63 6.86-13.96 8.67-20.82 4.04-16.984-11.453-40.53.48-40.53 21.57 0 13.81 10.79 25.22 24.57 25.95.383.047.516-.1 2.28.01 5.43-.172 9.969-2.008 13.46-6.17 5.32-6.351 14.78-7.19 21.13-1.88 6.36 5.319 7.2 14.779 1.89 21.13z" fill="#6b66d0"/><g fill="#453d81"><path d="m239.14 262.089c-.202 0-.13 4.145-.13-54.08 8.28 0 15 6.72 15 15v11.08c5.82 1.6 11.36 4.14 16.44 7.56 6.87 4.641 8.68 13.96 4.05 20.83-4.63 6.86-13.96 8.67-20.82 4.04-4.3-2.9-9.33-4.43-14.54-4.43z"/><path d="m276.48 327.129c-5.932 7.095-13.595 12.161-22.47 14.82v9.14c0 8.28-6.72 15-15 15v-52.09c.33 0 .66.029.99.05 5.43-.172 9.969-2.008 13.46-6.17 5.32-6.351 14.78-7.19 21.13-1.88 6.36 5.319 7.2 14.779 1.89 21.13z"/></g></g></svg>