<svg id="Capa_1" enable-background="new 0 0 512 512" height="512" viewBox="0 0 512 512" width="512" xmlns="http://www.w3.org/2000/svg"><g><g><g><g><path d="m134.807 481.541h242.385c80.255-43.215 134.808-128.003 134.808-225.541 0-141.385-114.615-256-256-256s-256 114.615-256 256c0 97.538 54.553 182.326 134.807 225.541z" fill="#73c3f9"/></g></g></g><g><g><g><path d="m199.698 505.774 56.302-24.233 56.302 24.233.004.007c22.945-5.153 44.727-13.384 64.887-24.24-54.538-68.496-84.621-153.777-84.621-242.127v-71.081l-36.571-15-36.571 15v71.081c0 88.35-30.083 173.63-84.621 242.127 20.158 10.855 41.938 19.085 64.881 24.239z" fill="#e80054"/></g></g></g><g><g><g><path d="m270.482 239.415v-71.081l-14.482-15-14.482 15v71.081c0 99.101-14.989 194.338-41.82 266.359 18.118 4.066 36.957 6.226 56.302 6.226s38.184-2.16 56.302-6.226c-26.831-72.021-41.82-167.259-41.82-266.359z" fill="#bec8f7"/></g></g></g><g><g><g><path d="m313.513 168.333h-115.026v73.037c0 11.046 8.954 20 20 20h75.025c11.046 0 20-8.954 20-20v-73.037z" fill="#ffdd40"/></g></g></g><g><g><g><path d="m250.833 241.371v-73.037h-52.346v73.037c0 11.046 8.954 20 20 20h52.346c-11.045 0-20-8.955-20-20z" fill="#ffb332"/></g></g></g><g><g><g><path d="m127.651 366.047c-.458 0-.923-.042-1.39-.129-4.071-.764-6.753-4.683-5.99-8.754l35.643-190.212c.763-4.07 4.681-6.743 8.753-5.991 4.071.764 6.753 4.683 5.99 8.754l-35.643 190.212c-.675 3.604-3.825 6.12-7.363 6.12z" fill="#e9efff"/></g></g></g><g><g><g><path d="m9.508 366.047c-.458 0-.923-.042-1.39-.129-4.071-.764-6.753-4.683-5.99-8.754l35.644-190.212c.763-4.07 4.682-6.743 8.753-5.991 4.071.764 6.753 4.683 5.99 8.754l-35.644 190.212c-.675 3.604-3.825 6.12-7.363 6.12z" fill="#e9efff"/></g></g></g><g><g><g><path d="m133.143 328.546c-8.284 0-15 6.716-15 15v10c0 8.284-6.716 15-15 15h-58.143c-8.284 0-15-6.716-15-15v-10c0-8.284-6.716-15-15-15-8.284 0-15 6.716-15 15v10c0 24.853 20.147 45 45 45h58.143c24.853 0 45-20.147 45-45v-10c0-8.284-6.716-15-15-15z" fill="#2a428c"/></g></g></g><g><g><g><path d="m384.349 366.047c-3.539 0-6.688-2.515-7.363-6.12l-35.643-190.212c-.763-4.071 1.919-7.99 5.99-8.754 4.075-.756 7.99 1.919 8.753 5.991l35.643 190.212c.763 4.071-1.919 7.99-5.99 8.754-.467.087-.932.129-1.39.129z" fill="#e9efff"/></g></g></g><g><g><g><path d="m502.492 366.047c-3.539 0-6.688-2.515-7.363-6.12l-35.644-190.212c-.763-4.071 1.919-7.99 5.99-8.754 4.072-.756 7.99 1.919 8.753 5.991l35.644 190.212c.763 4.071-1.919 7.99-5.99 8.754-.467.087-.932.129-1.39.129z" fill="#e9efff"/></g></g></g><g><g><g><path d="m378.857 328.546c8.284 0 15 6.716 15 15v10c0 8.284 6.716 15 15 15h58.143c8.284 0 15-6.716 15-15v-10c0-8.284 6.716-15 15-15 8.284 0 15 6.716 15 15v10c0 24.853-20.147 45-45 45h-58.143c-24.853 0-45-20.147-45-45v-10c0-8.284 6.716-15 15-15z" fill="#2a428c"/></g></g></g><g><g><g><path d="m422.929 383.546c0-8.284 6.716-15 15-15h-29.071c-8.284 0-15-6.716-15-15v-10c0-8.284-6.716-15-15-15-8.284 0-15 6.716-15 15v10c0 24.853 20.147 45 45 45h29.072c-8.286 0-15.001-6.716-15.001-15z" fill="#1c2e7a"/></g></g></g><g><g><g><path d="m256 0c-6.284 0-12.335 2.369-16.936 6.649-24.306 22.615-111.146 97.873-239.064 146.989h512c-127.918-49.116-214.758-124.374-239.064-146.989-4.601-4.28-10.652-6.649-16.936-6.649z" fill="#ff4155"/></g></g></g><g><g><g><path d="m256 0c-4.489 0-8.811 2.369-12.097 6.649-17.362 22.615-79.391 97.873-170.76 146.989h365.714c-91.37-49.116-153.398-124.374-170.76-146.989-3.286-4.28-7.608-6.649-12.097-6.649z" fill="#e9efff"/></g></g></g><g><g><g><path d="m256 0c-2.699 0-5.298 2.369-7.274 6.649-10.44 22.615-47.738 97.873-102.678 146.989h219.905c-54.941-49.116-92.239-124.374-102.679-146.989-1.976-4.28-4.575-6.649-7.274-6.649z" fill="#ff4155"/></g></g></g><g><g><g><path d="m256 0c-.909 0-1.785 2.369-2.451 6.649-3.518 22.615-16.085 97.873-34.597 146.989h74.095c-18.512-49.116-31.079-124.374-34.597-146.989-.665-4.28-1.541-6.649-2.45-6.649z" fill="#e9efff"/></g></g></g><g><g><g><path d="m438.857 153.333h73.143v31.466c0 20.198-16.374 36.571-36.571 36.571-20.198 0-36.571-16.374-36.571-36.571v-31.466z" fill="#e80054"/></g></g></g><g><g><g><path d="m365.714 153.333h73.143v31.466c0 20.198-16.374 36.571-36.571 36.571-20.198 0-36.571-16.374-36.571-36.571v-31.466z" fill="#bec8f7"/></g></g></g><g><g><g><path d="m292.571 153.333h73.143v31.466c0 20.198-16.374 36.571-36.571 36.571-20.198 0-36.571-16.374-36.571-36.571v-31.466z" fill="#e80054"/></g></g></g><g><g><g><path d="m219.429 153.333h73.143v31.466c0 20.198-16.374 36.571-36.571 36.571-20.198 0-36.571-16.374-36.571-36.571v-31.466z" fill="#bec8f7"/></g></g></g><g><g><g><path d="m146.286 153.333h73.143v31.466c0 20.198-16.374 36.571-36.571 36.571-20.198 0-36.571-16.374-36.571-36.571v-31.466z" fill="#e80054"/></g></g></g><g><g><g><path d="m73.143 153.333h73.143v31.466c0 20.198-16.374 36.571-36.571 36.571-20.198 0-36.571-16.374-36.571-36.571v-31.466z" fill="#bec8f7"/></g></g></g><g><g><g><path d="m0 153.333h73.143v31.466c0 20.198-16.374 36.571-36.571 36.571-20.198 0-36.572-16.373-36.572-36.571z" fill="#e80054"/></g></g></g><g><g><g><path d="m512 168.333h-366.785l-145.215-15c0-8.284 6.716-15 15-15h482c8.284 0 15 6.716 15 15z" fill="#ff4155"/></g></g></g><g><g><g><path d="m161.286 138.333h-146.286c-8.284 0-15 6.716-15 15v15h146.286v-15c0-8.284 6.715-15 15-15z" fill="#e80054"/></g></g></g><g><g><g><path d="m59.072 383.546c0-8.284 6.716-15 15-15h-29.072c-8.284 0-15-6.716-15-15v-10c0-8.284-6.716-15-15-15-8.284 0-15 6.716-15 15v10c0 24.853 20.147 45 45 45h29.072c-8.285 0-15-6.716-15-15z" fill="#1c2e7a"/></g></g></g></g></svg>