<svg id="Capa_1" enable-background="new 0 0 512 512" height="512" viewBox="0 0 512 512" width="512" xmlns="http://www.w3.org/2000/svg"><g><path d="m271 354.23v142.77c0 8.28-6.72 15-15 15s-15-6.72-15-15v-142.77z" fill="#1c6c94"/><path d="m271 354.23v142.77c0 8.28-6.72 15-15 15v-157.77z" fill="#165771"/><g><path d="m256.668 163.548-14.618 18.644-67.202 85.702-95.108-73.761c-3.67-2.847-5.816-7.24-5.802-11.889l.271-130.977c.026-12.496 14.455-19.459 24.253-11.769z" fill="#ffca3e"/><path d="m242.049 182.192-67.202 85.702-95.108-73.761c-3.67-2.847-5.816-7.24-5.802-11.889l-.001-.092z" fill="#fcb216"/><path d="m341.436 263.991-73.368 94.603c-2.847 3.67-7.239 5.816-11.887 5.812l-130.979-.281c-12.496-.026-19.459-14.455-11.769-24.253l123.659-157.692c17.047 13.366 92.226 72.31 104.344 81.811z" fill="#24bf93"/><path d="m341.436 263.991-73.368 94.603c-2.847 3.67-7.239 5.816-11.887 5.812l-.092.001c.001-4.699-.007 29.286.039-167.301z" fill="#00ac7f"/><path d="m437.345 182.152.72 130.864c.071 12.555-14.434 19.587-24.257 11.883l-158.082-123.956c.088-.112 81.665-104.136 81.783-104.286l94.084 73.779c3.605 2.832 5.72 7.139 5.752 11.716z" fill="#46dcfa"/><path d="m437.345 182.152.001.092-166.923-.046 67.086-85.541 94.084 73.779c3.605 2.832 5.72 7.139 5.752 11.716z" fill="#00c4eb"/><path d="m398.836 24.525-121.84 155.38c-7.753-6.079-93.03-73.363-104.157-82.088l71.361-92.013c2.847-3.67 7.239-5.816 11.889-5.802l130.977.271c12.496.025 19.459 14.454 11.77 24.252z" fill="#e50058"/><path d="m256.182 0 .486 163.548-83.829-65.731 71.361-92.013c2.847-3.67 7.239-5.816 11.889-5.802z" fill="#f43760"/></g><circle cx="256" cy="181" fill="#d3eef4" r="45"/><path d="m301 181c0 24.81-20.19 45-45 45v-90c24.81 0 45 20.19 45 45z" fill="#ace0f3"/><g><circle cx="256" cy="181" fill="#ace0f3" r="15"/><path d="m271 181c0 8.27-6.73 15-15 15v-30c8.27 0 15 6.73 15 15z" fill="#7ec3ec"/></g></g></svg>