<?xml version="1.0" encoding="UTF-8"?>
<svg id="Layer_2" data-name="Layer 2" xmlns="http://www.w3.org/2000/svg" viewBox="0 0 653.33 689.73">
  <defs>
    <style>
      .cls-1 {
        fill: #fc5197;
      }

      .cls-2 {
        fill: #e8f8fc;
      }

      .cls-3 {
        fill: #ffcd38;
      }

      .cls-4 {
        fill: #ffac00;
      }

      .cls-5 {
        fill: #ff8500;
      }

      .cls-6 {
        fill: #c41672;
      }

      .cls-7 {
        fill: #a6d6eb;
      }

      .cls-8 {
        fill: #dd377b;
      }

      .cls-9 {
        fill: #c7e7f3;
      }

      .cls-10 {
        fill: #102151;
      }

      .cls-11 {
        fill: #1a2b63;
      }

      .cls-12 {
        fill: #5891ed;
      }

      .cls-13 {
        fill: #28b266;
      }

      .cls-14 {
        fill: #4874cc;
      }

      .cls-15 {
        fill: #37c47a;
      }

      .cls-16 {
        fill: #60d882;
      }

      .cls-17 {
        fill: #7aaffc;
      }
    </style>
  </defs>
  <g id="svg4956">
    <g id="cata1">
      <g>
        <g id="g4972">
          <path id="path4974" class="cls-11" d="m326.67,35.86C147.14,36.16-.08,183.9,0,362.53c.08,179.76,149.29,327.88,329.95,326.38,178.21-2.14,323.31-149.16,323.39-326.38.07-178.55-147.1-326.31-326.67-326.67Z"/>
        </g>
        <g id="g4976">
          <path id="path4978" class="cls-10" d="m566.67,422.53c0,132.55-107.45,240-240,240s-240-107.45-240-240,107.45-240,240-240,240,107.45,240,240"/>
        </g>
      </g>
      <g>
        <g>
          <g id="g4980">
            <path id="path4982" class="cls-2" d="m313.93,688.64c6.01.78,13.09,1.27,21.02,1.02,6.85-.22,13.01-.95,18.35-1.88-.15-136.42-.31-272.84-.46-409.25,0-11.01-8.92-19.93-19.93-19.93h-.14c-11.01,0-19.93,8.92-19.93,19.93.36,136.7.73,273.41,1.09,410.11Z"/>
          </g>
          <g id="g4984">
            <path id="path4986" class="cls-9" d="m312.84,258.6v304.49c0-11.05,8.95-20,20-20s20,8.95,20,20v-304.49h-40Z"/>
          </g>
        </g>
        <g>
          <g id="g4988">
            <path id="path4990" class="cls-4" d="m511.19,504.03l51.73-160.2c1.45-4.48,1.77-9.17,1.09-13.72l-103.67-79.55-127.51,8.03,143.82,249.09c8.23,14.26,29.47,12.01,34.53-3.66h0Z"/>
          </g>
          <g id="g4992">
            <path id="path4994" class="cls-5" d="m445.34,289.66c16.45-9.49,34.78-12.74,52.26-10.5l-37.26-28.59-127.51,8.03,75.33,130.48c-12.79-37.03,1.98-79.11,37.17-99.42h0Z"/>
          </g>
          <g id="g4996">
            <path id="path4998" class="cls-3" d="m564.05,330.14c-.55-3.73-1.79-7.36-3.72-10.69l-89.39-154.83-144.27,83.3,6.17,10.69,231.21,71.54Z"/>
          </g>
          <g id="g5000">
            <path id="path5002" class="cls-8" d="m578.27,80.25l-160.2-51.73c-4.48-1.45-9.17-1.77-13.72-1.09l-79.55,103.67,8.03,127.51,249.09-143.82c14.26-8.23,12.01-29.47-3.66-34.53h0Z"/>
          </g>
          <g id="g5004">
            <path id="path5006" class="cls-6" d="m363.9,146.09c-9.49-16.45-12.74-34.78-10.5-52.26l-28.59,37.26,8.03,127.51,130.48-75.33c-37.03,12.79-79.11-1.98-99.42-37.17h0Z"/>
          </g>
          <g id="g5008">
            <path id="path5010" class="cls-1" d="m404.38,27.39c-3.73.55-7.36,1.79-10.69,3.72l-154.83,89.39,83.3,144.27,10.69-6.17L404.38,27.39Z"/>
          </g>
          <g id="g5012">
            <path id="path5014" class="cls-12" d="m154.49,13.16l-51.73,160.2c-1.45,4.48-1.77,9.17-1.09,13.72l103.67,79.55,127.51-8.03L189.02,9.5c-8.23-14.26-29.47-12.01-34.53,3.66h0Z"/>
          </g>
          <g id="g5016">
            <path id="path5018" class="cls-14" d="m220.33,227.54c-16.45,9.49-34.78,12.74-52.26,10.5l37.26,28.59,127.51-8.03-75.33-130.48c12.79,37.03-1.98,79.11-37.17,99.42h0Z"/>
          </g>
          <g id="g5020">
            <path id="path5022" class="cls-17" d="m101.62,187.06c.55,3.73,1.79,7.36,3.72,10.69l89.39,154.83,144.27-83.3-6.17-10.69-231.21-71.54Z"/>
          </g>
          <g id="g5024">
            <path id="path5026" class="cls-15" d="m87.4,436.95l160.2,51.73c4.48,1.45,9.17,1.77,13.72,1.09l79.55-103.67-8.03-127.51-249.09,143.82c-14.26,8.23-12.01,29.47,3.66,34.53h0Z"/>
          </g>
          <g id="g5028">
            <path id="path5030" class="cls-13" d="m301.78,371.11c9.49,16.44,12.74,34.78,10.5,52.26l28.59-37.26-8.03-127.51-130.48,75.33c37.03-12.79,79.11,1.98,99.42,37.17h0Z"/>
          </g>
          <g id="g5032">
            <path id="path5034" class="cls-16" d="m261.3,489.81c3.73-.55,7.36-1.79,10.69-3.72l144.14-83.22-83.3-144.27-71.54,231.21Z"/>
          </g>
          <g id="g5036">
            <path id="path5038" class="cls-2" d="m332.84,305.26c-25.73,0-46.67-20.93-46.67-46.67s20.93-46.67,46.67-46.67,46.67,20.93,46.67,46.67-20.93,46.67-46.67,46.67h0Z"/>
          </g>
          <g id="g5040">
            <path id="path5042" class="cls-9" d="m359.5,258.6c0,14.73-11.94,26.67-26.67,26.67s-26.67-11.94-26.67-26.67,11.94-26.67,26.67-26.67,26.67,11.94,26.67,26.67h0Z"/>
          </g>
          <g id="g5044">
            <path id="path5046" class="cls-7" d="m332.84,258.6c0-9.86,5.37-18.46,13.33-23.07-3.93-2.27-8.47-3.6-13.33-3.6-14.73,0-26.67,11.94-26.67,26.67s11.94,26.67,26.67,26.67c4.86,0,9.41-1.32,13.33-3.6-7.96-4.61-13.33-13.21-13.33-23.07h0Z"/>
          </g>
        </g>
      </g>
    </g>
  </g>
</svg>