<svg id="Layer_1" enable-background="new 0 0 512.044 512.044" height="512" viewBox="0 0 512.044 512.044" width="512" xmlns="http://www.w3.org/2000/svg"><g><g><path d="m271.683 512.044c-11.458 0-23.346-1.08-35.568-3.266-53.002-9.479-106.333-38.842-150.17-82.679-43.837-43.837-73.199-97.168-82.679-150.171-9.834-54.984 2.71-103.226 35.32-135.836 1.402-1.403 2.961-2.874 4.764-4.494 5.931-5.331 14.996-5.091 20.635.548l89.53 89.53c5.67 5.67 5.878 14.796.473 20.719-15.018 16.453-14.44 41.681 1.314 57.436l52.91 52.91c15.755 15.756 40.984 16.331 57.436 1.314 5.922-5.405 15.049-5.198 20.719.473l89.53 89.531c5.64 5.64 5.88 14.707.547 20.637-1.617 1.798-3.087 3.356-4.493 4.762-25.361 25.361-60.179 38.586-100.268 38.586z" fill="#bee75e"/></g><g><path d="m263.515 269.556c-3.911 0-7.745-1.53-10.609-4.394-4.141-4.141-5.493-10.313-3.463-15.806l18.188-49.212c-12.532-20.584-19.118-44.06-19.118-68.378-.001-72.656 59.109-131.766 131.765-131.766s131.766 59.11 131.766 131.766-59.109 131.766-131.766 131.766c-20.711 0-41.123-4.877-59.471-14.16 0-.001-55.548 20.184-57.292 20.184z" fill="#ff8856"/></g><path d="m380.398.002v263.528c72.601-.065 131.646-59.148 131.646-131.764s-59.045-131.699-131.646-131.764z" fill="#ff435b"/><path d="m426.044 116.651h-30.649v-30.65c0-8.284-6.716-15-15-15s-15 6.716-15 15v30.65h-30.649c-8.284 0-15 6.716-15 15s6.716 15 15 15h30.649v30.649c0 8.284 6.716 15 15 15s15-6.716 15-15v-30.649h30.649c8.284 0 15-6.716 15-15s-6.716-15-15-15z" fill="#fff4f4"/><path d="m426.044 116.651h-30.649v-30.65c0-8.283-6.714-14.998-14.996-15v121.299c8.282-.002 14.996-6.717 14.996-15v-30.649h30.649c8.284 0 15-6.716 15-15s-6.716-15-15-15z" fill="#f6efea"/><path d="m286.367 358.528c-5.67-5.67-14.797-5.878-20.719-.473-16.451 15.017-41.681 14.441-57.436-1.314l-26.433-26.433-95.813 95.813c43.833 43.825 97.155 73.179 150.148 82.657 12.223 2.186 24.11 3.266 35.568 3.266 40.089 0 74.906-13.225 100.268-38.586 1.406-1.406 2.876-2.963 4.493-4.762 5.333-5.93 5.093-14.997-.547-20.637z" fill="#00cb75"/><g><path d="m381.162 477.073c-12.044 0-23.344-4.668-31.819-13.144l-77.782-77.782c-8.477-8.476-13.145-19.776-13.145-31.82 0-12.043 4.668-23.344 13.145-31.82 17.546-17.545 46.096-17.544 63.64 0l77.781 77.782c8.477 8.476 13.145 19.776 13.145 31.82s-4.668 23.344-13.145 31.82-19.777 13.144-31.82 13.144z" fill="#009954"/></g><g><path d="m157.716 253.627c-12.043 0-23.344-4.668-31.819-13.144l-77.782-77.782c-17.545-17.545-17.545-46.094 0-63.639 8.477-8.476 19.777-13.144 31.82-13.144s23.344 4.668 31.819 13.144l77.782 77.782c17.545 17.545 17.545 46.094 0 63.639-8.477 8.476-19.777 13.144-31.82 13.144z" fill="#00cb75"/></g></g></svg>