<svg id="Layer_1" enable-background="new 0 0 512.004 512.004" height="512" viewBox="0 0 512.004 512.004" width="512" xmlns="http://www.w3.org/2000/svg"><g><g><g><path d="m256.002 429c-3.375 0-6.75-1.135-9.515-3.404l-54.492-44.714-71.17-7.317c-7.094-.729-12.694-6.353-13.394-13.45l-6.914-70.15-45.151-55.498c-4.501-5.532-4.483-13.468.04-18.981l44.714-54.493 7.318-71.169c.729-7.094 6.353-12.694 13.449-13.394l70.15-6.915 55.498-45.15c5.529-4.5 13.467-4.485 18.98.04l54.494 44.714 71.168 7.317c7.094.729 12.694 6.353 13.394 13.45l6.914 70.149 45.151 55.498c4.501 5.532 4.483 13.468-.04 18.981l-44.714 54.493-7.318 71.169c-.729 7.094-6.353 12.694-13.449 13.394l-70.15 6.915-55.498 45.15c-2.756 2.244-6.111 3.365-9.465 3.365zm-119.917-84.025 63.469 6.525c2.929.301 5.705 1.458 7.98 3.326l48.509 39.804 49.493-40.265c2.283-1.858 5.064-3.003 7.994-3.292l62.446-6.155 6.526-63.469c.301-2.929 1.457-5.705 3.325-7.981l39.804-48.508-40.266-49.493c-1.858-2.284-3.003-5.064-3.292-7.995l-6.155-62.446-63.467-6.526c-2.929-.301-5.704-1.458-7.98-3.326l-48.51-39.804-49.493 40.265c-2.283 1.858-5.064 3.003-7.994 3.292l-62.446 6.155-6.526 63.468c-.301 2.929-1.457 5.705-3.325 7.981l-39.804 48.508 40.266 49.493c1.858 2.284 3.003 5.064 3.292 7.995zm60.917-260.975h.01z" fill="#7dd5f4"/></g></g><path d="m456.638 215.534-45.151-55.498-6.914-70.149c-.699-7.097-6.3-12.721-13.394-13.45l-71.168-7.317-54.494-44.714c-2.765-2.269-6.14-3.403-9.515-3.403v34.403l48.469 39.77c2.276 1.868 5.052 3.024 7.98 3.326l63.468 6.525 6.155 62.446c.289 2.931 1.434 5.711 3.292 7.995l40.266 49.493-39.804 48.508c-1.868 2.276-3.024 5.052-3.325 7.981l-6.526 63.469-62.446 6.155c-2.93.289-5.711 1.434-7.994 3.292l-49.493 40.265-.041-.034v34.403c3.354 0 6.709-1.121 9.466-3.364l55.498-45.15 70.15-6.915c7.097-.7 12.72-6.299 13.449-13.394l7.318-71.169 44.714-54.493c4.523-5.513 4.541-13.449.04-18.981z" fill="#4793ff"/><path d="m224.664 235.306-81.107 82.183c-5.819 5.896-5.757 15.394.14 21.213 2.923 2.885 6.729 4.324 10.535 4.324 3.872 0 7.743-1.49 10.677-4.463l81.057-82.132c-10.036-3.22-17.999-11.127-21.302-21.125z" fill="#00429d"/><path d="m366.883 112.554c-5.897-5.82-15.396-5.756-21.212.14l-79.771 80.829c10.054 3.175 18.046 11.053 21.393 21.031l79.729-80.787c5.82-5.896 5.757-15.393-.139-21.213z" fill="#00347b"/><path d="m223.002 225c0-5.397 1.316-10.494 3.63-15h-114.63c-8.284 0-15 6.716-15 15s6.716 15 15 15h114.63c-2.314-4.506-3.63-9.603-3.63-15z" fill="#00429d"/><path d="m403.002 210h-117.63c2.314 4.506 3.63 9.603 3.63 15s-1.315 10.494-3.629 15h117.629c8.284 0 15-6.716 15-15s-6.716-15-15-15z" fill="#00347b"/><path d="m244.625 194.028-81.197-80.134c-5.897-5.82-15.396-5.756-21.212.14-5.819 5.896-5.757 15.394.14 21.213l81.889 80.817c2.877-10.185 10.532-18.4 20.38-22.036z" fill="#00429d"/><path d="m368.224 316.009-81.106-80.045c-3.51 9.91-11.628 17.666-21.76 20.674l81.794 80.724c2.923 2.885 6.729 4.324 10.535 4.324 3.872 0 7.743-1.49 10.677-4.463 5.819-5.898 5.756-15.395-.14-21.214z" fill="#00347b"/><path d="m256.002 192c5.397 0 10.494 1.316 15 3.629v-118.129c0-8.284-6.716-15-15-15s-15 6.716-15 15v118.13c4.506-2.314 9.603-3.63 15-3.63z" fill="#00429d"/><g><path d="m451.002 270h-30c-16.542 0-30-13.458-30-30v-30c0-16.542 13.458-30 30-30h30c16.542 0 30 13.458 30 30v30c0 16.542-13.458 30-30 30z" fill="#ff8856"/></g><g><path d="m91.002 270h-30c-16.542 0-30-13.458-30-30v-30c0-16.542 13.458-30 30-30h30c16.542 0 30 13.458 30 30v30c0 16.542-13.458 30-30 30z" fill="#fdbf00"/></g><g><path d="m143.723 142.721h-30c-16.542 0-30-13.458-30-30v-30c0-16.542 13.458-30 30-30h30c16.542 0 30 13.458 30 30v30c0 16.542-13.458 30-30 30z" fill="#ff435b"/></g><g><path d="m398.281 142.721h-30c-16.542 0-30-13.458-30-30v-30c0-16.542 13.458-30 30-30h30c16.542 0 30 13.458 30 30v30c0 16.542-13.458 30-30 30z" fill="#cc2e43"/></g><g><path d="m143.723 397.279h-30c-16.542 0-30-13.458-30-30v-30c0-16.542 13.458-30 30-30h30c16.542 0 30 13.458 30 30v30c0 16.542-13.458 30-30 30z" fill="#ff435b"/></g><g><path d="m398.281 397.279h-30c-16.542 0-30-13.458-30-30v-30c0-16.542 13.458-30 30-30h30c16.542 0 30 13.458 30 30v30c0 16.542-13.458 30-30 30z" fill="#cc2e43"/></g><path d="m256.002 62.5v129.5c5.397 0 10.494 1.316 15 3.629v-118.129c0-8.284-6.716-15-15-15z" fill="#00347b"/><g><g><path d="m256.002 337.279c-61.911 0-112.279-50.368-112.279-112.279s50.368-112.279 112.279-112.279 112.279 50.368 112.279 112.279-50.368 112.279-112.279 112.279zm0-194.558c-45.369 0-82.279 36.91-82.279 82.279s36.91 82.279 82.279 82.279 82.279-36.91 82.279-82.279-36.91-82.279-82.279-82.279z" fill="#7dd5f4"/></g></g><path d="m256.002 112.721v30c45.369 0 82.279 36.91 82.279 82.279s-36.91 82.279-82.279 82.279v30c61.911 0 112.279-50.368 112.279-112.279s-50.368-112.279-112.279-112.279z" fill="#4793ff"/><g><path d="m351.378 492.719-72.622-243.867c-5.928 5.659-13.944 9.148-22.754 9.148s-16.825-3.489-22.754-9.148l-72.622 243.867c-2.364 7.94 2.155 16.293 10.095 18.657 7.943 2.364 16.293-2.156 18.657-10.095l66.624-223.725 66.624 223.725c1.939 6.511 7.906 10.723 14.37 10.723 1.417 0 2.858-.203 4.287-.628 7.94-2.364 12.459-10.717 10.095-18.657z" fill="#4793ff"/></g><path d="m351.378 492.719-72.622-243.867c-5.928 5.659-13.944 9.148-22.754 9.148v19.556l66.624 223.725c1.939 6.511 7.906 10.723 14.37 10.723 1.417 0 2.858-.203 4.287-.628 7.94-2.364 12.459-10.717 10.095-18.657z" fill="#525cdd"/><g><path d="m413.71 512h-315.416c-8.284 0-15-6.716-15-15s6.716-15 15-15h315.416c8.284 0 15 6.716 15 15s-6.716 15-15 15z" fill="#00429d"/></g><path d="m413.71 482h-157.708v30h157.708c8.284 0 15-6.716 15-15s-6.716-15-15-15z" fill="#00347b"/><g><path d="m256.002 273c-26.467 0-48-21.533-48-48s21.533-48 48-48 48 21.533 48 48-21.533 48-48 48zm0-66c-9.925 0-18 8.075-18 18s8.075 18 18 18 18-8.075 18-18-8.075-18-18-18z" fill="#ffde46"/></g><path d="m256.002 177v30c9.925 0 18 8.075 18 18s-8.075 18-18 18v30c26.467 0 48-21.533 48-48s-21.533-48-48-48z" fill="#ffcd00"/><g><path d="m271.003 90h-30.001c-16.542 0-30-13.458-30-30v-30c0-16.542 13.458-30 30-30h30.001c16.541 0 29.999 13.458 29.999 30v30c0 16.542-13.458 30-29.999 30z" fill="#fdbf00"/></g><path d="m271.003 0h-15.001v90h15.001c16.541 0 29.999-13.458 29.999-30v-30c0-16.542-13.458-30-29.999-30z" fill="#ff8856"/></g></svg>