<svg xmlns="http://www.w3.org/2000/svg" viewBox="0 0 186 39.306"><defs><style>.a{fill:#fff;}</style></defs><g transform="translate(0.024 0.024)"><g transform="translate(48.203 9.796)"><path class="a" d="M126.347,36.852c-.219,1.358-.788,4.029-1.051,4.949H110.1V40.749c2.54-.219,2.847-.394,2.847-2.934V26.385c0-2.584-.307-2.759-2.409-2.934V22.4h14.014c.044.526.175,2.628.307,4.467L123.763,27a5.722,5.722,0,0,0-1.182-2.54c-.526-.526-1.314-.744-2.978-.744h-1.445c-1.095,0-1.226.044-1.226,1.051v6.306h2.014c2.5,0,2.934-.131,3.328-2.233h1.051v6h-1.051c-.394-2.146-.788-2.277-3.328-2.277h-2.014v5.168c0,1.445.131,2.146.7,2.452a8.219,8.219,0,0,0,2.671.307c1.533,0,2.584-.219,3.284-.963a9.422,9.422,0,0,0,1.664-2.934Z" transform="translate(-110.1 -22.4)"/><path class="a" d="M214.5,23.451c-2.321.219-2.5.394-2.5,2.934V37.859c0,2.5.219,2.671,2.5,2.89V41.8h-9.109V40.749c2.365-.219,2.584-.394,2.584-2.934V32.3h-8.146v5.562c0,2.54.219,2.715,2.452,2.934v1.051h-8.89V40.793c2.19-.219,2.452-.394,2.452-2.934V26.385c0-2.54-.263-2.715-2.54-2.934V22.4h8.934v1.051c-2.146.219-2.365.394-2.365,2.934v4.379h8.146V26.385c0-2.54-.219-2.715-2.452-2.934V22.4h8.978v1.051Z" transform="translate(-156.864 -22.4)"/><path class="a" d="M264.947,36.852c-.219,1.358-.788,4.029-1.051,4.949H248.7V40.749c2.54-.219,2.847-.394,2.847-2.934V26.385c0-2.584-.307-2.759-2.409-2.934V22.4h14.014c.044.526.175,2.628.307,4.467L262.363,27a5.722,5.722,0,0,0-1.182-2.54c-.526-.526-1.314-.744-2.978-.744h-1.445c-1.095,0-1.226.044-1.226,1.051v6.306h2.014c2.5,0,2.934-.131,3.328-2.233h1.051v6h-1.051c-.394-2.146-.788-2.277-3.328-2.277h-2.014v5.168c0,1.445.131,2.146.7,2.452a8.218,8.218,0,0,0,2.671.307c1.533,0,2.584-.219,3.284-.963a9.421,9.421,0,0,0,1.664-2.934Z" transform="translate(-188.003 -22.4)"/><path class="a" d="M310.052,23.507c-1.62.088-2.233.526-2.365,1.839a43.269,43.269,0,0,0-.263,4.992V42.163h-1.445L293.586,27.317H293.5v6.657a44.752,44.752,0,0,0,.219,4.861c.131,1.314.657,1.883,2.847,1.971v1.051H289.25V40.806c1.664-.131,2.365-.613,2.452-1.883a32.887,32.887,0,0,0,.307-4.949V27.8c0-1.971-.044-2.5-.613-3.241a3.045,3.045,0,0,0-2.5-1.051V22.5h5.518l11.43,13.094h.088V30.339a45.1,45.1,0,0,0-.219-4.9c-.131-1.27-.745-1.8-2.934-1.927V22.5h7.27Z" transform="translate(-210.598 -22.456)"/><path class="a" d="M357.647,36.852c-.219,1.358-.788,4.029-1.051,4.949H341.4V40.749c2.54-.219,2.847-.394,2.847-2.934V26.385c0-2.584-.307-2.759-2.409-2.934V22.4h14.014c.044.526.175,2.628.306,4.467L355.063,27a5.721,5.721,0,0,0-1.182-2.54c-.526-.526-1.314-.744-2.978-.744h-1.445c-1.095,0-1.226.044-1.226,1.051v6.306h2.014c2.5,0,2.934-.131,3.328-2.233h1.051v6h-1.051c-.394-2.146-.788-2.277-3.328-2.277h-2.014v5.168c0,1.445.131,2.146.7,2.452a8.22,8.22,0,0,0,2.671.307c1.533,0,2.584-.219,3.285-.963a9.423,9.423,0,0,0,1.664-2.934Z" transform="translate(-240.107 -22.4)"/><path class="a" d="M164.2,22.5h-14.5c-.088,1.445-.219,3.284-.307,5.124h1.095a7.077,7.077,0,0,1,1.27-3.022c.438-.526.963-.788,3.416-.788h1.007v14.1c0,2.54-.307,2.715-2.8,2.934V41.9h9.722V40.849c-2.628-.219-2.934-.394-2.934-2.934v-14.1h1.358c1.752,0,2.5.131,3.022.7a6.508,6.508,0,0,1,1.314,3.109l1.051-.044c-.131-1.577-.263-3.679-.307-5.036H164.2Z" transform="translate(-132.189 -22.456)"/><path class="a" d="M395.841,37.565c-1.883-4.992-3.679-10.029-5.518-15.065h-1.708l-6.087,15.24c-.963,2.5-1.358,2.847-3.328,3.066v1.051h6.657V40.806c-2.19-.263-2.277-.7-1.8-2.1.35-1.182.744-2.277,1.051-3.2h5.737c.438,1.182.876,2.452,1.182,3.372.482,1.314.307,1.664-1.445,1.927v1.051h8.54V40.806C397.2,40.543,396.849,40.192,395.841,37.565Zm-10.2-3.635c.788-2.1,1.533-4.292,2.365-6.481h.088l2.19,6.481Z" transform="translate(-261.353 -22.456)"/></g><g transform="translate(-0.024 -0.024)"><g transform="translate(12.492 12.36)"><path class="a" d="M44.226,28.2,43.744,30h.438v11.08l-.482.876v.963l.569-.526.569.526v-.92l-.482-.92V29.952h.438L44.226,28.2Z" transform="translate(-37.043 -28.2)"/><path class="a" d="M29,39.8l1.533,1.007.131-.394,10.51,3.416.657.744.92.307-.307-.7.657-.394-.876-.307-1.007.175-10.51-3.416v-.044l.131-.35L29,39.8Z" transform="translate(-28.781 -34.72)"/><path class="a" d="M35.1,42.818l1.445-1.139-.35-.263,6.525-8.978.92-.394.569-.744-.832.044L43.2,30.6l-.569.744L42.5,32.352l-6.438,8.978-.044-.044-.307-.219L35.1,42.818Z" transform="translate(-32.21 -29.549)"/><path class="a" d="M43.109,42.774l-.657-1.752-.35.263-6.525-8.934-.131-1.007-.569-.744-.175.744-.7-.088.526.744.92.438,6.481,8.934-.044.044-.307.219,1.533,1.139Z" transform="translate(-31.591 -29.549)"/><path class="a" d="M42.645,39.7l-1.839.088.131.394L30.383,43.6l-.963-.219-.92.307.657.394-.307.7.876-.263.744-.744,10.51-3.416V40.4l.131.35L42.645,39.7Z" transform="translate(-28.5 -34.664)"/></g><path class="a" d="M-.013,18.949A19.732,19.732,0,0,1,20.35-.013h0a19.662,19.662,0,0,1,18.962,20.32h0a19.662,19.662,0,0,1-20.32,18.962h0A19.673,19.673,0,0,1-.013,18.949ZM18.993,38.744A19.121,19.121,0,0,0,38.744,20.307h0A19.121,19.121,0,0,0,20.307.556h0A19.148,19.148,0,0,0,.556,18.993h0A19.121,19.121,0,0,0,18.993,38.744Z" transform="translate(0.024 0.024)"/><path class="a" d="M9.087,24.3a15.661,15.661,0,0,1,16.2-15.109h0A15.661,15.661,0,0,1,40.4,25.391h0A15.661,15.661,0,0,1,24.2,40.5h0A15.69,15.69,0,0,1,9.087,24.3ZM24.24,39.93A15.149,15.149,0,0,0,39.874,25.347h0A15.149,15.149,0,0,0,25.291,9.713h0A15.091,15.091,0,0,0,9.656,24.3h0A15.091,15.091,0,0,0,24.24,39.93Z" transform="translate(-5.092 -5.148)"/><path class="a" d="M43.1,5.483a7.031,7.031,0,0,1,1.358,0h.219A15.239,15.239,0,0,0,43.888,3.6h0A10.085,10.085,0,0,0,43.1,5.483Z" transform="translate(-24.215 -2.013)"/><path class="a" d="M46.644,4.3A9.893,9.893,0,0,1,47.7,2.631h0c-.526-.044-1.007-.088-1.533-.131H45.9c.175.394.526,1.139.744,1.8Z" transform="translate(-25.788 -1.395)"/><path class="a" d="M37.7,6.046Zm.088-.131c.438-.088.92-.131,1.358-.219h0a.328.328,0,0,0,.219-.044h0A13.236,13.236,0,0,0,38.313,3.9h0a17.062,17.062,0,0,0-.526,2.014Z" transform="translate(-21.18 -2.182)"/><path class="a" d="M40.907,4.3A9.652,9.652,0,0,1,41.7,2.5h0c-.526,0-1.007.044-1.533.088h0a.555.555,0,0,0-.263.044h0A8.356,8.356,0,0,1,40.907,4.3Z" transform="translate(-22.416 -1.395)"/><path class="a" d="M32.9,7.227v.088h0l1.314-.394h0c.088,0,.131-.044.219-.044h0A12.42,12.42,0,0,0,33.163,5.3h0c-.088.438-.219,1.358-.263,1.927Z" transform="translate(-18.482 -2.969)"/><path class="a" d="M35.27,4.883A14.237,14.237,0,0,1,35.8,3h0c-.526.088-1.007.175-1.533.307h0c-.088,0-.175.044-.263.044h0a9.091,9.091,0,0,1,1.27,1.533Z" transform="translate(-19.1 -1.676)"/><path class="a" d="M28.1,7.582c0,.526,0,1.182.044,1.577h0a11.166,11.166,0,0,1,1.27-.569h0c.088-.044.131-.044.219-.088h0a14.569,14.569,0,0,0-1.489-1.4h0a1.8,1.8,0,0,0-.044.482Z" transform="translate(-15.784 -3.98)"/><path class="a" d="M29.945,6.327A11.391,11.391,0,0,1,30.208,4.4h0c-.482.131-.963.35-1.445.526h0c-.088.044-.175.044-.263.088h0a12.27,12.27,0,0,1,1.445,1.314Z" transform="translate(-16.008 -2.463)"/><path class="a" d="M23.307,11.914c.394-.263.744-.526,1.139-.744h0c.088-.044.131-.088.219-.131h0A8.687,8.687,0,0,0,23,9.9h0a16,16,0,0,0,.307,2.014Z" transform="translate(-12.917 -5.554)"/><path class="a" d="M24.877,8.471c-.044-.438-.044-1.051-.044-1.533h0a1.35,1.35,0,0,1,.044-.438h0c-.482.219-.92.482-1.358.7h0c-.088.044-.131.088-.219.131h0a19.255,19.255,0,0,1,1.577,1.139Z" transform="translate(-13.086 -3.643)"/><path class="a" d="M18.969,15.327c.35-.307.7-.613,1.051-.876h0c.044-.044.131-.088.175-.131h0a11.678,11.678,0,0,0-1.8-.92h0a11.858,11.858,0,0,0,.569,1.927Z" transform="translate(-10.332 -7.521)"/><path class="a" d="M15.132,19.139a6.6,6.6,0,0,1,.92-1.007h0l.175-.175h0A14.364,14.364,0,0,0,14.3,17.3h0a8.536,8.536,0,0,0,.832,1.839Z" transform="translate(-8.027 -9.713)"/><path class="a" d="M15.783,14.783a12.839,12.839,0,0,1-.569-1.883h0c-.394.35-.744.7-1.139,1.095h0l-.175.175h0a13.355,13.355,0,0,1,1.883.613Z" transform="translate(-7.802 -7.24)"/><path class="a" d="M11.795,23.508a10.188,10.188,0,0,1,.744-1.139h0c.044-.044.088-.131.131-.175h0A13.04,13.04,0,0,0,10.7,21.8h0a8.719,8.719,0,0,0,1.095,1.708Z" transform="translate(-6.004 -12.243)"/><path class="a" d="M12.127,18.9a8.987,8.987,0,0,1-.788-1.8h0c-.35.394-.657.832-.963,1.226h0a.769.769,0,0,1-.175.219h0a13,13,0,0,1,1.927.35Z" transform="translate(-5.723 -9.601)"/><path class="a" d="M9.214,28.333a10.673,10.673,0,0,1,.613-1.226h0c.044-.088.088-.131.088-.219h0A9.247,9.247,0,0,0,8.776,26.8H7.9a7.183,7.183,0,0,0,1.314,1.533Z" transform="translate(-4.43 -15.053)"/><path class="a" d="M9.071,23.564A14.717,14.717,0,0,1,8.02,21.9h0c-.263.438-.526.876-.788,1.358h0a.957.957,0,0,1-.131.219h.92a7.845,7.845,0,0,1,1.051.088Z" transform="translate(-3.98 -12.299)"/><path class="a" d="M7.233,33.233l.394-1.314h0c.044-.088.044-.131.088-.219h0a13.274,13.274,0,0,0-2.014.175h0a7.719,7.719,0,0,0,1.533,1.358Z" transform="translate(-3.193 -17.807)"/><path class="a" d="M4.888,28.6c-.044.088-.044.175-.088.263h0a12.074,12.074,0,0,1,1.927-.175h0A12.156,12.156,0,0,1,5.457,27.2h0c-.175.394-.394.876-.569,1.4Z" transform="translate(-2.687 -15.278)"/><path class="a" d="M6.008,38.277c.044-.438.131-.92.219-1.358h0c0-.088.044-.131.044-.219h0a19.042,19.042,0,0,0-1.971.438h0a9.658,9.658,0,0,0,1.708,1.139Z" transform="translate(-2.406 -20.617)"/><path class="a" d="M3.344,34.189c0,.088-.044.175-.044.263h0a15.09,15.09,0,0,1,1.883-.438h0A10.786,10.786,0,0,1,3.738,32.7h0a7.4,7.4,0,0,0-.394,1.489Z" transform="translate(-1.844 -18.369)"/><path class="a" d="M5.627,43.552Zm-.088-.175v-.788h0a2.5,2.5,0,0,1,.044-.569h0V41.8h0a12.982,12.982,0,0,0-1.883.744h0a11.74,11.74,0,0,0,1.839.832Z" transform="translate(-2.069 -23.484)"/><path class="a" d="M2.6,39.933V40.2h0a10.829,10.829,0,0,1,1.839-.7h0A9.493,9.493,0,0,1,2.819,38.4h0A8.617,8.617,0,0,0,2.6,39.933Z" transform="translate(-1.451 -21.573)"/><path class="a" d="M5.827,48.577c-.088-.438-.131-.92-.175-1.358h0V47h0a15.745,15.745,0,0,0-1.752.963h0a9.008,9.008,0,0,0,1.927.613Z" transform="translate(-2.182 -26.407)"/><path class="a" d="M2.521,45.777v.263h0a11.871,11.871,0,0,1,1.708-.963h0A10.872,10.872,0,0,1,2.477,44.2h0a9.354,9.354,0,0,0,.044,1.577Z" transform="translate(-1.371 -24.833)"/><path class="a" d="M6.914,53.633c-.131-.438-.263-.876-.35-1.314h0c0-.088-.044-.131-.044-.219h0A9.8,9.8,0,0,0,4.9,53.326h0a9.7,9.7,0,0,0,2.014.307Z" transform="translate(-2.744 -29.273)"/><path class="a" d="M3.007,51.733c0,.088.044.175.044.263h0a9.323,9.323,0,0,1,1.533-1.182h0A10.556,10.556,0,0,1,2.7,50.2h0c.088.526.175,1.007.307,1.533Z" transform="translate(-1.507 -28.205)"/><path class="a" d="M7.476,58.589H8.658c-.175-.394-.35-.832-.526-1.27h0c-.044-.088-.044-.131-.088-.219h0A14.988,14.988,0,0,0,6.6,58.545h0c.263,0,.526.044.876.044Z" transform="translate(-3.699 -32.084)"/><path class="a" d="M4.382,57.489c.044.088.044.175.088.263h0a13.28,13.28,0,0,1,1.358-1.4h0A11.657,11.657,0,0,1,3.9,56h0c.131.482.307,1.007.482,1.489Z" transform="translate(-2.182 -31.465)"/><path class="a" d="M9.2,63.42a15.737,15.737,0,0,0,2.014-.219h0c-.263-.394-.482-.788-.7-1.182h0c-.044-.088-.088-.131-.088-.219h0A12.141,12.141,0,0,0,9.2,63.42Z" transform="translate(-5.161 -34.725)"/><path class="a" d="M6.557,63a.957.957,0,0,0,.131.219h0a10.825,10.825,0,0,1,1.139-1.577H6.732c-.35,0-.657-.044-.832-.044h0c.175.482.438.92.657,1.4Z" transform="translate(-3.306 -34.613)"/><path class="a" d="M12.4,68a12,12,0,0,0,1.971-.526h0c-.307-.35-.569-.7-.876-1.095h0c-.044-.044-.088-.131-.131-.175h0A14.558,14.558,0,0,0,12.4,68Z" transform="translate(-6.959 -37.198)"/><path class="a" d="M9.432,67.889a.769.769,0,0,0,.175.219h0a11.107,11.107,0,0,1,.92-1.708h0a10.4,10.4,0,0,1-1.927.219h0c.263.438.569.876.832,1.27Z" transform="translate(-4.823 -37.311)"/><path class="a" d="M16.3,72.127a11.482,11.482,0,0,0,1.883-.788h0c-.35-.307-.657-.613-1.007-.963h0c-.044-.044-.088-.131-.175-.175h0a10.4,10.4,0,0,0-.7,1.927Z" transform="translate(-9.151 -39.447)"/><path class="a" d="M13.107,72.264l.175.175h0a11.011,11.011,0,0,1,.7-1.839h0a9.168,9.168,0,0,1-1.883.482h0a8.047,8.047,0,0,0,1.007,1.182Z" transform="translate(-6.791 -39.672)"/><path class="a" d="M20.7,75.771a10.314,10.314,0,0,0,1.752-1.051h0c-.394-.263-.744-.526-1.095-.788h0c-.044-.044-.131-.088-.175-.131h0a6.811,6.811,0,0,0-.482,1.971Z" transform="translate(-11.624 -41.47)"/><path class="a" d="M17.226,76.052a.769.769,0,0,1,.219.175h0a9.823,9.823,0,0,1,.438-1.927h0A7.976,7.976,0,0,1,16,75.044h0a13.631,13.631,0,0,0,1.226,1.007Z" transform="translate(-8.983 -41.751)"/><path class="a" d="M25.6,78.32v.394h0a10.548,10.548,0,0,0,1.577-1.27h0c-.394-.175-.832-.394-1.226-.613h0c-.088-.044-.131-.088-.219-.131h0a10.107,10.107,0,0,0-.131,1.62Z" transform="translate(-14.378 -43.1)"/><path class="a" d="M21.958,79.239c.088.044.131.088.219.131h0v-.482h0a8.94,8.94,0,0,1,.131-1.489h0A14.408,14.408,0,0,1,20.6,78.407h0a14.04,14.04,0,0,0,1.358.832Z" transform="translate(-11.568 -43.494)"/><path class="a" d="M30.485,79.131a8.283,8.283,0,0,0,.131,1.883h0a11.445,11.445,0,0,0,1.4-1.489h0c-.438-.131-.876-.307-1.27-.438h0c-.088-.044-.131-.044-.219-.088h0a.161.161,0,0,0-.044.131Z" transform="translate(-17.118 -44.393)"/><path class="a" d="M27.2,81.614c.088.044.175.044.263.088h0a12.486,12.486,0,0,1-.131-1.927h0A11.722,11.722,0,0,1,25.8,81h0a13.53,13.53,0,0,0,1.4.613Zm.307-2.014Z" transform="translate(-14.491 -44.73)"/><path class="a" d="M35.794,82.671a11.4,11.4,0,0,0,1.182-1.664h0c-.438-.088-.876-.175-1.358-.263h0c-.088,0-.131-.044-.219-.044h0a19.565,19.565,0,0,0,.394,1.971Z" transform="translate(-19.887 -45.348)"/><path class="a" d="M32.689,83.683a.556.556,0,0,0,.263.044h0a14.78,14.78,0,0,1-.394-1.927h0A8.328,8.328,0,0,1,31.2,83.2h0a9.809,9.809,0,0,0,1.489.482Z" transform="translate(-17.526 -45.967)"/><path class="a" d="M41.157,83.527a11.526,11.526,0,0,0,.92-1.8h-.219a9.965,9.965,0,0,1-1.139-.088h0A.4.4,0,0,1,40.5,81.6h0a12.282,12.282,0,0,0,.657,1.927Z" transform="translate(-22.753 -45.854)"/><path class="a" d="M38.433,84.8a.555.555,0,0,1,.263.044h0A11.03,11.03,0,0,1,38.039,83h0A12.275,12.275,0,0,1,36.9,84.577h0c.526.088,1.007.175,1.533.219Z" transform="translate(-20.73 -46.641)"/><path class="a" d="M46.62,83.527a9.078,9.078,0,0,0,.657-1.927h0c-.438.044-.92.088-1.358.088H45.7a8.971,8.971,0,0,0,.92,1.839Z" transform="translate(-25.676 -45.854)"/><path class="a" d="M42.919,85.052h1.62a12.769,12.769,0,0,1-.92-1.752h0a10.849,10.849,0,0,1-.92,1.752h.219Z" transform="translate(-23.99 -46.81)"/><path class="a" d="M51.982,82.671a9.823,9.823,0,0,0,.394-1.971h0a12.335,12.335,0,0,1-1.358.307h0c-.088,0-.131.044-.219.044h0a9.682,9.682,0,0,0,1.182,1.62Z" transform="translate(-28.543 -45.348)"/><path class="a" d="M48.7,84.839c.526-.044,1.007-.131,1.533-.219h0c.088,0,.175-.044.263-.044h0A18.736,18.736,0,0,1,49.357,83h0a10.05,10.05,0,0,1-.657,1.839Z" transform="translate(-27.362 -46.641)"/><path class="a" d="M57.258,80.89c.044-.307.088-.832.131-1.314h0v-.7h0c-.438.175-.832.35-1.27.482h0c-.088.044-.131.044-.219.088h0a14.277,14.277,0,0,0,1.358,1.445Zm.219-2.19Z" transform="translate(-31.409 -44.224)"/><path class="a" d="M54.6,83.727c.482-.131,1.007-.263,1.489-.438h0c.088-.044.175-.044.263-.088h0a14.1,14.1,0,0,1-1.358-1.4h0a16.482,16.482,0,0,1-.394,1.927Z" transform="translate(-30.678 -45.967)"/><path class="a" d="M62.22,78.715h0a10.437,10.437,0,0,0-.175-2.014h0c-.394.219-.788.438-1.226.657h0c-.088.044-.131.088-.219.088h0a12.732,12.732,0,0,0,1.62,1.27Z" transform="translate(-34.051 -43.1)"/><path class="a" d="M60.331,80.557a5.528,5.528,0,0,1-.131,1.314h0a13.529,13.529,0,0,0,1.4-.613h0a.957.957,0,0,0,.219-.131h0A11,11,0,0,1,60.288,79.9h0a3.314,3.314,0,0,1,.044.657Z" transform="translate(-33.826 -44.899)"/><path class="a" d="M66.908,75.771A10.616,10.616,0,0,0,66.47,73.8h0a9.939,9.939,0,0,1-1.095.788h0c-.044.044-.131.088-.175.131h0a10.618,10.618,0,0,0,1.708,1.051Z" transform="translate(-36.636 -41.47)"/><path class="a" d="M65.431,79.427h0c.438-.219.876-.526,1.314-.788h0c.088-.044.131-.088.219-.131h0A12.04,12.04,0,0,1,65.3,77.5h0a15.264,15.264,0,0,1,.131,1.927Z" transform="translate(-36.693 -43.55)"/><path class="a" d="M71.239,72.183a16.406,16.406,0,0,0-.7-1.883h0c-.307.35-.657.657-.963.963h0c-.044.044-.131.088-.175.131h0a12.9,12.9,0,0,0,1.839.788Z" transform="translate(-38.997 -39.503)"/><path class="a" d="M69.938,76.227c.394-.307.788-.657,1.182-1.007h0l.175-.175h0a9.81,9.81,0,0,1-1.8-.744h0a7.432,7.432,0,0,1,.438,1.927Z" transform="translate(-39.053 -41.751)"/><path class="a" d="M74.927,67.771a11.971,11.971,0,0,0-.963-1.8h0c-.263.35-.526.744-.832,1.095h0c-.044.044-.088.131-.131.175h0a12.814,12.814,0,0,0,1.927.526ZM73.963,65.8Z" transform="translate(-41.021 -36.974)"/><path class="a" d="M74.157,72.439c.35-.35.7-.744,1.051-1.139h0c.044-.088.131-.131.175-.219h0A13.263,13.263,0,0,1,73.5,70.6h0a10.5,10.5,0,0,1,.657,1.839Z" transform="translate(-41.302 -39.672)"/><path class="a" d="M77.971,63.42h.044a10.513,10.513,0,0,0-1.226-1.62h0l-.657,1.182h0c-.044.044-.088.131-.131.175h0a8.147,8.147,0,0,0,1.971.263Z" transform="translate(-42.707 -34.725)"/><path class="a" d="M77.663,68.108a13.035,13.035,0,0,0,.876-1.27h0c.044-.088.088-.131.131-.219h-.088A10.825,10.825,0,0,1,76.7,66.4h0a11.678,11.678,0,0,1,.963,1.708Z" transform="translate(-43.1 -37.311)"/><path class="a" d="M78.838,58.589c.569,0,1.226,0,1.62-.044h0A11.259,11.259,0,0,0,79.013,57.1h0a7.793,7.793,0,0,1-.526,1.27h0c-.044.088-.044.131-.088.219h.438Z" transform="translate(-44.056 -32.084)"/><path class="a" d="M80.582,63.264a13.936,13.936,0,0,0,.7-1.4h0a.622.622,0,0,0,.088-.263h0c-.438.044-1.095.088-1.708.088H79.4a7.4,7.4,0,0,1,1.182,1.577Z" transform="translate(-44.618 -34.613)"/><path class="a" d="M80.444,53.414c0,.088-.044.131-.044.219h0a12.234,12.234,0,0,0,2.014-.307h0a9.254,9.254,0,0,0-1.62-1.226h0c-.131.438-.219.876-.35,1.314Z" transform="translate(-45.18 -29.273)"/><path class="a" d="M82.858,57.752a14.815,14.815,0,0,0,.482-1.489h0c.044-.088.044-.175.088-.263h0a11.109,11.109,0,0,1-1.927.307h0a19.273,19.273,0,0,1,1.358,1.445Z" transform="translate(-45.798 -31.465)"/><path class="a" d="M81.544,48.3c0,.088-.044.131-.044.219h0a9.978,9.978,0,0,0,1.927-.613h0A11.4,11.4,0,0,0,81.675,46.9h0c-.044.482-.088.92-.131,1.4Z" transform="translate(-45.798 -26.351)"/><path class="a" d="M84.277,52a8.616,8.616,0,0,0,.263-1.533h0c0-.088.044-.175.044-.263h0a12.2,12.2,0,0,1-1.883.569h0A13.26,13.26,0,0,1,84.277,52Z" transform="translate(-46.473 -28.205)"/><path class="a" d="M81.675,42.989v.219h0a12.034,12.034,0,0,0,1.839-.876h0a12.044,12.044,0,0,0-1.883-.744h0c.044.482.044.92.044,1.4ZM81.5,41.5Z" transform="translate(-45.798 -23.315)"/><path class="a" d="M85.008,46.2a4.758,4.758,0,0,0,.044-.788h0v-.744h0V44.4h0a10.919,10.919,0,0,1-1.752.832h0a7.911,7.911,0,0,1,1.708.963Z" transform="translate(-46.81 -24.945)"/><path class="a" d="M81.094,37.845a.4.4,0,0,0,.044.219h0a10.444,10.444,0,0,0,1.708-1.095h0a12.969,12.969,0,0,0-1.971-.482h0a12.559,12.559,0,0,0,.219,1.358ZM80.7,36.4Z" transform="translate(-45.348 -20.449)"/><path class="a" d="M84.939,40.2c-.044-.526-.088-1.007-.175-1.533h0a.555.555,0,0,0-.044-.263h0c-.394.307-1.051.744-1.62,1.095h0a14.718,14.718,0,0,1,1.839.7Z" transform="translate(-46.697 -21.573)"/><path class="a" d="M79.882,33.07a.4.4,0,0,1,.044.219h0a11.91,11.91,0,0,0,1.533-1.314h0A9.329,9.329,0,0,0,79.75,31.8H79.4a6.331,6.331,0,0,1,.482,1.27Z" transform="translate(-44.618 -17.863)"/><path class="a" d="M84.083,34.4c-.088-.482-.219-1.007-.35-1.533h0c-.044-.088-.044-.175-.088-.263h0A14.844,14.844,0,0,1,82.2,33.914h0a9.81,9.81,0,0,1,1.883.482Z" transform="translate(-46.192 -18.313)"/><path class="a" d="M77.857,28.114c.044.088.044.131.088.219h0A9.845,9.845,0,0,0,79.258,26.8h-.175c-.526,0-1.358.044-1.883.088h0a8.364,8.364,0,0,1,.657,1.226Z" transform="translate(-43.381 -15.053)"/><path class="a" d="M82.527,28.808c-.175-.482-.35-.963-.569-1.445h0a.623.623,0,0,1-.088-.263h0a11.578,11.578,0,0,1-1.27,1.489h.219a9.03,9.03,0,0,1,1.708.219Z" transform="translate(-45.292 -15.222)"/><path class="a" d="M75.288,23.333c.044.044.088.131.131.175h0A11.075,11.075,0,0,0,76.514,21.8h0a11.668,11.668,0,0,0-2.014.394h0c.263.35.526.744.788,1.139Z" transform="translate(-41.864 -12.243)"/><path class="a" d="M78.2,23.564a12.33,12.33,0,0,1,1.8-.088h.175a10.855,10.855,0,0,0-.788-1.358h0c-.044-.088-.088-.131-.131-.219h0A12.709,12.709,0,0,1,78.2,23.564Z" transform="translate(-43.943 -12.299)"/><path class="a" d="M72.12,18.964c.044.044.088.131.131.175h0a9.938,9.938,0,0,0,.876-1.839h0a12.542,12.542,0,0,0-1.927.657h0c.307.307.613.657.92,1.007Z" transform="translate(-40.009 -9.713)"/><path class="a" d="M75.2,18.9a11.257,11.257,0,0,1,1.927-.35h0a13.2,13.2,0,0,0-.963-1.226h0c-.044-.088-.131-.131-.175-.219h0a7.754,7.754,0,0,1-.788,1.8Z" transform="translate(-42.257 -9.601)"/><path class="a" d="M68.407,15.152c.044.044.131.088.175.175h0A13.805,13.805,0,0,0,69.2,13.4h0a9.935,9.935,0,0,0-1.8.92h0c.307.219.657.526,1.007.832Z" transform="translate(-37.873 -7.521)"/><path class="a" d="M71.6,14.883a9.376,9.376,0,0,1,1.883-.613h0c-.35-.394-.744-.744-1.095-1.095h0A.955.955,0,0,0,72.169,13h0a17.093,17.093,0,0,1-.569,1.883Z" transform="translate(-40.234 -7.296)"/><path class="a" d="M64.082,11.783c.044.044.131.088.175.131h0A11.862,11.862,0,0,0,64.564,9.9h0A10.2,10.2,0,0,0,62.9,11.039h0c.394.263.788.482,1.182.744Z" transform="translate(-35.344 -5.554)"/><path class="a" d="M67.5,11.327a10.863,10.863,0,0,1,1.752-.876h0c-.394-.307-.832-.613-1.27-.92h0c-.088-.044-.131-.088-.219-.131h0a8.39,8.39,0,0,1-.263,1.927Z" transform="translate(-37.929 -5.273)"/><path class="a" d="M59.526,9.071c.088.044.131.088.219.088h0a4.007,4.007,0,0,0,.044-.744h0V7.1h0A14.379,14.379,0,0,0,58.3,8.458h0c.394.219.832.438,1.226.613Z" transform="translate(-32.758 -3.98)"/><path class="a" d="M62.944,7.858a2.891,2.891,0,0,1-.044.613h0a10.562,10.562,0,0,1,1.62-1.095h0c-.438-.263-.92-.482-1.358-.744h0a.957.957,0,0,1-.219-.131h0c0,.35.044.832,0,1.358Z" transform="translate(-35.344 -3.643)"/><path class="a" d="M54.614,7.227c.088,0,.131.044.219.088h0A8.994,8.994,0,0,0,54.57,5.3h0A11.737,11.737,0,0,0,53.3,6.877h0c.438.088.876.219,1.314.35Z" transform="translate(-29.948 -2.969)"/><path class="a" d="M57.663,6.327a9.814,9.814,0,0,1,1.445-1.314h0a9.59,9.59,0,0,0-1.445-.526h0c-.088-.044-.175-.044-.263-.088h0a7.875,7.875,0,0,1,.263,1.927Z" transform="translate(-32.252 -2.463)"/><path class="a" d="M49.558,5.927c.088,0,.131.044.219.044h0A11.709,11.709,0,0,0,49.251,4h0A9.769,9.769,0,0,0,48.2,5.752h0c.438.044.92.131,1.358.175Z" transform="translate(-27.081 -2.238)"/><path class="a" d="M52.226,4.883A11.223,11.223,0,0,1,53.5,3.394h0c-.482-.131-1.007-.219-1.533-.35h0c-.088,0-.175-.044-.263-.044h0a14.238,14.238,0,0,1,.526,1.883Z" transform="translate(-29.048 -1.676)"/><path class="a" d="M20.052,11.327A10.658,10.658,0,0,1,19.789,9.4h0a11.56,11.56,0,0,0-1.27.92h0a.769.769,0,0,0-.219.175h0a8.832,8.832,0,0,1,1.752.832Z" transform="translate(-10.275 -5.273)"/><g transform="translate(6.185 12.667)"><path class="a" d="M17.038,31.371l-.438-.438c.044-.088.131-.438.219-.657a1.221,1.221,0,0,1,1.708-.657,1.326,1.326,0,0,1,.482,1.883,5.522,5.522,0,0,1-.394.569,4.911,4.911,0,0,1-.569-.219l.044-.131a.691.691,0,0,0,.832-.35c.263-.482-.088-.963-.569-1.226-.613-.307-1.182-.175-1.4.263a.847.847,0,0,0,.175.92Z" transform="translate(-15.505 -29.225)"/><path class="a" d="M15.726,38a1.249,1.249,0,0,1-.963-1.533,1.209,1.209,0,0,1,1.489-.92,1.237,1.237,0,0,1,.92,1.533A1.159,1.159,0,0,1,15.726,38Zm.482-1.883c-.613-.131-1.182,0-1.314.438-.088.35.175.7.832.876.7.175,1.226,0,1.314-.438C17.171,36.642,16.821,36.248,16.207,36.116Z" transform="translate(-14.456 -32.613)"/><path class="a" d="M16.377,44.628c0-.219-.044-.263-.219-.307-.131,0-.307-.044-.613-.044H14.1V44.1l1.839-1.533h-.832c-.307,0-.482.044-.613.044-.175,0-.219.088-.263.35H14.1v-.92h.131c0,.219.088.307.219.307s.263.044.613.044h.788c.219,0,.307,0,.394-.088A.341.341,0,0,0,16.377,42h.131v.7l-1.62,1.4h.657c.307,0,.482-.044.613-.044.175,0,.219-.088.219-.35h.131v.92Z" transform="translate(-14.1 -36.263)"/><path class="a" d="M16.514,50.361c.219-.131.438-.307.394-.613a.335.335,0,0,0-.438-.263c-.219.044-.307.219-.394.569-.088.438-.263.7-.613.788a.8.8,0,0,1-.92-.7,1.212,1.212,0,0,1-.044-.394.328.328,0,0,1,.044-.219,3.911,3.911,0,0,1,.569-.219l.088.131c-.219.131-.569.438-.482.788a.335.335,0,0,0,.438.263c.219-.044.307-.219.394-.526a.943.943,0,0,1,.569-.788.743.743,0,0,1,.876.657,1.032,1.032,0,0,1,0,.526c-.131.044-.263.088-.482.175Z" transform="translate(-14.325 -40.289)"/><path class="a" d="M18.433,54.946c.175-.131.263-.219.263-.307.044-.088,0-.175-.088-.394l-.088-.175-1.533.744c-.307.131-.307.175-.175.482l-.131.044L16.2,54.245l.131-.044c.131.263.175.307.482.175l1.577-.7-.088-.131c-.131-.263-.175-.307-.263-.35a.592.592,0,0,0-.394,0l-.044-.131a6.035,6.035,0,0,0,.7-.263l.044.088a.2.2,0,0,0,0,.219l.613,1.358a.342.342,0,0,0,.175.175l.044.088a4.7,4.7,0,0,1-.657.307Z" transform="translate(-15.28 -42.333)"/><path class="a" d="M18.788,60.833l.088-.088c.131.175.219.131.307,0a2.429,2.429,0,0,0,.263-.35l-.394-.569-.394.131c-.175.044-.219.088-.088.35l-.131.044L18,59.694l.088-.088c.175.175.219.175.526.131l1.971-.438.131.131c-.394.569-.788,1.095-1.182,1.664-.175.307-.219.35-.088.569l-.088.088Zm1.27-1.27h0a4.619,4.619,0,0,0-.832.219l.307.482Z" transform="translate(-16.292 -45.987)"/><path class="a" d="M25.416,63.483c-.175-.131-.263-.131-.35-.044a3.851,3.851,0,0,0-.438.438l-.963,1.095-.175-.131.088-2.409h0l-.569.613a2.711,2.711,0,0,0-.394.482c-.088.131-.088.219.088.438l-.088.088L22,63.4l.088-.088c.175.131.263.131.394.044a3.851,3.851,0,0,0,.438-.438l.526-.569c.175-.175.219-.219.219-.35s-.044-.175-.131-.307l.088-.088.526.438L24.1,64.184h0l.438-.482c.219-.219.307-.394.394-.482.088-.131.088-.219-.131-.438l.088-.088.657.613Z" transform="translate(-18.54 -47.28)"/><path class="a" d="M31.346,67.477a1.509,1.509,0,0,0,.044-.394c-.044-.088-.088-.131-.307-.263l-.131-.088-.832,1.533c-.131.263-.131.307.175.482l-.044.131L29.2,68.309l.044-.131c.307.131.307.131.482-.175l.832-1.533-.131-.044a.836.836,0,0,0-.438-.131,1.4,1.4,0,0,0-.307.263l-.131-.044c.131-.219.307-.438.394-.613l.088.044c0,.088.044.131.131.175l1.314.7a.2.2,0,0,0,.219,0l.088.044a4.7,4.7,0,0,0-.307.657Z" transform="translate(-22.587 -49.697)"/><path class="a" d="M34.4,70.921l.044-.131c.263.044.307.044.394-.263l.438-1.358c.088-.307.088-.35-.175-.438l.044-.131,1.051.35-.044.131c-.263-.044-.307-.044-.394.263L35.32,70.7c-.088.307-.088.35.175.438l-.044.131Z" transform="translate(-25.51 -51.214)"/><path class="a" d="M39.3,72.409v-.131c.219,0,.263-.044.219-.219a1.927,1.927,0,0,0-.088-.438l-.7-.088a1.716,1.716,0,0,0-.175.394c-.088.175-.088.219.175.307v.131l-.832-.131V72.1c.263,0,.307-.044.438-.307L39.345,70h.175c.131.657.307,1.358.438,2.014.088.35.131.394.35.438v.131Zm-.044-1.8h0c-.131.263-.263.482-.394.744l.569.088Z" transform="translate(-27.477 -52.001)"/><path class="a" d="M47.539,69.844a1.479,1.479,0,0,1,1.095.131.9.9,0,0,1,.438.7,1.21,1.21,0,0,1-.263,1.051,1.582,1.582,0,0,1-1.051.482l-.92.175-.044-.131c.263-.088.307-.088.263-.438l-.263-1.4c-.044-.307-.088-.307-.35-.307l-.044-.131Zm0,1.927c.044.263.131.35.35.307.482-.088.744-.525.613-1.182a1.109,1.109,0,0,0-.394-.744.76.76,0,0,0-.613-.131,1.84,1.84,0,0,0-.219.088c-.044.044-.044.088,0,.219Z" transform="translate(-32.255 -51.889)"/><path class="a" d="M53.488,70.828l-.044-.131c.263-.131.263-.175.175-.438l-.482-1.314c-.088-.307-.131-.307-.394-.219l-.044-.131,1.051-.394.044.131c-.263.131-.263.175-.175.438l.482,1.314c.088.307.131.307.394.219l.044.131Z" transform="translate(-35.796 -50.989)"/><path class="a" d="M58.033,65.088c-.175.131-.219.219-.175.613.044.307.219,1.182.35,1.971l-.131.088c-.569-.438-1.314-1.007-1.664-1.27-.263-.175-.35-.175-.526-.088l-.088-.088.92-.569.088.131c-.219.175-.175.219-.044.307.263.175.876.657,1.182.92h0c-.131-.569-.219-1.007-.263-1.358-.088-.263-.088-.307-.35-.175l-.131-.131L57.946,65Z" transform="translate(-37.538 -49.191)"/><path class="a" d="M62.82,65.2l-.088-.088c.175-.219.175-.263,0-.482l-.963-1.051c-.219-.219-.263-.219-.482-.044l-.088-.088.832-.744.088.088c-.175.219-.175.263.044.482l.963,1.051c.219.219.263.219.482.044l.088.088Z" transform="translate(-40.573 -47.898)"/><path class="a" d="M65.3,58.526c-.175-.088-.307-.131-.394-.088-.088,0-.175.088-.307.263l-.088.131,1.4,1.051c.263.175.307.175.526-.088l.088.088-.7.963-.088-.088c.175-.263.175-.307-.088-.482l-1.4-1.051-.131.088c-.175.263-.175.307-.175.394a.639.639,0,0,0,.219.35l-.088.131c-.219-.175-.394-.35-.569-.482l.044-.088c.088,0,.131-.044.219-.131l.876-1.182c.044-.088.088-.131.044-.219L64.726,58c.131.088.394.263.613.394Z" transform="translate(-41.866 -45.256)"/><path class="a" d="M69.146,57.1l-.131-.044c.088-.263.088-.307-.175-.438l-1.27-.613c-.263-.131-.307-.131-.482.131L67,56.007,67.482,55l.131.044c-.088.263-.088.307.175.438l1.27.613c.263.131.307.131.438-.131l.131.044Z" transform="translate(-43.833 -43.57)"/><path class="a" d="M71.409,52.063l-.131-.044c.044-.219,0-.263-.175-.219a1.643,1.643,0,0,0-.438.044l-.219.7a2.442,2.442,0,0,0,.35.219c.175.088.219.088.307-.131l.131.044-.219.788-.131-.044c.044-.263,0-.307-.263-.482L69,51.669v-.175l2.058-.131c.35-.044.394-.044.482-.263l.131.044Zm-1.752-.219h0l.657.526.175-.569Z" transform="translate(-44.958 -41.378)"/><path class="a" d="M72.584,44.444v.131c-.044.482-.175.613-.394.744-.175.088-.35.175-.569.263a.223.223,0,0,0-.175.219v.088l.526.044c.307.044.35,0,.394-.307H72.5l-.088,1.095h-.131c0-.263-.044-.307-.35-.35l-1.4-.088c-.307-.044-.35,0-.394.263H70l.088-1.051a1.725,1.725,0,0,1,.175-.657.6.6,0,0,1,.526-.219.7.7,0,0,1,.569.526,5.847,5.847,0,0,0,.526-.263,2.786,2.786,0,0,0,.438-.263A.769.769,0,0,0,72.5,44.4ZM71.27,45.758a.472.472,0,0,0-.088-.35c-.088-.131-.219-.175-.438-.219-.394-.044-.569.175-.569.394,0,.088,0,.131.044.175,0,.044.044.044.131.044l.876.088Z" transform="translate(-45.52 -37.612)"/><path class="a" d="M69.688,38.2c.044.219.131.263.263.263a2.735,2.735,0,0,0,.526-.044l.394-.044a1.379,1.379,0,0,1,.963.131.887.887,0,0,1,.35.613,1.053,1.053,0,0,1-.088.657,1.157,1.157,0,0,1-.832.438l-.876.131c-.35.044-.35.088-.35.35h-.131l-.131-1.051h.131c.044.263.088.307.438.263l.788-.131c.526-.088.832-.307.788-.7-.044-.438-.438-.569-1.007-.482l-.394.044a1.7,1.7,0,0,0-.482.131c-.131.044-.175.131-.175.394h-.131l-.131-.92Z" transform="translate(-45.295 -34.127)"/><path class="a" d="M69.071,29.907l-.131.044c-.131-.219-.175-.263-.482-.088l-1.27.613h0l2.058-.044.044.088-1.4,1.445h0l.876-.35a2.8,2.8,0,0,0,.526-.263c.131-.088.131-.175.044-.394l.131-.044.35.788-.131.044c-.088-.175-.175-.219-.307-.175s-.307.088-.657.219l-.7.263c-.394.131-.438.175-.307.482l-.131.044-.307-.7,1.182-1.314H66.707l-.307-.657.131-.044c.131.263.175.263.438.131l1.226-.613c.307-.131.307-.175.219-.438l.131-.044Z" transform="translate(-43.496 -28.9)"/></g><g transform="translate(9.785 6.229)"><path class="a" d="M22.88,26.38a.347.347,0,0,1,.044.482.343.343,0,0,1-.482.044.347.347,0,0,1-.044-.482A.312.312,0,0,1,22.88,26.38Z" transform="translate(-22.319 -20.993)"/><path class="a" d="M26.071,21.626a3.619,3.619,0,0,1,.307.569l-1.445,1.226-.088-.131c.219-.219.219-.263.044-.482l-.92-1.095c-.219-.263-.263-.219-.482-.088l-.088-.088L24.714,20.4l.394.394-.088.088a.582.582,0,0,0-.307-.131c-.088,0-.175.044-.35.175l-.131.131c-.088.088-.131.088-.044.175l.526.613.175-.175c.219-.219.263-.263.131-.482l.088-.088.482.569-.088.088c-.219-.175-.263-.131-.482.044l-.175.175.394.482c.131.131.175.175.263.175s.175-.088.263-.175c.131-.131.219-.219.219-.35a2.221,2.221,0,0,0-.088-.394Z" transform="translate(-22.927 -17.685)"/><path class="a" d="M30.3,17.3A1.4,1.4,0,0,0,30,17.038c-.088-.044-.175,0-.35.088l-.175.088.832,1.533c.131.263.175.263.482.131l.044.131-1.051.569-.044-.131c.263-.175.263-.219.131-.482l-.832-1.533-.131.044c-.263.131-.307.219-.307.307-.044.088,0,.219.044.394l-.131.044c-.131-.263-.219-.482-.307-.657l.088-.044a.2.2,0,0,0,.219,0l1.314-.7c.088-.044.131-.088.131-.175l.088-.044c.088.131.263.394.394.613Z" transform="translate(-25.624 -15.549)"/><path class="a" d="M36.74,14.744c-.263.088-.307.131-.219.438l.35,1.358c.088.307.131.307.394.263l.044.131-1.095.307-.044-.131c.263-.088.307-.131.219-.438l-.175-.657-.963.263.175.657c.088.307.131.307.394.263l.044.131-1.051.263-.044-.131c.263-.088.263-.131.219-.438l-.35-1.314c-.088-.307-.131-.307-.394-.263l-.044-.131,1.051-.263.044.131c-.263.088-.263.131-.175.438l.131.526.963-.263-.131-.526c-.088-.307-.131-.307-.394-.263l-.044-.131L36.7,14.7Z" transform="translate(-28.997 -14.481)"/><path class="a" d="M44.414,16.052a2.526,2.526,0,0,1-.131.613H42.4v-.131c.307-.044.35-.044.35-.35v-1.4c0-.307-.044-.35-.307-.35V14.3H44.2c0,.088.044.307.044.569h-.131c-.044-.131-.088-.263-.175-.307a.566.566,0,0,0-.35-.088h-.175c-.131,0-.131,0-.131.131v.788h.263c.307,0,.35-.044.394-.263h.131v.744h-.131c-.044-.263-.088-.263-.394-.263h-.263v.657c0,.175,0,.263.088.307a.753.753,0,0,0,.35.044.535.535,0,0,0,.394-.131,2.445,2.445,0,0,0,.219-.35Z" transform="translate(-33.606 -14.256)"/><path class="a" d="M50.978,15.032c-.175-.044-.263,0-.35.175a4.842,4.842,0,0,0-.175.569l-.35,1.4-.175-.044-1.051-2.146h0l-.175.788a1.9,1.9,0,0,0-.088.569c0,.175.044.263.307.307l-.044.131L48,16.565l.044-.131c.219.044.307,0,.35-.175.044-.131.088-.263.175-.569l.175-.744c.044-.219.044-.307,0-.394s-.131-.131-.263-.219l.044-.131.657.175,1.007,1.883h0l.131-.613c.088-.307.088-.482.131-.613,0-.175-.044-.219-.307-.307l.044-.131.876.219Z" transform="translate(-36.753 -14.2)"/><path class="a" d="M56.258,19a4.655,4.655,0,0,1-.394.482L54.2,18.646l.044-.131c.307.131.35.131.482-.175l.613-1.27c.131-.307.131-.307-.088-.438l.044-.131,1.533.788a3.792,3.792,0,0,0-.219.526l-.131-.044a.48.48,0,0,0,0-.35.472.472,0,0,0-.307-.263L56,17.069c-.131-.044-.131-.044-.175.044l-.35.7.219.131c.263.131.307.131.482-.044l.131.044-.35.657-.131-.044c.088-.263.044-.307-.219-.438l-.175-.088-.307.569c-.088.175-.088.263-.044.307a1.362,1.362,0,0,0,.263.175.569.569,0,0,0,.438.088,4.038,4.038,0,0,0,.35-.219Z" transform="translate(-40.238 -15.493)"/><path class="a" d="M59.895,23.271l.088-.088c.175.131.219.088.307-.088a4.135,4.135,0,0,0,.131-.394l-.526-.438a4.039,4.039,0,0,0-.35.219c-.131.088-.175.131,0,.35l-.131.088-.613-.526.088-.088c.219.131.263.131.569-.044l1.8-.963.175.088c-.219.657-.482,1.27-.7,1.927-.131.35-.088.394.044.569l-.088.088Zm.876-1.577h0a6.594,6.594,0,0,0-.744.438l.438.35Z" transform="translate(-42.824 -18.191)"/><path class="a" d="M66.38,26.824a.342.342,0,1,1,.044-.482A.347.347,0,0,1,66.38,26.824Z" transform="translate(-46.769 -20.955)"/></g></g></g></svg>