<svg id="_ÎÓÈ_1" data-name="—ÎÓÈ_1" xmlns="http://www.w3.org/2000/svg" viewBox="0 0 1928.07 1275.57"><defs><style>.cls-1{fill:#f0e6ff;}.cls-2{fill:#fff;}.cls-3{fill:#d3c5ed;}.cls-4{isolation:isolate;}.cls-5{fill:#2a0055;}.cls-16,.cls-6{fill:#ec4067;}.cls-7{fill:#89c22e;}.cls-8{fill:#aa5fff;}.cls-9{fill:#072289;}.cls-10{fill:#ffbfaa;}.cls-11{fill:#9e7669;}.cls-12{fill:#f9a5a5;}.cls-13{fill:#9960f4;}.cls-14{fill:#6e5249;}.cls-15{fill:none;}.cls-15,.cls-16{stroke:#ec4067;stroke-miterlimit:10;}</style></defs><title>bg-main</title><path class="cls-1" d="M236.26,565.72c-20.25-39.43-24.81-89.23,41.63-127.63-2.67,1.54-33-35.2-35.95-38.85-12.93-15.81-21.32-34.87-32.66-52-18.71-28.21-4.53-96.75,47.55-83.31,0,0-76.57-23.88-23.09-90.5-6.57-29.82-39.07-186.34,31.15-158.21,19.25,7.72,31.4,27.6,41,46.65,2.92,5.77,25.08,73,20.5,73,0,0,79.82-.19,58.92,87.92,0,0,146.69,76.62,45.69,187.44,0,0,119.2,138.87,27.78,198.38-29.46,19.17-57.56,28.35-82.13,32C319.15,649.12,264.19,620.14,236.26,565.72Z"/><path class="cls-1" d="M293.11,698.76c-6.64,8.68-22.71,6.61-32.16,7.48-15.75,1.45-31,5-47,4.93-35,0-89-13.43-95.11-54.83-4-27.28,13.87-52.18,31.15-71.29,0,0-60.83,13.3-83.19-2.76-48.25-34.65-1-93.08-1-93.08s-16.16-1.69-24.08-3.62C21.89,480.76,4.46,462.08.84,441.94c-6.57-36.57,26.58-55.76,55-68.64,0,0-15.92-33.8-4.74-60.68s47.69-46.15,96.49,4.75c1.63,1.69,3.27,3.47,4.92,5.32a29.74,29.74,0,0,1,4.93,6.11c-.79-29.1,38.47-44.79,62.45-38.19a45.59,45.59,0,0,1,26.68,20.33c7.09,11.89,7,26.17,6.27,39.56,0,.79-.09,1.58-.14,2.36,0,0,112.87-23.35,123.18,99.74S293.15,698.71,293.11,698.76Z"/><path class="cls-2" d="M187.74,295.17a2.5,2.5,0,0,1-.83-4.86,65,65,0,0,1,7.51-2.14,2.5,2.5,0,1,1,1.09,4.87,63.29,63.29,0,0,0-6.94,2A2.45,2.45,0,0,1,187.74,295.17Z"/><path class="cls-2" d="M359.49,398.12a2.49,2.49,0,0,1-2.15-1.23c-13.68-23.26-35.29-37.33-64.22-41.83a125.82,125.82,0,0,0-39.92.25,2.49,2.49,0,0,1-2.14-.56,2.46,2.46,0,0,1-.86-2c0-.79.09-1.57.13-2.36.71-13.08.84-26.81-5.92-38.14a42.86,42.86,0,0,0-25.2-19.2c-6.82-1.88-15.24-1.87-23.7,0a2.5,2.5,0,1,1-1.09-4.87c9.24-2.07,18.52-2.06,26.12,0a47.93,47.93,0,0,1,28.17,21.46c7.34,12.31,7.37,26.58,6.66,40.21a132.4,132.4,0,0,1,38.35.22c30.14,4.65,53.63,20,67.93,44.26a2.5,2.5,0,0,1-2.16,3.77Z"/><path class="cls-1" d="M383.34,783.26C380.16,806,372,828,358.65,846.55,326.78,891,217.89,906.06,210,833c-17.25,4.34-37.42,4.84-50.53-9.36-2.75-3-12.63-30-11-29.69l-27.44-4.33c-35.23-5.56-55.82-43.48-40.4-75.66l.7-1.4a57,57,0,0,1,71.1-27.17l37,14.22s-29.35-37.77-9.84-66A46,46,0,0,1,191.71,622c30.55-20.89,56.13,15.59,67.08,35.3,3.7,6.65,5.73,11.4,5.73,11.4a54.79,54.79,0,0,1,1.68-11.06c3.3-13.17,13.07-32.84,41.95-28.44A78.15,78.15,0,0,1,322,632.71a48.14,48.14,0,0,1,8.87,4.16,54,54,0,0,1,5.89,4c23.42,18.34,36.33,56.21,43,81.41A155.42,155.42,0,0,1,383.34,783.26Z"/><path class="cls-2" d="M274.8,886.35a92.87,92.87,0,0,1-23.57-2.88c-24.47-6.45-39.76-23.23-43.32-47.4-21.9,4.89-39.23,1.2-50.25-10.75-2.06-2.23-5.84-12-7.37-16.13a97,97,0,0,1-4.21-13.11l-25.38-4a56.08,56.08,0,0,1-41.26-29.59,54.8,54.8,0,0,1-1-49.62c.23-.49.47-1,.73-1.46a59.43,59.43,0,0,1,74.21-28.36L183,694.41c-7.69-12.47-20.82-39.83-5.34-62.2a48.33,48.33,0,0,1,12.69-12.32c8.85-6.06,18-8,27.29-5.83,20.1,4.75,35.81,28.34,43.38,42,.79,1.41,1.5,2.73,2.13,3.94.19-1,.41-2,.68-3,3.34-13.35,13.6-35,44.74-30.3a82,82,0,0,1,14.32,3.66,51,51,0,0,1,9.33,4.38,56.16,56.16,0,0,1,6.15,4.24c18.38,14.38,33.15,42.22,43.89,82.73a157.9,157.9,0,0,1,3.6,61.92l-2.47-.35,2.47.35c-3.33,23.85-12,46.11-25.13,64.39C344.11,871.11,307.91,886.35,274.8,886.35ZM210,830.49a2.52,2.52,0,0,1,1.43.45,2.5,2.5,0,0,1,1.06,1.78c3.24,30.1,23.53,41.58,40,45.91,17,4.48,38.22,3.33,58.23-3.15s36.65-17.53,45.87-30.39c12.64-17.63,21-39.12,24.25-62.17A153.06,153.06,0,0,0,377.38,723c-10.46-39.44-24.64-66.38-42.15-80.08a49.68,49.68,0,0,0-5.61-3.87,46.24,46.24,0,0,0-8.42-3.95,76.19,76.19,0,0,0-13.43-3.45c-25.87-3.93-35.57,12.28-39.14,26.57A53.73,53.73,0,0,0,267,668.7a2.5,2.5,0,0,1-4.79.93s-2-4.72-5.63-11.16c-7.17-12.92-21.93-35.23-40.16-39.55-7.83-1.84-15.68-.13-23.32,5.09a43.76,43.76,0,0,0-11.4,11c-18.23,26.35,9.47,62.65,9.75,63a2.49,2.49,0,0,1-2.87,3.86l-37-14.21a53.86,53.86,0,0,0-20.83-3.61A54.41,54.41,0,0,0,83.6,713.7c-.23.45-.45.89-.66,1.34a49.85,49.85,0,0,0,.92,45.12,51.12,51.12,0,0,0,37.61,27l27.43,4.33h0a2.49,2.49,0,0,1,2.1,2.66,2.61,2.61,0,0,1-.13.63c.69,4.42,8.58,25.07,10.46,27.17,12.83,13.91,33.23,12.38,48.08,8.64A2.62,2.62,0,0,1,210,830.49Zm-61.9-34.1v0Z"/><path class="cls-2" d="M337,337.43a2.51,2.51,0,0,1-2.4-1.8L237.41,3.2a2.5,2.5,0,0,1,4.8-1.4l97.17,332.43a2.5,2.5,0,0,1-1.7,3.1A2.42,2.42,0,0,1,337,337.43Z"/><path class="cls-2" d="M310.5,246.85a2.5,2.5,0,0,1-1.78-4.25l84.48-85.93a2.5,2.5,0,0,1,3.57,3.5L312.28,246.1A2.46,2.46,0,0,1,310.5,246.85Z"/><path class="cls-2" d="M302.33,218.88h-.24l-86.68-8.12a2.5,2.5,0,0,1,.47-5l86.68,8.12a2.5,2.5,0,0,1-.23,5Z"/><path class="cls-2" d="M301.73,623a2.49,2.49,0,0,1-2-1L81.89,327.35a2.5,2.5,0,0,1,4-3L303.74,619a2.49,2.49,0,0,1-.53,3.49A2.46,2.46,0,0,1,301.73,623Z"/><path class="cls-2" d="M167.93,442a2.35,2.35,0,0,1-.64-.09,2.49,2.49,0,0,1-1.78-3.05l24-90.79a2.5,2.5,0,0,1,4.84,1.27l-24,90.8A2.49,2.49,0,0,1,167.93,442Z"/><path class="cls-2" d="M383.34,785.77a2.61,2.61,0,0,1-.48,0L77.54,727.13a2.5,2.5,0,0,1,.94-4.91l305.33,58.59a2.5,2.5,0,0,1-.47,5Z"/><path class="cls-2" d="M249.15,760a2.49,2.49,0,0,1-2.37-1.71L213.05,657.59a2.5,2.5,0,0,1,4.74-1.59l33.73,100.72a2.51,2.51,0,0,1-1.58,3.17A2.42,2.42,0,0,1,249.15,760Z"/><path class="cls-2" d="M124.58,540.56a2.5,2.5,0,0,1-.1-5L237.28,531a2.5,2.5,0,1,1,.2,5l-112.79,4.62Z"/><path class="cls-2" d="M264.51,572.63a2.94,2.94,0,0,1-.51,0,2.5,2.5,0,0,1-1.94-3L292,424.9a2.5,2.5,0,0,1,4.9,1L267,570.64A2.49,2.49,0,0,1,264.51,572.63Z"/><path class="cls-1" d="M1873.22,301.84V238.06h-34.41a92,92,0,0,0-3.76-9l24.25-24.33L1815,160.52l-24.3,24.37a91.35,91.35,0,0,0-8.6-3.55V146.92h-62.57v34.36a93.53,93.53,0,0,0-10.59,4.51l-24.82-23.85-43.34,45.12,24.77,23.8c-1.08,2.4-2.07,4.85-3,7.36h-34.36v62.56h34.41a92.53,92.53,0,0,0,4.82,11.18l-24.36,25.66,45,44.36,25.45-26.79c1.92.83,3.88,1.61,5.86,2.32V394.9h62.57V357.56c2.87-1,5.68-2.17,8.41-3.45l26.15,26,43.7-45.65-25-24.9q1.8-3.78,3.27-7.74Z"/><rect class="cls-3" x="1276.71" y="163.56" width="78.87" height="42.27"/><g class="cls-4"><polygon class="cls-1" points="189.44 1052.93 159.55 1063.15 123.14 1029.57 153.03 1019.35 189.44 1052.93"/><polygon class="cls-1" points="153.03 1019.35 123.14 1029.57 149.44 991.41 179.33 981.19 153.03 1019.35"/><polygon class="cls-1" points="179.33 981.19 215.74 1014.77 189.44 1052.93 153.03 1019.35 179.33 981.19"/></g><path class="cls-2" d="M189.44,1054.87a2,2,0,0,1-1.32-.51l-36.41-33.58a2,2,0,0,1-.28-2.54l26.3-38.15a1.94,1.94,0,1,1,3.2,2.21l-25.34,36.76,35.17,32.44a1.94,1.94,0,0,1-1.32,3.37Z"/><path class="cls-2" d="M123.14,1031.51a1.94,1.94,0,0,1-.63-3.78l29.89-10.22a1.94,1.94,0,0,1,1.26,3.68l-29.89,10.22A2,2,0,0,1,123.14,1031.51Z"/><path class="cls-1" d="M171.51,973.4a1.93,1.93,0,0,1-1.75-1.1l-7.55-15.76a1.95,1.95,0,0,1,3.51-1.68l7.55,15.76a1.94,1.94,0,0,1-.92,2.59A1.91,1.91,0,0,1,171.51,973.4Z"/><path class="cls-1" d="M188.81,975.43a1.95,1.95,0,0,1-1.08-3.57l9.33-6.17a1.94,1.94,0,1,1,2.15,3.24l-9.33,6.18A2,2,0,0,1,188.81,975.43Z"/><g class="cls-4"><polygon class="cls-1" points="1884.54 562.08 1850.41 606.19 1848.5 520.72 1884.54 562.08"/><path class="cls-1" d="M1850.41,608.14a1.86,1.86,0,0,1-.61-.1,1.93,1.93,0,0,1-1.33-1.8l-1.91-85.47a1.95,1.95,0,0,1,3.41-1.33l36,41.36a2,2,0,0,1,.07,2.47L1852,607.38A2,2,0,0,1,1850.41,608.14Zm.16-82.09,1.66,74.61L1882,562.15Z"/><polygon class="cls-1" points="1848.5 520.72 1925.68 545.68 1884.54 562.08 1848.5 520.72"/><path class="cls-1" d="M1884.54,564a2,2,0,0,1-1.47-.66L1847,522a1.94,1.94,0,0,1,2.06-3.13l77.18,25a1.94,1.94,0,0,1,.12,3.65l-41.14,16.41A2,2,0,0,1,1884.54,564Zm-30-39.29,30.52,35L1920,545.87Z"/><polygon class="cls-1" points="1925.68 545.68 1898.71 588.84 1850.41 606.19 1884.54 562.08 1925.68 545.68"/><path class="cls-1" d="M1850.41,608.14a2,2,0,0,1-1.54-3.14L1883,560.89a1.93,1.93,0,0,1,.82-.62l41.14-16.4a1.95,1.95,0,0,1,2.37,2.84l-27,43.16a2,2,0,0,1-1,.8L1851.07,608A1.92,1.92,0,0,1,1850.41,608.14Zm35.34-44.45L1856,602.11l41.39-14.88,23.46-37.55Z"/></g><path class="cls-2" d="M1883.49,561.61a2,2,0,0,1-1.47-.67l-36-41.36a1.94,1.94,0,1,1,2.93-2.55l36,41.35a2,2,0,0,1-1.47,3.23Z"/><path class="cls-2" d="M1850.41,608.14a1.95,1.95,0,0,1-1.55-3.12l34.79-45.89a2,2,0,0,1,.85-.64l40.93-15.82a1.95,1.95,0,0,1,1.4,3.63l-40.41,15.62L1852,607.37A2,2,0,0,1,1850.41,608.14Z"/><rect class="cls-2" x="282.54" y="316.57" width="1487.3" height="886.41"/><path class="cls-5" d="M1750.25,336.16v847.22H302.13V336.16ZM1789.44,297H263v925.6H1789.44V297Z"/><rect class="cls-2" x="522.98" y="391.32" width="79.9" height="11.85"/><rect class="cls-3" x="368.62" y="253.9" width="412.86" height="114.76"/><polygon class="cls-2" points="359.19 224.35 755.67 224.35 755.67 339.11 342.81 339.11 342.81 239.74 359.19 224.35"/><path class="cls-6" d="M758,341.44H340.48V239.74a2.33,2.33,0,1,1,4.66,0v97h408.2V226.68H359.18a2.33,2.33,0,1,1,0-4.66H758Z"/><polygon class="cls-7" points="412.78 252.05 421.34 269.39 440.48 272.17 426.63 285.67 429.9 304.73 412.78 295.73 395.67 304.73 398.93 285.67 385.09 272.17 404.22 269.39 412.78 252.05"/><polygon class="cls-7" points="482.79 252.05 491.35 269.39 510.49 272.17 496.64 285.67 499.91 304.73 482.79 295.73 465.68 304.73 468.94 285.67 455.1 272.17 474.23 269.39 482.79 252.05"/><polygon class="cls-7" points="552.8 252.05 561.36 269.39 580.5 272.17 566.65 285.67 569.92 304.73 552.8 295.73 535.69 304.73 538.96 285.67 525.11 272.17 544.24 269.39 552.8 252.05"/><polygon class="cls-7" points="622.81 252.05 631.37 269.39 650.51 272.17 636.66 285.67 639.93 304.73 622.81 295.73 605.7 304.73 608.97 285.67 595.12 272.17 614.25 269.39 622.81 252.05"/><polygon class="cls-3" points="692.82 252.05 701.38 269.39 720.52 272.17 706.67 285.67 709.94 304.73 692.82 295.73 675.71 304.73 678.98 285.67 665.13 272.17 684.26 269.39 692.82 252.05"/><path class="cls-6" d="M353,202.41v0Z"/><path class="cls-6" d="M353,204.75a2.34,2.34,0,0,1-2.33-2.34V175.67a2.34,2.34,0,1,1,4.67,0v26.74A2.34,2.34,0,0,1,353,204.75Z"/><path class="cls-6" d="M326.22,208.63l-35.46-12.44Z"/><path class="cls-6" d="M326.22,211a2.36,2.36,0,0,1-.78-.13L290,198.4a2.34,2.34,0,0,1,1.54-4.41L327,206.43a2.34,2.34,0,0,1-.77,4.54Z"/><path class="cls-7" d="M1574.66,122.74a2.43,2.43,0,0,1-1.55-4.3A313,313,0,0,1,1699.23,55.3a2.43,2.43,0,1,1,1.13,4.72,308.32,308.32,0,0,0-124.14,62.16A2.43,2.43,0,0,1,1574.66,122.74Z"/><path class="cls-7" d="M1536.64,155.08l12.58-44.53,30.12,40.14Zm14.59-33.75-8,28.18,27-2.78Z"/><polygon class="cls-1" points="1241.11 88.24 1223.99 83.73 1206.86 79.22 1219.33 66.65 1231.8 54.07 1236.45 71.16 1241.11 88.24"/><path class="cls-1" d="M1207.07,56a1.61,1.61,0,0,1-.44-.06l-34.25-9a1.75,1.75,0,0,1-.8-2.93l24.94-25.15a1.75,1.75,0,0,1,2.93.78l9.31,34.16a1.75,1.75,0,0,1-1.69,2.22Zm-30.86-11.7,28.37,7.48-7.71-28.31Z"/><path class="cls-1" d="M1329.53,186.45h-78.87a1.75,1.75,0,0,1-1.76-1.75V142.42a1.75,1.75,0,0,1,1.76-1.75h78.87a1.75,1.75,0,0,1,1.75,1.75V184.7A1.75,1.75,0,0,1,1329.53,186.45Zm-77.12-3.51h75.37V144.18h-75.37Z"/><path class="cls-3" d="M1234.49,428.17h-232.2a2.34,2.34,0,1,1,0-4.67h232.2a2.34,2.34,0,0,1,0,4.67Z"/><path class="cls-3" d="M441.1,909.47a2.34,2.34,0,0,1-2.33-2.33V423.5h523.3a2.34,2.34,0,0,1,0,4.67H443.44v479A2.34,2.34,0,0,1,441.1,909.47Z"/><path class="cls-3" d="M441.1,1001.43a2.34,2.34,0,0,1-2.33-2.34V941.31a2.34,2.34,0,1,1,4.67,0v57.78A2.34,2.34,0,0,1,441.1,1001.43Z"/><path class="cls-3" d="M850,1111.24H593.22a2.34,2.34,0,0,1,0-4.67H850a2.34,2.34,0,1,1,0,4.67Z"/><path class="cls-3" d="M1591.22,1111.24H993.6a2.34,2.34,0,1,1,0-4.67h592.95V428.17h-294a2.34,2.34,0,0,1,0-4.67h298.65Z"/><path class="cls-3" d="M1588.88,883.55H441.1a2.34,2.34,0,0,1,0-4.67H1588.88a2.34,2.34,0,1,1,0,4.67Z"/><path class="cls-3" d="M1588.88,655.86H1383.76a2.34,2.34,0,1,1,0-4.67h205.12a2.34,2.34,0,1,1,0,4.67Z"/><path class="cls-3" d="M1248.68,655.86H441.1a2.34,2.34,0,0,1,0-4.67h807.58a2.34,2.34,0,0,1,0,4.67Z"/><path class="cls-3" d="M1206.29,1111.24a2.33,2.33,0,0,1-2.33-2.33v-18.47a2.33,2.33,0,1,1,4.66,0v18.47A2.33,2.33,0,0,1,1206.29,1111.24Z"/><path class="cls-3" d="M1206.29,800.83a2.33,2.33,0,0,1-2.33-2.33V425.84a2.33,2.33,0,1,1,4.66,0V798.5A2.33,2.33,0,0,1,1206.29,800.83Z"/><path class="cls-3" d="M823.7,1111.24a2.33,2.33,0,0,1-2.34-2.33V425.84a2.34,2.34,0,1,1,4.67,0v683.07A2.33,2.33,0,0,1,823.7,1111.24Z"/><path class="cls-8" d="M804.7,635.57h-4.22V622.91h4.22Zm0-25.32h-4.22V597.58h4.22Zm0-25.33h-4.22V572.26h4.22Zm0-25.33h-4.22V546.93h4.22Zm0-25.32h-4.22V521.61h4.22Zm0-25.33h-4.22V496.28h4.22ZM496.35,488.57h-4.22v-.77h4.22Zm308.35-4.95h-4.22V471h4.22Zm-308.35-8.48h-4.22V462.48h4.22ZM804.7,458.29h-4.22v-6.23h-2.21v-4.22h6.43Zm-19.09-6.23H773v-4.22h12.66Zm-25.32,0H747.62v-4.22h12.67Zm-25.33,0H722.3v-4.22H735Zm-25.33,0H697v-4.22h12.66Zm-25.32,0H671.65v-4.22h12.66Zm-25.33,0H646.32v-4.22H659Zm-25.32,0H621v-4.22h12.67Zm-25.33,0H595.67v-4.22h12.66Zm-25.32,0H570.34v-4.22H583Zm-25.33,0H545v-4.22h12.66Zm-25.33,0H519.69v-4.22h12.66Zm-25.32,0H494.37v-4.22H507Z"/><polygon class="cls-2" points="462.09 481.26 462.09 698.7 533.58 698.7 641.67 698.7 770.44 698.7 770.44 481.26 462.09 481.26"/><path class="cls-8" d="M772.78,701h-313V478.93h313Zm-308.36-4.66H768.11V483.59H464.42Z"/><path class="cls-8" d="M730,615.75H502.58V501.59H730Zm-222.71-4.67h218V506.25h-218Z"/><rect class="cls-7" x="529.36" y="546.9" width="12.67" height="48.21"/><rect class="cls-6" x="557.23" y="523.96" width="12.67" height="71.15"/><rect class="cls-6" x="585.1" y="562.71" width="12.67" height="32.41"/><rect class="cls-9" x="612.97" y="530.3" width="12.67" height="64.81"/><rect class="cls-6" x="640.84" y="513.83" width="12.67" height="81.28"/><rect class="cls-6" x="668.71" y="550.57" width="12.67" height="44.54"/><rect class="cls-7" x="696.58" y="530.3" width="12.67" height="64.81"/><rect class="cls-8" x="510.06" y="631.28" width="19" height="19"/><rect class="cls-6" x="510.06" y="661.38" width="19" height="19"/><rect class="cls-7" x="555.33" y="638.45" width="167.51" height="4.67"/><rect class="cls-8" x="555.33" y="668.55" width="167.51" height="4.67"/><path class="cls-8" d="M1118.29,913h-12.66v-4.22h12.66ZM1093,913h-12.66v-4.22H1093Zm-25.33,0H1055v-4.22h12.66Zm-25.32,0h-12.67v-4.22h12.67ZM1017,913h-12.66v-4.22H1017Zm-25.32,0H979v-4.22h12.67Zm-25.33,0H953.68v-4.22h12.66ZM941,913H928.35v-4.22H941Zm-25.32,0H903v-4.22h12.66Zm-25.33,0H877.7v-4.22h12.66ZM865,913h-6.33V902.43h4.22v6.33H865Zm-2.11-23.22h-4.22V877.1h4.22Zm0-25.32h-4.22V851.78h4.22Zm0-25.33h-4.22V826.45h4.22Zm0-25.32h-4.22V801.13h4.22Zm308.35-4.58h-4.22V796.55h4.22ZM862.93,788.46h-4.22V775.8h4.22Zm308.35-4.57h-4.22V771.22h4.22ZM862.93,763.14h-4.22V750.47h4.22Zm308.35-4.58h-4.22V745.9h4.22ZM862.93,737.81h-4.22V725.15h4.22Zm308.35-4.57h-4.22V720.57h4.22ZM862.93,712.49h-4.22V699.82h4.22Zm308.35-4.58h-4.22V695.25h4.22Zm-13-12.37h-12.66v-4.22h12.66Zm-25.33,0h-12.66v-4.22H1133Zm-25.32,0H1095v-4.22h12.67Zm-25.33,0h-12.66v-4.22h12.66Zm-25.32,0h-12.67v-4.22H1057Zm-25.33,0H1019v-4.22h12.66Zm-25.32,0H993.71v-4.22h12.67Zm-25.33,0H968.39v-4.22h12.66Zm-25.33,0H943.06v-4.22h12.66Zm-25.32,0H917.74v-4.22H930.4Zm-25.33,0H892.41v-4.22h12.66Zm-25.32,0H867.08v-4.22h12.67Z"/><polygon class="cls-2" points="702.92 766.28 702.92 983.72 774.41 983.72 882.5 983.72 1011.27 983.72 1011.27 766.28 702.92 766.28"/><path class="cls-8" d="M1013.61,986.05h-313V763.94h313Zm-308.36-4.66h303.69V768.61H705.25Z"/><polygon class="cls-5" points="746.24 877.42 767.86 814.79 811.1 814.79 820.79 846.11 857.32 846.11 877.45 883.01 945.3 852.82 966.17 959.77 746.24 877.42"/><polygon class="cls-8" points="733.86 889.34 733.86 932.18 966.17 959.77 920.8 872.39 845.92 879.49 778.92 832.98 733.86 889.34"/><polygon class="cls-6" points="733.86 858.92 733.86 959.77 966.17 959.77 904.1 922.77 843.74 917.25 788.95 871.47 733.86 858.92"/><rect class="cls-8" x="874.23" y="790.23" width="16.54" height="16.54"/><rect class="cls-6" x="874.23" y="816.43" width="16.54" height="16.54"/><rect class="cls-7" x="906" y="818.37" width="74.34" height="12.67"/><path class="cls-2" d="M799.13,871.47A10.19,10.19,0,1,1,789,861.28,10.18,10.18,0,0,1,799.13,871.47Z"/><path class="cls-2" d="M853.93,914.34a10.19,10.19,0,1,1-10.19-10.19A10.19,10.19,0,0,1,853.93,914.34Z"/><circle class="cls-2" cx="903.39" cy="921.49" r="10.18"/><rect class="cls-6" x="906" y="792.16" width="74.34" height="12.67"/><polygon class="cls-10" points="1819.88 1201.95 1823.59 1236.48 1863.71 1236.48 1862.97 1194.28 1819.88 1201.95"/><polygon class="cls-10" points="1770.74 1199.16 1767.75 1238.92 1723.91 1238.92 1730.55 1187.3 1770.74 1199.16"/><polygon class="cls-8" points="1867.95 1209.94 1854.08 1209.78 1816.44 1209.33 1815.58 1199.66 1812.75 1167.57 1808.21 1116.25 1805.06 1080.57 1805.06 1080.57 1801.26 1037.6 1793.43 948.88 1793.3 947.46 1863.54 943.64 1865.36 1053.52 1866.01 1092.79 1867.49 1182.29 1867.95 1209.94"/><polygon class="cls-8" points="1813.93 955.25 1801.26 1037.6 1795.86 1072.72 1784.05 1146.38 1778.2 1182.88 1773.96 1209.33 1743.22 1209.69 1721.56 1209.94 1723.75 1184.72 1729.21 1122.05 1732.59 1083.27 1734.19 1064.89 1740.74 1012.55 1745.62 973.61 1750.39 935.5 1793.43 948.88 1813.93 955.25"/><rect class="cls-8" x="1754.71" y="949.74" width="77.11" height="58.59"/><path class="cls-2" d="M1815.63,793.41c-19,28.18-26.1,58.83-28.47,90.07-11.29-39.35-8.53-72.38-4.24-89.92l16.81-2.75Z"/><path class="cls-7" d="M1863.54,801.27V960.59H1735.91L1746,800.05l36.81-6.46.14,0c-4.29,17.54-7.05,50.57,4.24,89.92,2.37-31.24,9.5-61.89,28.47-90.07l.36.06Z"/><polygon class="cls-10" points="1815.68 793.48 1784.59 821.84 1782.94 793.48 1783.77 732.45 1815.68 732.45 1815.68 793.48"/><path class="cls-10" d="M1765.16,732.45h46.53a0,0,0,0,1,0,0v41.71a15.49,15.49,0,0,1-15.49,15.49h-15.55a15.49,15.49,0,0,1-15.49-15.49V732.45A0,0,0,0,1,1765.16,732.45Z"/><path class="cls-6" d="M1816.76,739a45.66,45.66,0,0,1-20,9.37,145.34,145.34,0,0,1-17.44,2.41c-4.93.36-10.07.73-14.93-.49-3.3-.83-6.38-2.58-7.06-6.4-.75-4.24,2.56-8.52,6-10.4,0,0-12-4.1-3.07-12,.26-.23-1-6.24-1-6.88-.45-8.73,6.25-14.89,14.43-13,15.67,3.66,23.42,22.78,39.83,24.54C1827.27,727.66,1823.07,733.86,1816.76,739Z"/><path class="cls-6" d="M1786.1,715.36s31.57-14,39.55,2.44-6.32,46.38-10.64,50.57-13-29.3-13-29.3Z"/><path class="cls-10" d="M1812.67,774h0a9.4,9.4,0,0,1-9.17-9.63V760.9a9.4,9.4,0,0,1,9.17-9.62h0a9.41,9.41,0,0,1,9.17,9.62v3.42A9.41,9.41,0,0,1,1812.67,774Z"/><path class="cls-5" d="M1786.31,915.66h0a2.2,2.2,0,0,1-2.15-2.24l.45-24a2.2,2.2,0,0,1,2.19-2.16h0a2.19,2.19,0,0,1,2.15,2.24l-.45,24A2.2,2.2,0,0,1,1786.31,915.66Z"/><path class="cls-5" d="M1785.13,791.9c-1.33,0-2.2,0-2.33-.06a2.2,2.2,0,1,1,.29-4.39c3.56.24,13.68-.05,17.7-4.12a2.2,2.2,0,1,1,3.13,3.09C1799.11,791.3,1789.56,791.9,1785.13,791.9Z"/><path class="cls-10" d="M1744.46,933.81l11.54-6.33,8.65-11.44a2.23,2.23,0,0,1,4,1.11l.85,5.83,5.61-1.93A28.28,28.28,0,0,1,1789.5,920l6.8,1.27a4.52,4.52,0,0,1,3.55,4.92h0a4.4,4.4,0,0,1-4.58,4.09l-7.72-.51-13.45,4.85,9.13,1.53a30.75,30.75,0,0,1,9.57,3.31l5.24,2.86a5.44,5.44,0,0,1,2.45,6.53h0a5.14,5.14,0,0,1-4,3.48l-1,.16.28.45a5.09,5.09,0,0,1,.12,5.05h0a4.53,4.53,0,0,1-6.22,1.88l-5.19-2.9a16.44,16.44,0,0,0-8.57-2.1l-7.85.24,7,10.08a4.19,4.19,0,0,1-2.31,6.45h0a3.82,3.82,0,0,1-3.4-.87l-9.4-8.27L1748.15,961,1737,955.2l-8,3.3L1723,931.88Z"/><path class="cls-7" d="M1746,800.05l-9.1,1.3a42.22,42.22,0,0,0-28.44,21.14L1677,873.78a17.22,17.22,0,0,0,.45,18.57L1716.12,949a22.13,22.13,0,0,0,9.33,7.81l12.61,5.56,6.43-34-21.43-47.32,39.44-49.49Z"/><path class="cls-10" d="M1875.82,974.71l-.26,2.87a47,47,0,0,0,1.68,17.47l1.54,5.26-1.62,15.5a9.08,9.08,0,0,0,5.56,9.46h0a8.19,8.19,0,0,0,4.59.42l2.92-.57h0a5.26,5.26,0,0,0,4.27,4.34l2.77.46a12.47,12.47,0,0,0,10.54-3.25h0l1.3,1.7a3.75,3.75,0,0,0,6.33-.51l4.4-8-.44-16.64a20.13,20.13,0,0,0-3.38-10.7l-5.74-8.56-8-17.93Z"/><path class="cls-10" d="M1913.86,977.18l5.23,8.68a5.09,5.09,0,0,1-3.17,7.63h0a4.67,4.67,0,0,1-4.44-1.58l-11.26-13.11Z"/><path class="cls-5" d="M1915.06,995.77a6.93,6.93,0,0,1-5.24-2.42l-2.06-2.4a2.2,2.2,0,0,1,3.33-2.87l2.06,2.4a2.48,2.48,0,0,0,2.35.85,2.64,2.64,0,0,0,1.88-1.55,3.05,3.05,0,0,0-.17-2.79l-5.23-8.68a2.2,2.2,0,0,1,3.76-2.27l5.23,8.68a7.39,7.39,0,0,1,.42,6.84,6.93,6.93,0,0,1-5.05,4.08A6.25,6.25,0,0,1,1915.06,995.77Z"/><path class="cls-7" d="M1856.68,800.13l16,2.76A17.66,17.66,0,0,1,1887,818.78l6.62,66.15,27.84,93.91H1869l-24.25-93.91Z"/><polygon class="cls-6" points="1772.13 1232.8 1772.13 1273.73 1696.24 1273.73 1696.24 1253.27 1722.15 1233.51 1721.39 1214.25 1739.98 1214.25 1748.05 1227.68 1772.13 1232.8"/><path class="cls-5" d="M1860,1193.11a2.2,2.2,0,0,1-2.2-2.18l-1.78-199.22a2.2,2.2,0,0,1,2.18-2.22h0a2.21,2.21,0,0,1,2.2,2.18l1.78,199.22a2.19,2.19,0,0,1-2.18,2.22Z"/><polygon class="cls-6" points="1814.59 1234.53 1814.59 1273.73 1871.27 1273.73 1871.27 1234.04 1854.01 1229.39 1850.13 1214.25 1825.92 1214.25 1821.27 1229.04 1814.59 1234.53"/><path class="cls-2" d="M1734.19,1255.46h-38a2.2,2.2,0,1,1,0-4.39h36.64l13.24-24.44a2.2,2.2,0,0,1,3.87,2.1l-13.87,25.58A2.21,2.21,0,0,1,1734.19,1255.46Z"/><path class="cls-2" d="M1725.79,1243.71h-13.34a2.2,2.2,0,0,1,0-4.4h13.34a2.2,2.2,0,0,1,0,4.4Z"/><path class="cls-2" d="M1814.58,1266.23a2.18,2.18,0,0,1-1.17-.34,2.2,2.2,0,0,1-.68-3l3.29-5.19a24.33,24.33,0,0,1,43,2.75l.68,1.42h11.61a2.2,2.2,0,0,1,0,4.4h-13a2.19,2.19,0,0,1-2-1.26l-1.27-2.67a19.95,19.95,0,0,0-35.29-2.29l-3.29,5.2A2.2,2.2,0,0,1,1814.58,1266.23Z"/><path class="cls-2" d="M1846.47,1238.68H1827a2.2,2.2,0,1,1,0-4.4h19.44a2.2,2.2,0,1,1,0,4.4Z"/><path class="cls-2" d="M1799.82,1024.5a2.19,2.19,0,0,1-2.18-2l-1.08-11.43c-2.32-2-8.59-8.65-9-21.45V978.84a2.2,2.2,0,1,1,4.39,0v10.72c.42,13.15,7.89,18.55,8,18.6a2.21,2.21,0,0,1,.92,1.59l1.16,12.35a2.18,2.18,0,0,1-2,2.39Z"/><path class="cls-2" d="M1863.54,993.89h-2.41a28.38,28.38,0,0,1-24.7-14.93,2.2,2.2,0,1,1,3.85-2.12,24,24,0,0,0,20.85,12.65h2.41a2.2,2.2,0,1,1,0,4.4Z"/><path class="cls-2" d="M1863.77,955.56a2.2,2.2,0,0,1-2.2-2.2V852.13l-8-6.67a2.2,2.2,0,1,1,2.82-3.37l8.75,7.32a2.21,2.21,0,0,1,.79,1.69V953.36A2.21,2.21,0,0,1,1863.77,955.56Z"/><path class="cls-2" d="M1741.8,860.16a1.72,1.72,0,0,1-.32,0,2.19,2.19,0,0,1-1.86-2.49l2.4-16.74a2.2,2.2,0,1,1,4.35.62l-2.4,16.75A2.2,2.2,0,0,1,1741.8,860.16Z"/><path class="cls-5" d="M1787.17,885.68a2.19,2.19,0,0,1-1.85-1c-9-14-22.45-43-27.26-62.3a2.21,2.21,0,0,1,.76-2.24l11.22-9-8-1.79a2.2,2.2,0,0,1-.74-4l20.44-13.68a2.2,2.2,0,0,1,3.36,2.36,2.29,2.29,0,0,1-1.15,1.45L1768,806.13l7.46,1.67a2.2,2.2,0,0,1,.89,3.86l-13.66,11C1767.54,841,1780.4,869,1789,882.29a2.2,2.2,0,0,1-1.84,3.39Z"/><path class="cls-5" d="M1794,877.9a2.14,2.14,0,0,1-1-.27,2.19,2.19,0,0,1-.9-3c9.29-17.32,20.31-36.62,32.25-50l-9.58-4.33a2.2,2.2,0,0,1,.32-4.12l9.65-2.69-10.25-18.21-.07,0a2.19,2.19,0,0,1-.63-3l.18-.27a2.2,2.2,0,0,1,3.75.13l12.22,21.73a2.23,2.23,0,0,1,.12,1.92,2.2,2.2,0,0,1-1.44,1.27l-6.52,1.82,6.83,3.08a2.2,2.2,0,0,1,.69,3.52c-12.38,13-24,33.26-33.65,51.33A2.18,2.18,0,0,1,1794,877.9Z"/><path class="cls-5" d="M1786.77,891.69h-.13a2.2,2.2,0,0,1-2.07-2.32c.11-2,.25-4,.4-6.05a2.2,2.2,0,0,1,4.39.34q-.24,3-.4,6A2.2,2.2,0,0,1,1786.77,891.69Z"/><path class="cls-5" d="M1917.41,966.54h-52.08a2.2,2.2,0,1,1,0-4.4h52.08a2.2,2.2,0,0,1,0,4.4Z"/><path class="cls-2" d="M1744.49,930.65a2.21,2.21,0,0,1-2-1.29l-7-15.52a2.2,2.2,0,1,1,4-1.81l7,15.51a2.2,2.2,0,0,1-1.1,2.91A2.07,2.07,0,0,1,1744.49,930.65Z"/><path class="cls-5" d="M1867.64,1193.11h-52.83a2.2,2.2,0,0,1,0-4.4h52.83a2.2,2.2,0,0,1,0,4.4Z"/><path class="cls-5" d="M1776,1193.11H1723.2a2.2,2.2,0,0,1,0-4.4H1776a2.2,2.2,0,0,1,0,4.4Z"/><path class="cls-5" d="M1762.13,1193.11a1.46,1.46,0,0,1-.29,0,2.2,2.2,0,0,1-1.89-2.47L1781.06,1035a2.2,2.2,0,0,1,4.36.59l-21.11,155.61A2.2,2.2,0,0,1,1762.13,1193.11Z"/><path class="cls-2" d="M1742.15,993.89a2.2,2.2,0,0,1,0-4.4,26.94,26.94,0,0,0,23-13.48,2.2,2.2,0,0,1,3.79,2.23A31.38,31.38,0,0,1,1742.15,993.89Z"/><path class="cls-11" d="M1426.84,873.1v26.38a27,27,0,0,0,5.89,16.89L1461,951.78l35.75-23.55-26-58.78-22.48-13.54Z"/><polygon class="cls-8" points="1616.61 920.79 1484.31 920.79 1543.23 792.98 1675.53 792.98 1616.61 920.79"/><polygon class="cls-8" points="1481.65 1214.45 1486.02 1227.56 1494.48 1251.8 1494.48 1273.12 1446.27 1273.12 1445.98 1214.45 1481.65 1214.45"/><path class="cls-6" d="M1486,1229.71h-8.26a2.16,2.16,0,1,1,0-4.31H1486a2.16,2.16,0,1,1,0,4.31Z"/><path class="cls-6" d="M1491,1242.13h-9.53a2.16,2.16,0,0,1,0-4.32H1491a2.16,2.16,0,0,1,0,4.32Z"/><path class="cls-6" d="M1494.48,1259H1485l-6.62-.17-1.2-1.39a26.13,26.13,0,0,0-19.79-9.17h-11.21a2.16,2.16,0,1,1,0-4.31h11.21a30.47,30.47,0,0,1,23,10.61l4.65.11h9.47a2.16,2.16,0,0,1,0,4.32Z"/><polygon class="cls-8" points="1564.42 1210.24 1588.71 1233.63 1615.92 1251.76 1615.99 1273.47 1532.66 1273.76 1532.44 1205.99 1564.42 1210.24"/><path class="cls-6" d="M1567.05,1260.46a9.55,9.55,0,0,1-6.88-2.91,10,10,0,0,1-2.85-7,9.85,9.85,0,0,1,9.69-10h0a9.59,9.59,0,0,1,6.87,2.91,10,10,0,0,1,2.85,7,9.84,9.84,0,0,1-9.69,10Zm0-15.56h0a5.53,5.53,0,0,0-5.39,5.64,5.67,5.67,0,0,0,1.62,4,5.26,5.26,0,0,0,3.79,1.62h0a5.54,5.54,0,0,0,5.4-5.65,5.71,5.71,0,0,0-1.62-4A5.28,5.28,0,0,0,1567.05,1244.9Z"/><path class="cls-6" d="M1589.72,1243.09a2.16,2.16,0,0,1,0-4.32l12.78,0h0a2.16,2.16,0,0,1,0,4.31l-12.78,0Z"/><path class="cls-6" d="M1576,1232.21a2.16,2.16,0,1,1,0-4.31l13,0h0a2.16,2.16,0,1,1,0,4.31l-13.06,0Z"/><polygon class="cls-2" points="1638.87 831.36 1558.18 831.36 1571.65 806.3 1650.69 806.3 1638.87 831.36"/><polygon class="cls-2" points="1620.67 872.03 1539.98 872.03 1553.45 846.97 1632.49 846.97 1620.67 872.03"/><path class="cls-7" d="M1475.62,951.26l18.46,96.56h0l27.35,130.08,2.47,11.76,1.65,7.84,2.47,11.77,2.15,10.2h46.28q-.65-5.06-1.29-10.2-.73-5.83-1.48-11.77-.48-3.9-1-7.84-.73-5.85-1.46-11.76c-5.75-46.24-11.81-95.21-18-136.62-6.59-43.86-13.39-79.21-20.21-93.8Z"/><path class="cls-7" d="M1431.67,1021.52c.22,5.27,2.42,10.92,2.63,15.64l7.44,140.75.53,11.76.34,7.84.53,11.77.46,10.2h42.19l.5-10.2.57-11.77.37-7.84.57-11.76,6.28-130.09,6.9-97.36-1.26,0-46.35,1.38c-3.59.11-10.95,13.84-12.74,17C1431.67,984.48,1430.94,1003.81,1431.67,1021.52Z"/><path class="cls-6" d="M1452.82,952.5l81.38-1.26,14.49-58.87,4.72-6a55.17,55.17,0,0,0,11.7-34.05v-5.76a65.68,65.68,0,0,0-5.76-26.9h0a21.09,21.09,0,0,0-19.17-12.59h-84.94c-12.65,0-22.46,11.35-21,24.28Z"/><polygon class="cls-2" points="1483.96 816.66 1523.95 850.88 1515.27 816.66 1515.27 767.44 1483.96 767.44 1483.96 816.66"/><path class="cls-11" d="M1579.92,852.62l16,25.07,34.74,12.6-14.06,30.5h-26.7A42.36,42.36,0,0,1,1554,900.56l-17.7-28.48,5.65-32.73Z"/><rect class="cls-11" x="1483.96" y="742.56" width="31.31" height="58.26" transform="translate(2999.23 1543.38) rotate(180)"/><path class="cls-6" d="M1515.27,818.81H1484a2.16,2.16,0,1,1,0-4.31h31.31a2.16,2.16,0,0,1,0,4.31Z"/><path class="cls-11" d="M1478.51,744v12.71c0,20.62,16.26,37.35,36.32,37.35h0c13.87,0,25.12-11.57,25.12-25.85V749c0-16.38-12.9-29.65-28.83-29.65h-8.72C1489.21,719.38,1478.51,730.38,1478.51,744Z"/><ellipse class="cls-5" cx="1481.93" cy="722.64" rx="18.18" ry="18.7"/><path class="cls-6" d="M1423.16,875.68l39.19.25-5.13-75.27-14.09,4.76a30.4,30.4,0,0,0-21.2,30.19Z"/><path class="cls-6" d="M1533.45,877.69l50.84-22.47c-3.24-6.29-6.82-12.49-9.81-18.87-4.25-9.06-9-19.29-18-24.2a29.17,29.17,0,0,0-26.48-.86l-6.59,3.13Z"/><path class="cls-2" d="M1521.43,1177.91l2.47,11.76h48.8q-.73-5.85-1.46-11.76Z"/><polygon class="cls-2" points="1441.74 1177.91 1442.27 1189.67 1487.23 1189.67 1487.8 1177.91 1441.74 1177.91"/><path class="cls-2" d="M1525.55,1197.51l2.47,11.77h47.14q-.73-5.83-1.48-11.77Z"/><polygon class="cls-2" points="1442.61 1197.51 1443.14 1209.28 1486.29 1209.28 1486.86 1197.51 1442.61 1197.51"/><path class="cls-5" d="M1415.68,780.89s-32.37,17.67,0,33.93c0,0-2.78,23.42,35.23,20.47,0,0,18.2,31.3,44.73,13.26,0,0,21.41,21.13,33.08,0,0,0,31.84-8,17.51-32.3,0,0,9-38.78-30.24-35.36,0,0-5.31-38.07-34-15.42,0,0-19.1-24.22-39.27-4.33C1442.75,761.14,1412.5,743.08,1415.68,780.89Z"/><path class="cls-5" d="M1538.37,736.4a4.85,4.85,0,0,1,.16,2.72c-1.33,5.64-7.94,26-34.57,28.32-31,2.76-34.21-11.69-34.21-11.69v-.9c0-22.07,17.39-40,38.85-40h0a31.7,31.7,0,0,1,29.77,21.51Z"/><path class="cls-11" d="M1521.3,775.38h0a11,11,0,0,0,11-11v-4.65a11,11,0,0,0-11-11h0a11,11,0,0,0-11,11v4.65A11,11,0,0,0,1521.3,775.38Z"/><path class="cls-2" d="M1491.58,740.65a2.16,2.16,0,0,1-1.17-4,16.61,16.61,0,0,0,7.55-14,16.85,16.85,0,0,0-1.45-6.88,2.16,2.16,0,0,1,3.94-1.75,21.21,21.21,0,0,1-7.71,26.3A2.14,2.14,0,0,1,1491.58,740.65Z"/><path class="cls-2" d="M1494.08,1050a2.16,2.16,0,0,1-2-1.46l-6.94-20.38a43.07,43.07,0,0,1-12.16-37.76,2.16,2.16,0,0,1,4.26.66,38.53,38.53,0,0,0,11.17,34.24l.44.39.19.55,7.12,20.91a2.15,2.15,0,0,1-1.35,2.73A2.09,2.09,0,0,1,1494.08,1050Z"/><path class="cls-12" d="M1450.91,837.45a2.15,2.15,0,0,1-1.83-1c-.28-.44-6.65-10.86.2-18.79a2.16,2.16,0,0,1,3.26,2.82c-4.79,5.55.15,13.61.2,13.69a2.16,2.16,0,0,1-1.83,3.3Z"/><path class="cls-12" d="M1528.72,850.71a2.14,2.14,0,0,1-1.8-1,2.17,2.17,0,0,1,.61-3c.08,0,3.72-2.53,4.1-5.9.2-1.78-.6-3.63-2.36-5.49a2.15,2.15,0,1,1,3.12-3c2.7,2.84,3.88,5.86,3.52,9-.62,5.4-5.79,8.84-6,9A2.2,2.2,0,0,1,1528.72,850.71Z"/><path class="cls-12" d="M1473,787.67a2.14,2.14,0,0,1-2-1.35c-1.82-4.47-4.6-7.35-8.27-8.57-8.34-2.76-18.86,3.51-19,3.57a2.16,2.16,0,0,1-2.24-3.69c.5-.3,12.3-7.36,22.54-4,4.93,1.63,8.6,5.35,10.92,11.05a2.15,2.15,0,0,1-1.19,2.81A2.09,2.09,0,0,1,1473,787.67Z"/><path class="cls-12" d="M1543,816.29h-.11a2.16,2.16,0,0,1-2-2.26c.21-4.46-.88-8-3.25-10.46-4-4.15-10.19-4.2-10.25-4.2a2.16,2.16,0,1,1,0-4.31c.33,0,8.15.06,13.37,5.53,3.21,3.37,4.71,8,4.44,13.65A2.16,2.16,0,0,1,1543,816.29Z"/><path class="cls-6" d="M1525.11,768.43a2.17,2.17,0,0,1-1.68-.79l-6.86-8.43a2.15,2.15,0,0,1,3.34-2.72l6.87,8.42a2.15,2.15,0,0,1-1.67,3.52Z"/><path class="cls-2" d="M1450.52,1003a12.55,12.55,0,0,1-9.84-4.42,13.66,13.66,0,0,1-2.68-11.28l1.32-7.3a2.16,2.16,0,0,1,4.25.77l-1.33,7.3a9.3,9.3,0,0,0,1.75,7.75,8.32,8.32,0,0,0,6.53,2.87c6.06,0,11.92-5.11,13.06-11.39l1.53-8.38a2.15,2.15,0,1,1,4.24.77l-1.52,8.38C1466.33,996.27,1458.56,1003,1450.52,1003Z"/><path class="cls-2" d="M1500.91,1003a12.53,12.53,0,0,1-9.83-4.42,13.66,13.66,0,0,1-2.69-11.28l1.33-7.3a2.15,2.15,0,0,1,4.24.77l-1.33,7.3a9.27,9.27,0,0,0,1.76,7.75,8.3,8.3,0,0,0,6.52,2.87c6.07,0,11.93-5.11,13.07-11.39l1.52-8.38a2.16,2.16,0,0,1,4.25.77l-1.53,8.38C1516.72,996.27,1509,1003,1500.91,1003Z"/><path class="cls-2" d="M1468.47,966.94h-14.91a2.16,2.16,0,1,1,0-4.31h14.91a2.16,2.16,0,1,1,0,4.31Z"/><path class="cls-2" d="M1512.94,966.94H1498a2.16,2.16,0,0,1,0-4.31h14.91a2.16,2.16,0,1,1,0,4.31Z"/><path class="cls-2" d="M1538.36,980.25a13.39,13.39,0,0,1-11.94-7,2.16,2.16,0,0,1,3.86-1.93c.14.28,3.27,6.12,11.14,4.19a2.16,2.16,0,1,1,1,4.19A17,17,0,0,1,1538.36,980.25Z"/><path class="cls-11" d="M1638.6,873.1h0c11.55,0,20.92,9.64,20.92,21.52v4.65c0,11.88-9.37,21.52-20.92,21.52h-24.19Z"/><path class="cls-2" d="M1442.13,878a2.15,2.15,0,0,1-2.12-1.78l-2.42-13.53a2.15,2.15,0,0,1,4.24-.76l2.42,13.53a2.15,2.15,0,0,1-1.74,2.5A1.69,1.69,0,0,1,1442.13,878Z"/><path class="cls-2" d="M1534,879.5a3.35,3.35,0,0,1-3-1.77l-5.53-10.17a2.15,2.15,0,0,1,3.78-2.06l5.13,9.42,3.38-1.5a2.16,2.16,0,0,1,1.74,4l-4.18,1.84A3.3,3.3,0,0,1,1534,879.5Z"/><path class="cls-11" d="M1622.18,886.26l3-9a2.28,2.28,0,0,1,3.73-1l8.07,7.56-3.73,11.79L1620.16,891Z"/><path class="cls-6" d="M1639.65,889.84a3.93,3.93,0,0,1-3.29-1.78l-3.49-5.24a2.16,2.16,0,0,1,3.59-2.39l3.32,5,2.55-1.19a2.16,2.16,0,1,1,1.83,3.91l-2.84,1.33A4,4,0,0,1,1639.65,889.84Z"/><path class="cls-2" d="M1464.05,930.85a2.15,2.15,0,0,1-1.06-4c18.13-10.22,34.67-48.3,34.84-48.68a2.15,2.15,0,0,1,4,1.7c-.7,1.62-17.29,39.81-36.68,50.74A2.14,2.14,0,0,1,1464.05,930.85Z"/><path class="cls-6" d="M1577.6,879.85a2.5,2.5,0,0,1-.47-.05l-14.87-3.25a2.15,2.15,0,1,1,.92-4.21l14.87,3.25a2.15,2.15,0,0,1-.45,4.26Z"/><path class="cls-8" d="M366.14,1259.51a1.9,1.9,0,0,1-.77-.16,2,2,0,0,1-1.09-2.62l50.53-122.54a2,2,0,0,1,3.72,1.54L368,1258.26A2,2,0,0,1,366.14,1259.51Z"/><path class="cls-8" d="M413.72,1210.55a2,2,0,0,1-1.88-1.28l-29-73.83a2,2,0,1,1,3.74-1.47l29,73.83a2,2,0,0,1-1.14,2.61A2.1,2.1,0,0,1,413.72,1210.55Z"/><path class="cls-8" d="M514.45,1241.73a1.87,1.87,0,0,1-.76-.15,2,2,0,0,1-1.1-2.62l43.34-105.09a2,2,0,0,1,3.72,1.53l-43.34,105.09A2,2,0,0,1,514.45,1241.73Z"/><path class="cls-8" d="M368.63,1136.71a2,2,0,1,1,0-4l207.28-.14h0a2,2,0,1,1,0,4l-207.27.13Z"/><polygon class="cls-8" points="562.87 1223.58 593.35 1242.93 621.95 1258.64 621.95 1275.57 572.2 1275.57 566.32 1254.75 560.44 1254.75 557.9 1275.57 547.91 1275.57 543.43 1223.58 562.87 1223.58"/><path class="cls-2" d="M619.34,1260.65H587a2,2,0,0,1-1.21-.41l-19.93-15.15a2,2,0,0,1,2.44-3.2l19.38,14.74h31.63a2,2,0,1,1,0,4Z"/><polygon class="cls-8" points="428.59 1223.58 405.98 1243.52 386.69 1258.64 386.69 1275.57 429.23 1275.57 434.05 1254.75 435.47 1254.75 438.02 1275.57 443.56 1275.57 448.03 1223.58 428.59 1223.58"/><path class="cls-2" d="M416.12,1260.54H387.93a2,2,0,1,1,0-4h27.26l16.22-19.14a2,2,0,0,1,3.07,2.6l-16.82,19.85A2,2,0,0,1,416.12,1260.54Z"/><polygon class="cls-10" points="507.69 944.54 559.1 951.85 602.34 935.98 620.53 952.89 564.57 989.52 493.64 986.48 507.69 944.54"/><path class="cls-7" d="M470.52,951.15l34.88,36.31,23.2-45.79L489.27,913.5c-1.51,5.28,2.51,13.45-.94,17.5C485.21,934.65,474.06,947.85,470.52,951.15Z"/><path class="cls-10" d="M604.1,951.62c-6.82-3.73-11.41-10-10.14-19.48.3-2.24,1.32-4.55,3.31-5.61,2.48-1.33,5.71-.22,7.65,1.83s2.9,4.81,3.8,7.49c6.91-4.65,14-9.37,22-11.61s17.32-1.62,23.76,3.66c1.85,1.52,3.53,3.69,3.24,6.07a8.09,8.09,0,0,1-1.43,3.28A42,42,0,0,1,633,954.46C624.56,956.88,612.59,956.26,604.1,951.62Z"/><path class="cls-6" d="M490.79,1069.22l-7.35-16.49-85-2.56-3,6.7a76,76,0,0,0-2,57.64h0a26.41,26.41,0,0,0,18.89,16.73h0a65.73,65.73,0,0,0,14.32,1.58h64.18Z"/><rect class="cls-6" x="411.93" y="1064.3" width="110.74" height="62.71"/><polygon class="cls-6" points="584.88 1231.65 533.7 1231.65 523.21 1216.42 515.65 1205.45 510.61 1198.14 503.06 1187.18 464.54 1131.29 519.62 1102.37 562.43 1187.18 567.97 1198.14 571.66 1205.45 577.19 1216.42 584.88 1231.65"/><polygon class="cls-6" points="509.89 1163.48 492.21 1187.18 484.04 1198.14 478.58 1205.45 470.4 1216.42 459.05 1231.65 410.26 1231.65 417.48 1216.42 422.68 1205.45 426.15 1198.14 431.34 1187.18 461.11 1124.39 509.89 1163.48"/><path class="cls-6" d="M485.47,1175.29a31.36,31.36,0,0,1-25-50.29l36.57-48.28a31.36,31.36,0,0,1,50,37.87l-36.57,48.28A31.29,31.29,0,0,1,485.47,1175.29Z"/><path class="cls-5" d="M485.19,827.45a2.36,2.36,0,0,0-.61.15Z"/><path class="cls-5" d="M408.37,938.58c20.32,3.23,41.7,8.33,62.66,8.88a123.48,123.48,0,0,0,14.41-.42c5.29-.48,11-1.51,15.78-4.23a19.33,19.33,0,0,0,5.39-4.48c8.45-10.23,7.51-27,1.5-38.2-7.6-14.17-21.85-23.39-26-39.66-1.94-7.54-7.18-25.91,1.07-32a6.14,6.14,0,0,1,1.44-.85l-76.9,19.17S429,880.71,394.05,888,345.58,928.6,408.37,938.58Z"/><path class="cls-10" d="M444.85,832.56H445a28.27,28.27,0,0,1,28.27,28.27v24.26a0,0,0,0,1,0,0H428.39a0,0,0,0,1,0,0V849A16.46,16.46,0,0,1,444.85,832.56Z" transform="translate(901.61 1717.65) rotate(-180)"/><polygon class="cls-10" points="422.59 823.99 425.73 929.28 457.38 929.28 456.3 918.71 456.3 918.7 453.59 892.32 446.59 823.99 422.59 823.99"/><path class="cls-7" d="M499,962c-.08.36-.16.73-.25,1.1l-5.45,18.13-3.22,10.71-9.58,31.9-.7,2.34,4.81,26.55-84.59-2.55-2.43-30.2-.79-3.33-7.45-31.13-14-59.09,2.26-1.36,21.09-12.65,2-1.21,10.07-6,2-1.21,8-4.78L456.16,916l-1.58-14,12.6,10.41.81.68,1.21,1,1.13.94,5.36,4.44,1.3,1.07.66.54,1.36,1.13,8.42,7c.83.69,1.63,1.42,2.38,2.17.56.56,1.1,1.14,1.61,1.74A33.75,33.75,0,0,1,499,962Z"/><polygon class="cls-2" points="453.59 892.32 456.3 918.7 460.42 899.17 453.59 892.32"/><path class="cls-10" d="M520.26,1050.68l-25.73,18.83L414,1059a28.3,28.3,0,0,1-23.06-19.27l-15.08-45.06,48.05,2.7,3.89,16.13Z"/><path class="cls-5" d="M454,845.41c-6.77-.74-13.21-3-15.32-8.69,0,0,2.24,16.36-11.54,22.47-4.39,1.95-10.7,2.82-14.8-.27-6.49-4.89-4.78-14.86-3.11-21.72,7.5-30.86,42.11-36.55,66.45-23.43,8.9,4.8,14.5,14.44,6.15,22.91C474.84,843.76,463.49,846.47,454,845.41Z"/><path class="cls-10" d="M423,865.18h0a8.63,8.63,0,0,0,8.51-8.75v-3.11a8.64,8.64,0,0,0-8.51-8.76h0a8.64,8.64,0,0,0-8.51,8.76v3.11A8.63,8.63,0,0,0,423,865.18Z"/><path class="cls-5" d="M420.18,859.26a2,2,0,0,1-1.36-3.49l5.55-5.08a2,2,0,0,1,2.71,3l-5.55,5.07A2,2,0,0,1,420.18,859.26Z"/><path class="cls-5" d="M452.92,886.89h-.24a29.32,29.32,0,0,1-14.22-5.82,2,2,0,1,1,2.44-3.19,25.33,25.33,0,0,0,12.27,5,2,2,0,0,1-.25,4Z"/><polygon class="cls-2" points="456.3 914.54 424.67 891.36 418.56 906.22 456.3 920.95 456.3 914.54"/><path class="cls-13" d="M438.67,838.73a2.31,2.31,0,0,1-.52-.06,2,2,0,0,1-1.43-2.46h0a29.79,29.79,0,0,0,.41-11.81,2,2,0,1,1,3.94-.81,33.79,33.79,0,0,1-.46,13.65A2,2,0,0,1,438.67,838.73Z"/><path class="cls-7" d="M430.22,1000.82l-56.82-.25-12.76-41.05a27.44,27.44,0,0,1,12.31-32l10.69-6.11,31.57,34.49Z"/><path class="cls-2" d="M453.42,975a25,25,0,0,1-12.11-3.11l-4-2.21a2,2,0,1,1,1.94-3.52l4,2.21a21,21,0,0,0,18.94.69l5.91-2.74a2,2,0,1,1,1.69,3.65l-5.91,2.73A24.88,24.88,0,0,1,453.42,975Z"/><path class="cls-2" d="M457.11,1134.84a2,2,0,0,1-.88-.21,2,2,0,0,1-.92-2.69l15.9-32.53a2,2,0,1,1,3.61,1.76l-15.9,32.54A2,2,0,0,1,457.11,1134.84Z"/><path class="cls-2" d="M497.85,1181.63a2,2,0,0,1-1.19-.39,2,2,0,0,1-.43-2.81l36-49.08a2,2,0,1,1,3.24,2.38l-36,49.08A2,2,0,0,1,497.85,1181.63Z"/><path class="cls-2" d="M430,1002.83h-5.3a2,2,0,1,1,0-4h2.54l-5.61-17.4a2,2,0,0,1,3.83-1.24l6.45,20a2,2,0,0,1-1.91,2.63Z"/><path class="cls-2" d="M488.92,997.92a2,2,0,0,1-.58-.09,2,2,0,0,1-1.35-2.5l3.16-10.52a2,2,0,0,1,1-1.18A25.56,25.56,0,0,0,502,969.41c2-7.27.49-15.54-4.62-24.59a2,2,0,0,1,3.5-2c5.67,10,7.35,19.37,5,27.72a29.24,29.24,0,0,1-12.11,16.15l-2.94,9.77A2,2,0,0,1,488.92,997.92Z"/><path class="cls-5" d="M545.49,1053.83h0l-20.24-.39-41-15.08a2,2,0,1,1,1.38-3.77l40.4,14.85,19.56.37a2,2,0,0,1,0,4Z"/><polygon class="cls-8" points="584.66 1076.36 454.52 1076.36 483.02 980.79 613.16 980.79 584.66 1076.36"/><polygon class="cls-14" points="1059.42 287.85 1026.44 208.77 1013.88 167.52 1063.85 158.25 1075.21 196.73 1092.15 288.25 1059.42 287.85"/><path class="cls-14" d="M1059.42,287.85l0,18.62a5.53,5.53,0,0,0,5.48,4.86h1.79l5.07,14.16a8.78,8.78,0,0,0,8.27,5.83h12a7.22,7.22,0,0,0,7.13-8.42L1094.8,297l-2.65-8.74Z"/><path class="cls-5" d="M1066.65,313.66a2.2,2.2,0,0,1-.79-.14,2.32,2.32,0,0,1-1.41-3l2.23-6.28,1.82.19h0a4.11,4.11,0,0,0,3-1.08c.94-1,1.16-3,.63-5.7a2.33,2.33,0,0,1,4.58-.89c.83,4.27.24,7.55-1.78,9.76a8.17,8.17,0,0,1-5,2.5l-1.09,3.06A2.32,2.32,0,0,1,1066.65,313.66Z"/><path class="cls-7" d="M1058.82,297.23l-120.43.15L924.86,153.43c-.78-9.87,4.84-19,13.4-21.74l58.07-18.75,58.09,18.75c8.56,2.77,14.16,11.86,13.39,21.72Z"/><path class="cls-14" d="M1016.41,122h0c-9.08,13.54-26.89,14.92-37.57,2.9l-2.58-2.9V69.31h40.15Z"/><path class="cls-2" d="M996.49,135.4a26,26,0,0,1-19.4-9l-2.57-2.9a2.33,2.33,0,0,1,3.48-3.1l2.58,2.9a21.19,21.19,0,0,0,17.28,7.37,21.92,21.92,0,0,0,16.61-10,2.33,2.33,0,1,1,3.87,2.6,26.54,26.54,0,0,1-20.17,12.08C997.61,135.39,997.05,135.4,996.49,135.4Z"/><path class="cls-14" d="M977.74,45.09h44.64a0,0,0,0,1,0,0V95.21a6.78,6.78,0,0,1-6.78,6.78H977.74a0,0,0,0,1,0,0V45.09A0,0,0,0,1,977.74,45.09Z"/><path class="cls-5" d="M1062.79,220h-.19a2.34,2.34,0,0,1-2.14-2.51l3.87-49.55a2.35,2.35,0,0,1,2.51-2.15,2.32,2.32,0,0,1,2.14,2.51l-3.87,49.55A2.34,2.34,0,0,1,1062.79,220Z"/><path class="cls-5" d="M974.4,73.54S958.48,61,971.28,55.07c0,0-12.11-10.57,1.21-13.07,0,0-5.34-17.88,9.1-13.26,0,0,13.4-16.72,22.74.57,0,0,9.17-18.45,18.52-1.34,0,0,16.61,2.69,12.11,17.68,0,0,2.42,20.48-9.34,13.89,0,0,5.53,11.86-3.81,6.1,0,0-1.94-7.69.87-11.73,0,0-13.67,8.46-20.25,1.73,0,0-3.63,4.81-11.25.19,0,0-3.11,9.23-8.65,6C982.53,61.79,982.05,83.24,974.4,73.54Z"/><path class="cls-5" d="M1009.82,104.83c-4,0-6.91-.71-8.9-2.15a2.33,2.33,0,1,1,2.73-3.78c1.28.92,4.39,1.81,12,.84a2.33,2.33,0,1,1,.59,4.63A52.1,52.1,0,0,1,1009.82,104.83Z"/><path class="cls-14" d="M975.28,84.91h0c-4.8,0-8.69-4.32-8.69-9.66V71.82c0-5.34,3.89-9.66,8.69-9.66h0c4.81,0,8.7,4.32,8.7,9.66v3.43C984,80.59,980.09,84.91,975.28,84.91Z"/><path class="cls-5" d="M978.12,78.5a2.34,2.34,0,0,1-1.64-.68l-5.67-5.6a2.33,2.33,0,0,1,3.28-3.32l5.67,5.6a2.33,2.33,0,0,1,0,3.3A2.35,2.35,0,0,1,978.12,78.5Z"/><polygon class="cls-7" points="1066.88 144.9 1084 217.68 1047.67 217.68 1036.08 147.72 1066.88 144.9"/><polygon class="cls-5" points="1101.48 251.89 1008.48 251.89 1044.44 150.42 1125.44 150.42 1101.48 251.89"/><path class="cls-14" d="M923.08,208.46l-10.92,38.27c-3.75,13.13,5.64,26.31,18,25.26l82.64-7V228l-37.53-2.27-6.59-6.16Z"/><polygon class="cls-8" points="1101.06 253.43 1020.06 253.43 1056.45 150.23 1137.45 150.23 1101.06 253.43"/><polygon class="cls-7" points="925.83 144.81 912.7 217.68 975.28 225.76 982.13 190.01 925.83 144.81"/><path class="cls-5" d="M975.29,228.09a2.45,2.45,0,0,1-.46,0,2.33,2.33,0,0,1-1.83-2.74l8.1-41.16a2.33,2.33,0,1,1,4.58.9l-8.11,41.16A2.33,2.33,0,0,1,975.29,228.09Z"/><path class="cls-14" d="M1014.14,224.61h11.33a27.12,27.12,0,0,1,26.87,30.79h0a8.53,8.53,0,0,1-7.85,7.35L1012.81,265V230Z"/><path class="cls-14" d="M1024.18,224.61l-.37-4.55c-.27-3.41-3.85-5.12-6.28-3-2.63,2.32-5.12,5.43-4.88,8.77l.16,2.19Z"/><path class="cls-5" d="M925.83,147.14a2.22,2.22,0,0,1-.72-.12,2.33,2.33,0,0,1-1.51-2.93c.15-.44,3.64-11,13.43-14,7.41-2.31,16.14.36,26,7.92a2.33,2.33,0,0,1-2.85,3.69c-8.52-6.56-15.81-9-21.68-7.17-7.47,2.3-10.38,10.94-10.41,11A2.33,2.33,0,0,1,925.83,147.14Z"/><path class="cls-2" d="M1077.45,221.93c-5.21,0-9.58-2-12.31-5.71-2.83-3.84-3.51-9.13-1.85-14.53,3.25-10.58,14.12-18.86,24.74-18.86a16.07,16.07,0,0,1,8.79,2.42,2.32,2.32,0,0,1,.7,3.22,2.35,2.35,0,0,1-3.23.7,11.47,11.47,0,0,0-6.26-1.68c-8.54,0-17.64,7-20.28,15.57-1.24,4-.83,7.71,1.14,10.38,1.83,2.47,4.86,3.83,8.56,3.83,6.12,0,12.81-3.67,17.06-9.35a2.33,2.33,0,1,1,3.74,2.79C1093.15,217.53,1085,221.93,1077.45,221.93Z"/><path class="cls-2" d="M1088,187.49a2.33,2.33,0,0,1-2.17-3.19l3.34-8.47a2.33,2.33,0,0,1,4.34,1.71L1090.2,186A2.33,2.33,0,0,1,1088,187.49Z"/><path class="cls-8" d="M1550.41,624.66h-12.66v-4.22h12.66Zm-25.32,0h-12.67v-4.22h12.67Zm-25.33,0H1487.1v-4.22h12.66Zm-25.32,0h-12.67v-4.22h12.67Zm-25.33,0h-12.66v-4.22h12.66Zm-25.33,0h-12.66v-4.22h12.66Zm-25.32,0H1385.8v-4.22h12.66Zm-25.33,0h-12.66v-4.22h12.66Zm-25.32,0h-12.67v-4.22h12.67Zm-25.33,0h-12.66v-4.22h12.66Zm-25.32,0h-12.67v-4.22h12.67Zm-25.33,0h-12.66v-4.22h12.66Zm-21-4.28h-4.22V607.71h4.22Zm308.35-3.87h-4.22V603.84h4.22Zm-308.35-21.46h-4.22V582.39h4.22Zm308.35-3.87h-4.22V578.52h4.22Zm-308.35-21.45h-4.22V557.06h4.22Zm308.35-3.87h-4.22V553.19h4.22ZM1250.79,544.4h-4.22V531.74h4.22Zm308.35-3.87h-4.22V527.87h4.22Zm-308.35-21.46h-4.22V506.41h4.22Zm308.35-3.86h-4.22V502.54h4.22Zm-308.35-21.46h-4.22V481.09h4.22Zm308.35-3.87h-4.22V477.22h4.22Zm-308.35-21.46h-4.22V455.76h4.22Zm308.35-3.87h-4.22V451.89h4.22ZM1250.79,443.1h-4.22V430.44h4.22Zm308.35-3.87h-4.22V426.57h4.22Zm-308.35-21.46h-4.22V405.11h2.69V403h12.66v4.22h-11.13Zm308.35-3.87h-4.22v-6.68h-1.76V403h6Zm-18.64-6.68h-12.66V403h12.66Zm-25.32,0h-12.67V403h12.67Zm-25.33,0h-12.66V403h12.66Zm-25.33,0h-12.66V403h12.66Zm-25.32,0h-12.66V403h12.66Zm-25.33,0h-12.66V403h12.66Zm-25.32,0h-12.67V403h12.67Zm-25.33,0h-12.66V403h12.66Zm-25.32,0h-12.67V403h12.67Zm-25.33,0h-12.66V403h12.66Zm-25.33,0h-12.66V403h12.66Z"/><polygon class="cls-2" points="1286.35 376.86 1286.35 594.3 1357.84 594.3 1465.93 594.3 1594.7 594.3 1594.7 376.86 1286.35 376.86"/><path class="cls-8" d="M1597,596.64H1284V374.53h313ZM1288.68,592h303.69V379.19H1288.68Z"/><path class="cls-5" d="M1383.89,480.54,1335,452.23a70,70,0,0,1,60.38-34.85v56.54A13.12,13.12,0,0,0,1383.89,480.54Z"/><path class="cls-7" d="M1395.34,556.85A69.75,69.75,0,0,1,1335,452.22l48.93,28.32a13,13,0,0,0-1.74,6.58,13.2,13.2,0,0,0,13.19,13.19,13,13,0,0,0,6.58-1.75l28.32,48.94A69.83,69.83,0,0,1,1395.34,556.85Z"/><path class="cls-8" d="M1430.24,547.5l-28.32-48.94a13.1,13.1,0,0,0,6.61-11.44h56.54A70,70,0,0,1,1430.24,547.5Z"/><path class="cls-6" d="M1465.07,487.12h-56.54a13.06,13.06,0,0,0-4.24-9.69l38.41-41.5A70,70,0,0,1,1465.07,487.12Z"/><path class="cls-5" d="M1404.29,477.43a13,13,0,0,0-9-3.51V417.38a69.54,69.54,0,0,1,47.36,18.55Z"/><path class="cls-8" d="M1563.5,523.07h-68.24a2.34,2.34,0,0,1,0-4.67h68.24a2.34,2.34,0,0,1,0,4.67Z"/><path class="cls-5" d="M1563.5,540.32h-68.24a2.34,2.34,0,0,1,0-4.67h68.24a2.34,2.34,0,0,1,0,4.67Z"/><path class="cls-2" d="M1520.29,555.23h0Z"/><path class="cls-6" d="M1563.5,557.56h-43.21a2.33,2.33,0,1,1,0-4.66h43.21a2.33,2.33,0,0,1,0,4.66Z"/><path class="cls-8" d="M1563.5,458.35h-68.24a2.33,2.33,0,1,1,0-4.66h68.24a2.33,2.33,0,0,1,0,4.66Z"/><path class="cls-5" d="M1563.5,441.1h-43.21a2.33,2.33,0,1,1,0-4.66h43.21a2.33,2.33,0,0,1,0,4.66Z"/><path class="cls-7" d="M1563.5,423.86h-68.24a2.34,2.34,0,0,1,0-4.67h68.24a2.34,2.34,0,0,1,0,4.67Z"/><circle class="cls-2" cx="1444.56" cy="376.86" r="18.04"/><path class="cls-8" d="M1444.56,397.23a20.37,20.37,0,1,1,20.37-20.37A20.38,20.38,0,0,1,1444.56,397.23Zm0-36.07a15.71,15.71,0,1,0,15.7,15.7A15.72,15.72,0,0,0,1444.56,361.16Z"/><path class="cls-2" d="M1444.56,205.18v0Z"/><path class="cls-8" d="M1444.56,207.51a2.33,2.33,0,0,1-2.34-2.33V150.42a2.34,2.34,0,0,1,4.67,0v54.76A2.33,2.33,0,0,1,1444.56,207.51Z"/><path class="cls-2" d="M1444.56,358.82v0Z"/><path class="cls-8" d="M1444.56,361.16a2.34,2.34,0,0,1-2.34-2.34V239.07a2.34,2.34,0,0,1,4.67,0V358.82A2.33,2.33,0,0,1,1444.56,361.16Z"/><path class="cls-2" d="M1826.41,301.84V238.06H1792a92,92,0,0,0-3.76-9l24.25-24.33-44.31-44.17-24.3,24.37a91.35,91.35,0,0,0-8.6-3.55V146.92h-62.57v34.36a92.61,92.61,0,0,0-10.58,4.51l-24.82-23.85L1594,207.06l24.77,23.8c-1.08,2.4-2.07,4.85-3,7.36h-34.36v62.56h34.41a92.53,92.53,0,0,0,4.82,11.18l-24.36,25.66,45,44.36,25.45-26.79c1.92.83,3.88,1.61,5.86,2.32V394.9h62.57V357.56c2.87-1,5.68-2.17,8.41-3.45l26.15,26,43.7-45.65-25-24.9c1.2-2.52,2.3-5.1,3.27-7.74Z"/><path class="cls-6" d="M1737.46,397.23h-67.24V359.14c-1-.38-2-.77-3-1.17l-26,27.34L1593,337.67l24.82-26.13c-1.34-2.73-2.56-5.55-3.64-8.42h-35.11V235.88h35.05c.57-1.51,1.17-3,1.8-4.47l-25.28-24.28,46.58-48.49L1662.57,183c2.54-1.22,5.16-2.33,7.81-3.32V144.59h67.23v35.12c2,.73,3.88,1.53,5.77,2.38l24.79-24.87,47.62,47.46-24.74,24.83c.92,2,1.79,4.1,2.58,6.22h35.12v68.44h-35.52c-.64,1.65-1.34,3.29-2.07,4.91l25.49,25.36-46.93,49L1743,356.91c-1.83.82-3.7,1.58-5.57,2.28Zm-62.57-4.66h57.9V355.91l1.55-.55c2.78-1,5.54-2.11,8.2-3.36l1.48-.69,25.62,25.49,40.47-42.28-24.57-24.45.71-1.49c1.17-2.47,2.24-5,3.18-7.55l.57-1.52h34.08V240.39h-33.72l-.56-1.55a91.58,91.58,0,0,0-3.66-8.81l-.72-1.49,23.77-23.85-41-40.87-23.81,23.89-1.49-.71c-2.72-1.29-5.54-2.45-8.38-3.47L1733,183V149.26H1675v33.67l-1.55.55a90,90,0,0,0-10.32,4.39l-1.47.74-24.33-23.37L1597.26,207l24.28,23.32-.68,1.51c-1,2.29-2,4.7-2.88,7.16l-.55,1.56h-33.68v57.9h33.73L1618,300a91.09,91.09,0,0,0,4.7,10.9l.75,1.47-23.92,25.19,41.63,41.09,24.93-26.25,1.5.65c1.87.81,3.8,1.57,5.72,2.26l1.55.55Z"/><path class="cls-1" d="M1719,318.86a51.67,51.67,0,1,1,0-98.88,51.68,51.68,0,0,0,0,98.88Z"/><path class="cls-7" d="M1703.92,323.42a54,54,0,0,1-33.33-96.49,54,54,0,0,1,49-9.18L1727,220l-7.34,2.22a49.35,49.35,0,0,0,0,94.42l7.34,2.22-7.34,2.24A54,54,0,0,1,1703.92,323.42Zm0-103.33a49.31,49.31,0,0,0-49.33,49.33,49.37,49.37,0,0,0,56.31,48.84,54,54,0,0,1-10.24-91.33,54.45,54.45,0,0,1,10.25-6.35A49.36,49.36,0,0,0,1703.92,220.09Z"/><path class="cls-7" d="M1719,321.19a2.33,2.33,0,0,1-.68-4.56,49.06,49.06,0,0,0,35-47.21,49.65,49.65,0,0,0-35-47.21,2.33,2.33,0,1,1,1.35-4.46,54.33,54.33,0,0,1,38.3,51.67,53.68,53.68,0,0,1-38.28,51.67A2.33,2.33,0,0,1,1719,321.19Z"/><path class="cls-15" d="M1264.72,1015.07c.08-52.37,15.1-54,30.3-78.06a76.17,76.17,0,1,0-128.46.8c15.27,23.56,29.39,27.17,29.78,77.72Z"/><path class="cls-16" d="M1196.34,1018a2.43,2.43,0,0,1-2.43-2.41c-.3-38.45-8.71-49.16-19.36-62.71-3.22-4.11-6.56-8.36-10-13.71a78.6,78.6,0,1,1,132.55-.83,144.15,144.15,0,0,1-11,14.92c-10.51,12.92-18.82,23.12-18.88,61.86a2.42,2.42,0,0,1-2.43,2.42h0a2.43,2.43,0,0,1-2.43-2.43c.06-40.47,8.85-51.26,20-64.92a141.29,141.29,0,0,0,10.7-14.44,73.74,73.74,0,0,0-62.42-113h-1.06a73.75,73.75,0,0,0-60.88,113.76c3.35,5.17,6.62,9.33,9.78,13.36,11.22,14.28,20.08,25.56,20.39,65.67a2.43,2.43,0,0,1-2.41,2.45Z"/><path class="cls-6" d="M1197.57,896.13c.55-.19,24.88-39.63,24.88-39.63Z"/><path class="cls-6" d="M1197.57,898.56a2.44,2.44,0,0,1-1.75-4.13c1.58-2.12,15.48-24.48,24.56-39.2a2.43,2.43,0,1,1,4.13,2.55c-24.79,40.19-25,40.28-26.17,40.65A2.35,2.35,0,0,1,1197.57,898.56Z"/><path class="cls-6" d="M1221.61,896.13c.56-.19,24.88-39.63,24.88-39.63Z"/><path class="cls-6" d="M1221.61,898.56a2.44,2.44,0,0,1-1.74-4.13c1.58-2.12,15.47-24.48,24.56-39.2a2.43,2.43,0,1,1,4.13,2.55c-24.79,40.19-25,40.28-26.18,40.65A2.27,2.27,0,0,1,1221.61,898.56Z"/><path class="cls-6" d="M1245.66,896.13c.56-.19,24.88-39.63,24.88-39.63Z"/><path class="cls-6" d="M1245.66,898.56a2.44,2.44,0,0,1-1.74-4.13c1.58-2.12,15.47-24.48,24.55-39.2a2.43,2.43,0,1,1,4.14,2.55c-24.79,40.19-25,40.28-26.18,40.65A2.27,2.27,0,0,1,1245.66,898.56Z"/><path class="cls-6" d="M1197.57,920.88l19.35,86Z"/><path class="cls-6" d="M1216.92,1009.29a2.44,2.44,0,0,1-2.37-1.9l-19.36-86a2.43,2.43,0,1,1,4.75-1.07l19.36,86a2.44,2.44,0,0,1-1.84,2.91A2.48,2.48,0,0,1,1216.92,1009.29Z"/><path class="cls-6" d="M1263.42,920.33l-20.72,92Z"/><path class="cls-6" d="M1242.7,1014.73a2.48,2.48,0,0,1-.54-.06,2.44,2.44,0,0,1-1.84-2.91l20.73-92a2.43,2.43,0,1,1,4.74,1.07l-20.72,92A2.44,2.44,0,0,1,1242.7,1014.73Z"/><path class="cls-2" d="M1263.7,1035.63a10.08,10.08,0,0,0,0-20.16h-66.33a10.08,10.08,0,1,0,0,20.16,10.08,10.08,0,1,0,0,20.15h9.3a9.2,9.2,0,0,0-.11,1.39,10.08,10.08,0,0,0,10.08,10.08h27.79a10.08,10.08,0,0,0,10.08-10.08,10.71,10.71,0,0,0-.11-1.39h9.3a10.08,10.08,0,0,0,0-20.15Z"/><path class="cls-7" d="M1244.43,1069.68h-27.79a12.52,12.52,0,0,1-12.47-11.47h-6.8a12.5,12.5,0,0,1-7.4-22.58,12.51,12.51,0,0,1,7.4-22.59h66.33a12.51,12.51,0,0,1,7.4,22.59,12.5,12.5,0,0,1-7.4,22.58h-6.8A12.52,12.52,0,0,1,1244.43,1069.68Zm-47.06-31.62a7.65,7.65,0,1,0,0,15.29h9.3a2.43,2.43,0,0,1,2.4,2.77,8.86,8.86,0,0,0-.08,1.05,7.66,7.66,0,0,0,7.65,7.65h27.79a7.66,7.66,0,0,0,7.65-7.65,7.31,7.31,0,0,0-.09-1.05,2.46,2.46,0,0,1,.58-1.93,2.4,2.4,0,0,1,1.83-.84h9.3a7.65,7.65,0,0,0,0-15.29,2.43,2.43,0,0,1,0-4.86,7.65,7.65,0,0,0,0-15.29h-66.33a7.65,7.65,0,1,0,0,15.29,2.43,2.43,0,1,1,0,4.86Z"/><path class="cls-2" d="M1249,1035.26h0Z"/><path class="cls-7" d="M1265.16,1037.69H1249a2.43,2.43,0,1,1,0-4.86h16.16a2.43,2.43,0,0,1,0,4.86Z"/><path class="cls-2" d="M1194.86,1035.26h0Z"/><path class="cls-7" d="M1234.43,1037.69h-39.57a2.43,2.43,0,1,1,0-4.86h39.57a2.43,2.43,0,0,1,0,4.86Z"/><path class="cls-2" d="M1230.53,1055.78h0Z"/><path class="cls-7" d="M1254.51,1058.21h-24a2.43,2.43,0,0,1,0-4.86h24a2.43,2.43,0,0,1,0,4.86Z"/><path class="cls-2" d="M1206.66,1055.78h0Z"/><path class="cls-7" d="M1214.64,1058.21h-8a2.43,2.43,0,0,1,0-4.86h8a2.43,2.43,0,1,1,0,4.86Z"/><path class="cls-2" d="M1226.33,792.79v0Z"/><path class="cls-7" d="M1226.33,795.22a2.43,2.43,0,0,1-2.43-2.43V747a2.43,2.43,0,0,1,4.86,0v45.77A2.43,2.43,0,0,1,1226.33,795.22Z"/><path class="cls-2" d="M1301.91,840.26l20.52-10.12Z"/><path class="cls-7" d="M1301.91,842.69a2.43,2.43,0,0,1-1.07-4.61L1321.35,828a2.43,2.43,0,1,1,2.15,4.36L1303,842.44A2.44,2.44,0,0,1,1301.91,842.69Z"/><path class="cls-2" d="M1152.36,845,1127,840.26Z"/><path class="cls-7" d="M1152.37,847.45a2.3,2.3,0,0,1-.45-.05l-25.38-4.75a2.43,2.43,0,0,1,.9-4.78l25.37,4.76a2.43,2.43,0,0,1-.44,4.82Z"/><polygon class="cls-8" points="949.16 1158.83 883.2 1158.83 891.4 1250.33 940.96 1250.33 942.09 1237.74 949.16 1158.83"/><path class="cls-8" d="M920.38,1140.63a2.36,2.36,0,0,1-2.35-2.13c0-.23-2-23.08,23.08-27.36,18.34-3.13,20.66-16.06,22.2-24.61.26-1.44.49-2.68.77-3.75a2.37,2.37,0,0,1,4.58,1.22c-.23.88-.44,2-.68,3.37-1.56,8.65-4.46,24.75-26.07,28.44-20.69,3.53-19.24,21.46-19.17,22.23a2.36,2.36,0,0,1-2.12,2.58Z"/><path class="cls-8" d="M906,1143.75a2.37,2.37,0,0,1-2.26-1.68c-1.46-4.79-5.32-8-9.41-11.46l-1.15-1c-7.16-6.06-9.41-12.87-6.86-20.81a2.37,2.37,0,0,1,4.52,1.45c-2,6.07-.29,10.93,5.4,15.75l1.14,1c4.44,3.73,9,7.58,10.89,13.71a2.38,2.38,0,0,1-1.58,3A2.35,2.35,0,0,1,906,1143.75Z"/><path class="cls-8" d="M938.62,1221a2.37,2.37,0,0,1,0-4.74A24,24,0,0,0,962.4,1196l1.5-9.48a7.63,7.63,0,0,0-7.53-8.83H932a2.37,2.37,0,1,1,0-4.73h24.42a12.35,12.35,0,0,1,12.21,14.3l-1.51,9.48A28.67,28.67,0,0,1,938.62,1221Z"/><rect class="cls-3" x="618.72" y="98.83" width="45.16" height="45.16" transform="translate(762.71 -519.89) rotate(90)"/><rect class="cls-1" x="697.94" y="99.95" width="45.16" height="45.16" transform="translate(843.04 -597.99) rotate(90)"/><path class="cls-1" d="M822.31,148.12H777.16a3,3,0,0,1-3-3V100a3,3,0,0,1,3-3h45.15a3,3,0,0,1,3,3V145.1A3,3,0,0,1,822.31,148.12Zm-42.14-6H819.3V103H780.17Z"/><path class="cls-8" d="M980.34,1252.7H860.82a2.37,2.37,0,1,1,0-4.74H980.34a2.37,2.37,0,1,1,0,4.74Z"/></svg>