<svg id="_ÎÓÈ_1" data-name="—ÎÓÈ_1" xmlns="http://www.w3.org/2000/svg" viewBox="0 0 1979.64 1232.72"><defs><style>.cls-1{fill:#b3b3b3;}.cls-2{fill:#ff8908;}.cls-3{fill:#8c6239;}.cls-4{fill:#89c22e;}.cls-5{fill:#2a0055;}.cls-6{fill:#fff;}.cls-7{fill:#1b1464;}</style></defs><title>wow</title><ellipse class="cls-1" cx="457.94" cy="1180.02" rx="457.7" ry="52.7"/><path class="cls-2" d="M851.84,240.49a2.86,2.86,0,0,1-2.1-4.82Q856.88,228,864,220.36c18.66-20.15,38-41,58.42-60A568.45,568.45,0,0,1,989,107.14a2.87,2.87,0,0,1,3.24,4.74,560.73,560.73,0,0,0-66,52.64c-20.3,18.91-39.53,39.66-58.13,59.74q-7.11,7.67-14.24,15.32A2.83,2.83,0,0,1,851.84,240.49Z"/><path class="cls-2" d="M1057.79,72.82a2.87,2.87,0,0,1-1.29-5.43c16.37-8.25,33.39-15.89,50.58-22.69a2.87,2.87,0,0,1,2.11,5.33c-17,6.74-33.89,14.31-50.11,22.48A2.82,2.82,0,0,1,1057.79,72.82Z"/><path class="cls-2" d="M1619.31,64.54a2.82,2.82,0,0,1-1.13-.23C1527.47,25.2,1430,4.93,1336.22,5.76a633.28,633.28,0,0,0-151.43,19.76,2.86,2.86,0,1,1-1.42-5.55A639.08,639.08,0,0,1,1336.17,0c94.53-.79,192.85,19.6,284.28,59a2.87,2.87,0,0,1-1.14,5.5Z"/><path class="cls-2" d="M1857.64,228.4a2.88,2.88,0,0,1-2.09-.91c-27.94-29.83-61-58.37-98.2-84.82-14.85-10.55-30.27-20.7-45.85-30.17a2.87,2.87,0,0,1,3-4.9c15.69,9.54,31.23,19.76,46.19,30.4,37.53,26.67,70.86,55.46,99.07,85.57a2.88,2.88,0,0,1-2.1,4.83Z"/><path class="cls-2" d="M1975.12,535.19l-.3,0a2.87,2.87,0,0,1-2.56-3.14c.32-3.12.6-6.28.83-9.42,3.05-42.11-2.51-85.47-16.53-128.87a405.71,405.71,0,0,0-33.92-76.42,2.86,2.86,0,1,1,5-2.85A410.62,410.62,0,0,1,1962,392c14.25,44.1,19.9,88.2,16.8,131-.23,3.19-.52,6.42-.84,9.59A2.88,2.88,0,0,1,1975.12,535.19Z"/><path class="cls-2" d="M1767.38,840.75a2.87,2.87,0,0,1-1.61-5.24c98.74-66.7,168-154.13,195.13-246.18a2.87,2.87,0,0,1,5.5,1.62c-27.46,93.33-97.58,181.87-197.42,249.31A2.86,2.86,0,0,1,1767.38,840.75Z"/><path class="cls-2" d="M1346.52,966.32c-93.72,0-181.44-18.13-256-53.17A2.87,2.87,0,0,1,1093,908c167.64,78.8,399.69,68.86,591.19-25.34a2.87,2.87,0,0,1,2.54,5.15c-88.61,43.58-193.39,71-295,77.17Q1368.9,966.32,1346.52,966.32Z"/><path class="cls-2" d="M1035.4,882.09a2.91,2.91,0,0,1-1.56-.46,436.65,436.65,0,0,1-100.37-90c-31.22-38.27-52.31-83.43-72.71-127.1-16.16-34.61-32.88-70.4-54.5-102.4A2.87,2.87,0,0,1,811,559c21.87,32.38,38.68,68.37,54.94,103.18,20.25,43.36,41.18,88.19,71.95,125.9A431.25,431.25,0,0,0,1037,876.83a2.86,2.86,0,0,1-1.57,5.26Z"/><path class="cls-3" d="M267.93,571.82l64.71,86.91c7.54,15.51,28.24,18,39.68,4.77l105.17-81.75-11.07-32.28L365,595.1l-47.72-52.54Z"/><path class="cls-2" d="M250.26,583.66l51.31,62.71,58.94-66.25-39.57-41c-12.3-12.75-33.19-10.65-43.38,4.34Z"/><polygon class="cls-3" points="457.72 596.7 508 558.04 457.25 534.22 447.15 559.42 457.72 596.7"/><path class="cls-2" d="M317.87,618.72l6.77,137.58L171.38,739.24l-7.7-178.66,40.17-25.09a107.52,107.52,0,0,1,52.75-16.31h0a107.07,107.07,0,0,1,49.5,10l11.23,5.24Z"/><polygon class="cls-3" points="388.6 1085.71 403.13 1116.02 448.2 1093.15 432.24 1059.88 388.6 1085.71"/><polygon class="cls-4" points="520.59 1131.53 427.06 1180.02 394.5 1112.12 448.73 1084.61 507.92 1105.1 520.59 1131.53"/><path class="cls-5" d="M460.81,1106.71a2.87,2.87,0,0,1-1.55-5.28l15.22-9.78a2.87,2.87,0,1,1,3.1,4.82l-15.22,9.79A2.84,2.84,0,0,1,460.81,1106.71Z"/><path class="cls-5" d="M440.08,1142.3l-37.9-9.88a2.87,2.87,0,0,1,1.44-5.55l35.91,9.36,67.12-31.43a2.87,2.87,0,1,1,2.43,5.19Z"/><polygon class="cls-3" points="90.49 992.09 61.48 1007.94 85.05 1053.58 116.91 1036.18 90.49 992.09"/><polygon class="cls-4" points="49.93 1129.16 0 1034.46 65 998.95 93.37 1053.87 75.23 1115.34 49.93 1129.16"/><path class="cls-5" d="M81.17,1098.07a2.88,2.88,0,0,1-2.14-1L64.4,1080.67a2.87,2.87,0,0,1,4.29-3.81l14.62,16.43a2.87,2.87,0,0,1-2.14,4.78Z"/><path class="cls-5" d="M86.41,1082a2.86,2.86,0,0,1-2.3-1.16L70.6,1062.63a2.87,2.87,0,1,1,4.6-3.43l13.51,18.17a2.86,2.86,0,0,1-.59,4A2.79,2.79,0,0,1,86.41,1082Z"/><path class="cls-5" d="M64.77,1123.92a2.86,2.86,0,0,1-2.59-1.63L25.49,1045.6l20.19-38.81a2.87,2.87,0,0,1,5.09,2.64l-18.88,36.28,35.46,74.11a2.87,2.87,0,0,1-2.58,4.1Z"/><path class="cls-5" d="M116.68,1058.42l-41-71,139.84-80.68,27.07-160.86,80.85,13.61L293.94,935c-.13.76-.27,1.5-.44,2.25A51.86,51.86,0,0,1,269,970.58Z"/><path class="cls-5" d="M378.18,1098.27,304.39,921.65l-104-96.73A88.59,88.59,0,0,1,173,751.22l1.75-16.83,81.55,8.48L254.5,759.7a6.27,6.27,0,0,0,1.78,5.2L362.9,864.11l.64.6a67.49,67.49,0,0,1,15.33,22.53l75,179.42Z"/><path class="cls-6" d="M296.52,922.72a2.85,2.85,0,0,1-2-.84l-69.32-69.39a2.86,2.86,0,1,1,4-4l69.32,69.39a2.87,2.87,0,0,1-2,4.89Z"/><path class="cls-4" d="M367,1072.15a2.86,2.86,0,0,1-1.14-5.49l72.85-31.57a2.87,2.87,0,1,1,2.28,5.26l-72.85,31.57A2.87,2.87,0,0,1,367,1072.15Z"/><path class="cls-4" d="M141.21,1045.55a2.87,2.87,0,0,1-2.54-1.52l-38-71.28a2.87,2.87,0,0,1,5.06-2.7l38,71.28a2.87,2.87,0,0,1-2.52,4.22Z"/><path class="cls-3" d="M282.78,525.8h0a33.51,33.51,0,0,1-51.45,5.72L227.65,528l4.54-67.24,48.1-1.89Z"/><path class="cls-6" d="M254.66,543.89a36.4,36.4,0,0,1-25.32-10.31L225.66,530a2.87,2.87,0,1,1,4-4.12l3.67,3.55A30.7,30.7,0,0,0,257.91,538a31.06,31.06,0,0,0,22.49-13.77,2.87,2.87,0,0,1,4.77,3.19,36.76,36.76,0,0,1-26.65,16.28A35.8,35.8,0,0,1,254.66,543.89Z"/><path class="cls-3" d="M232.43,472.64l9.25,40.52,51.17-11.8a9,9,0,0,0,6.72-10.09c0-.26-.08-.51-.13-.75L290,449.13c-2.56-11.23-13.48-18.29-24.39-15.77l-10.82,2.49C238.65,439.57,228.64,456,232.43,472.64Z"/><path class="cls-5" d="M235.62,487s-26.45-4.89-13.77-19.41c0,0-20.69-4.93-5.51-15.78,0,0-16.22-17.38,4.16-20.71,0,0,7.65-27.27,28.51-13,0,0,1.48-26.73,22.24-12.62,0,0,23.82,1,26.28,20.94,0,0,14,22.13-4.13,21.58,0,0,13.23,10.35-1.45,9.3,0,0-6.53-7.69-5.22-14,0,0-14.19,10.09-26,6.28,0,0-1.92,7.71-13.84,6.95,0,0,1.09,12.49-7.53,12C239.4,468.6,250.31,493.58,235.62,487Z"/><path class="cls-3" d="M292.59,461.19l10.81,14.74a2.63,2.63,0,0,1-1.46,4.13l-7.12,1.65Z"/><path class="cls-3" d="M324.64,756.3l-153.4-10.46c-16.57-3.43-28-19.1-26.6-36.43l8-98.35,72.41,6.25-11.6,67.42,119.14,36.72Z"/><polygon class="cls-2" points="163.68 560.58 142.63 646.7 223.09 645.13 225.91 605.49 163.68 560.58"/><path class="cls-5" d="M195.06,694.08a2.87,2.87,0,0,1-.95-5.58L212.52,682a2.87,2.87,0,0,1,1.91,5.41L196,693.91A2.93,2.93,0,0,1,195.06,694.08Z"/><path class="cls-6" d="M220.27,648.05a2.87,2.87,0,0,1-.09-5.73l10.25-.36L235.72,603a2.87,2.87,0,0,1,5.69.78l-5.63,41.32a2.86,2.86,0,0,1-2.74,2.48l-12.66.44Z"/><path class="cls-3" d="M312.7,718.06s20.46-8,21.16-5.39l-2.38-3s38.44.91,45,1.33l9.32.6a6,6,0,0,1,5.49,5.91h0a6,6,0,0,1-5.55,6.11l-10.45.55-20.39.17,12.49.58a41.64,41.64,0,0,1,13.34,2.86l7.47,2.93a7.11,7.11,0,0,1,4.24,8.21h0a7,7,0,0,1-4.89,5.22l-1.32.37.43.55a6.58,6.58,0,0,1,.9,6.63h0a6.21,6.21,0,0,1-8.07,3.46l-7.4-3a22.65,22.65,0,0,0-11.82-1.42l-10.51,1.55,23.11,4.88c4.49.95,5.37,7.37,1.19,9.3a3.38,3.38,0,0,1-.44.18h0a5.19,5.19,0,0,1-2.89.18,55.47,55.47,0,0,0-6.88-1.26l-23.94-2.26h0a92.47,92.47,0,0,1-31.11-5.71l-.71-.26-13-2.12-9.17-26.39Z"/><path class="cls-5" d="M385.84,746a3.08,3.08,0,0,1-.94-.15l-1.56-.54A80.38,80.38,0,0,0,352.79,741a2.86,2.86,0,0,1-.3-5.72,86,86,0,0,1,32.71,4.58l1.57.54a2.87,2.87,0,0,1-.93,5.58Z"/><path class="cls-3" d="M326.61,732.47a13,13,0,0,1-15.49-10.18A13.38,13.38,0,0,1,321,706.35a13,13,0,0,1,15.5,10.18A13.4,13.4,0,0,1,326.61,732.47Z"/><path class="cls-3" d="M317.31,728a7.14,7.14,0,0,1-6.62-9.75l6.21-15.66a7.11,7.11,0,0,1,3.66-3.85l15.95-7.3a7.12,7.12,0,0,1,5.92,12.95l-13.35,6.1-5.15,13A7.14,7.14,0,0,1,317.31,728Z"/><path class="cls-3" d="M250.62,485.72h0a12.09,12.09,0,0,1-14.38-9.3l-1-4.26a12.16,12.16,0,0,1,8.91-14.67h0a12.09,12.09,0,0,1,14.38,9.3l1,4.26A12.16,12.16,0,0,1,250.62,485.72Z"/><path class="cls-5" d="M251.94,476.85a2.89,2.89,0,0,1-1.41-.37l-9.18-5.2a2.87,2.87,0,1,1,2.82-5l9.18,5.2a2.86,2.86,0,0,1-1.41,5.36Z"/><path class="cls-4" d="M295,890.25a2.86,2.86,0,0,1-2.1-4.82c15.54-16.66,14.19-44.37-3.07-63.09l-12.64-13.71-32.29,34.64a2.87,2.87,0,0,1-4.2-3.91l36.52-39.16,16.83,18.25c19.28,20.91,20.62,52,3.05,70.89A2.85,2.85,0,0,1,295,890.25Z"/><path class="cls-6" d="M208,782.27c-11.06,0-21.12-5.2-21.68-5.49A2.87,2.87,0,1,1,189,771.7h0c.16.08,16,8.26,27.89,3.17,5.55-2.38,9.47-7.45,11.64-15.06a2.86,2.86,0,0,1,5.51,1.57c-2.67,9.36-7.68,15.68-14.91,18.77A28.16,28.16,0,0,1,208,782.27Z"/><path class="cls-4" d="M540,600.57a21.7,21.7,0,0,1-33.24,3.36,275.7,275.7,0,0,1-74-129.59l-2.3-9.18a21.69,21.69,0,1,1,42.09-10.51l2.29,9.18A232.43,232.43,0,0,0,537.16,573,21.68,21.68,0,0,1,540,600.57Z"/><path class="cls-5" d="M406.57,405.16l24.55,98.32-9.43,2.36a50.71,50.71,0,0,1-57.57-26.45,49.6,49.6,0,0,1-3.52-9.4c-.09-.33-.17-.65-.25-1a50.53,50.53,0,0,1,31.85-60,49.41,49.41,0,0,1,4.93-1.5Z"/><path class="cls-7" d="M647.46,397.33l9.91,114.41c-99.18-28.87-131.75-25.61-226.19-8l-24.62-98.54c11.74-3.71,22.64-7.25,32.88-10.77C452.22,390,464,385.65,475,381.09c49.32-20.31,85.1-44.85,137.77-96.2l17.55,56.94Z"/><path class="cls-4" d="M685.47,513.49a38.82,38.82,0,0,1-17.75.13c-30.16-6.58-61-46.12-74.17-98.9-10.26-41.05-7.33-80,5.53-104.74,7-13.39,16.86-22.58,29.15-25.66,35-8.73,76.12,35.49,91.93,98.77S720.43,504.75,685.47,513.49Z"/><path class="cls-6" d="M678.7,517.29c-16.35.82-33.67-7.81-49.59-24.91-17.89-19.22-32.05-47.07-39.89-78.43s-8.42-62.59-1.67-88c7-26.34,21.11-43.4,39.73-48.05s39.1,3.77,57.67,23.71c17.88,19.22,32,47.08,39.88,78.43s8.43,62.59,1.68,88c-7,26.33-21.12,43.39-39.74,48.05A42.37,42.37,0,0,1,678.7,517.29ZM635.78,286a32.07,32.07,0,0,0-6.25.92c-15.2,3.8-26.93,18.51-33,41.44-6.35,23.88-5.74,53.48,1.72,83.34,15.16,60.7,53.88,103.51,86.31,95.39S731,443,715.84,382.33C708.38,352.47,695,326.06,678.16,308,664.18,293,649.36,285.33,635.78,286Z"/><path class="cls-6" d="M673.46,419.68c-16.89,8.3-33.94,16.27-50.89,24.53-.39-.82-.78-1.65-1.16-2.48q-2.4-5.3-4.55-10.9a203.66,203.66,0,0,1-7.25-23.06c-.08-.3-.16-.61-.22-.91a203.8,203.8,0,0,1-4.53-24.69c-.47-4-.82-7.9-1-11.75-.06-1-.1-1.91-.14-2.86l22.39-.68c7.19-.22,14.35.1,21.51-.59,7.93-.77,16.08-2.05,23.91.13a28.31,28.31,0,0,1,17.81,14.92,26.74,26.74,0,0,1,1.83,5C694.8,401.06,686.26,413.38,673.46,419.68Z"/><path class="cls-5" d="M686.79,409.77c-10,2.92-21.07-4.75-24.7-17.15s1.55-24.83,11.56-27.76,21.07,4.75,24.7,17.15S696.8,406.84,686.79,409.77Z"/><path class="cls-2" d="M1894.08,401.77a369.83,369.83,0,0,0-37.08-80c-36.21-58.83-87.13-107.62-143.43-147.64-110.68-78.67-245.31-125-381.09-123.88s-271.85,51.25-371.22,143.79c-41.31,38.47-76.11,83.67-119,120.39-31.16,26.7-68,49.25-108.56,57.71-12.7,2.65-42.8-1.93-46.36,14.1s26.64,35.69,37.06,43c46.21,32.28,91.41,67.52,124.89,112.87C899,609.38,918.47,694.62,971.48,759.6c159,194.88,467.57,188.34,675.78,85.93a644.55,644.55,0,0,0,59-32.92c104.49-65.83,194-170.53,202.89-293.7C1912,479.32,1906.3,439.58,1894.08,401.77Z"/><path class="cls-2" d="M324.64,470.63a2.83,2.83,0,0,1-2-.77,2.86,2.86,0,0,1-.14-4.05L339.24,448a2.87,2.87,0,1,1,4.19,3.92l-16.7,17.84A2.83,2.83,0,0,1,324.64,470.63Z"/><path class="cls-2" d="M352.34,496.36h-24a2.87,2.87,0,1,1,0-5.74h24a2.87,2.87,0,0,1,0,5.74Z"/><path class="cls-6" d="M1069.51,625.24a17.17,17.17,0,0,1-15.43-9.62l-78.87-161a17.18,17.18,0,1,1,30.86-15.13l61.38,125.28,24.93-66.12a17.2,17.2,0,0,1,29.38-4.83l51.32,62.6,23-159.53a17.19,17.19,0,0,1,34,4.9L1201.54,600a17.19,17.19,0,0,1-30.31,8.44L1114,538.66l-28.45,75.46a17.18,17.18,0,0,1-15.26,11.1Z"/><path class="cls-6" d="M1584.44,636.18h-.37a17.18,17.18,0,0,1-15.67-11l-31.3-81.24-53,65.7a17.19,17.19,0,0,1-30.26-7.57L1420.17,426a17.19,17.19,0,0,1,33.76-6.46l26.7,139.64,48.43-60a17.18,17.18,0,0,1,29.41,4.61l26.92,69.88,50-115.15a17.19,17.19,0,1,1,31.53,13.69L1600.2,625.83A17.21,17.21,0,0,1,1584.44,636.18Z"/><path class="cls-6" d="M1329.41,627.79c-18.33,0-35.56-8.28-48.66-23.43-12.75-14.74-20.1-34.42-20.69-55.41s5.65-41.06,17.55-56.49c12.62-16.36,30-25.65,49-26.19s36.87,7.78,50.38,23.41c12.75,14.73,20.1,34.42,20.69,55.41,1.25,44.52-28.61,81.61-66.54,82.67C1330.56,627.78,1330,627.79,1329.41,627.79Zm-1.14-130.72h-.8c-9.56.27-18.6,5.31-25.46,14.21-7.57,9.81-11.53,22.88-11.14,36.79s5.07,26.74,13.18,36.12c7.35,8.49,16.68,13,26.21,12.75,21-.58,37.37-23.46,36.6-51-.39-13.91-5.07-26.73-13.19-36.11C1346.53,501.58,1337.54,497.07,1328.27,497.07Z"/><path class="cls-6" d="M1714.07,650.43c-10.2,4.37-21.79.19-25.87-9.34s.89-20.79,11.1-25.16,21.78-.19,25.86,9.34S1724.28,646.06,1714.07,650.43Z"/><path class="cls-6" d="M1718.14,585.28a17.41,17.41,0,0,1-3.42-.35,17.18,17.18,0,0,1-13.44-20.25L1735,398a17.19,17.19,0,0,1,33.69,6.81L1735,571.49A17.2,17.2,0,0,1,1718.14,585.28Z"/><path class="cls-6" d="M1353,335.34h-.27a4.32,4.32,0,0,1-4-4.57l9-148.26a4.31,4.31,0,1,1,8.6.52l-9,148.27A4.3,4.3,0,0,1,1353,335.34Z"/><path class="cls-6" d="M1176,343.72a4.31,4.31,0,0,1-4-2.86l-25-69.69a4.31,4.31,0,1,1,8.11-2.91L1180,338a4.31,4.31,0,0,1-2.6,5.51A4.13,4.13,0,0,1,1176,343.72Z"/><path class="cls-6" d="M1266.87,332.47a4.31,4.31,0,0,1-4.21-3.43l-12.19-58.45a4.31,4.31,0,1,1,8.44-1.76l12.18,58.45a4.3,4.3,0,0,1-3.33,5.09A3.92,3.92,0,0,1,1266.87,332.47Z"/><path class="cls-6" d="M1445.71,324.37A4.25,4.25,0,0,1,1444,324a4.29,4.29,0,0,1-2.3-5.64l14.27-34a4.31,4.31,0,0,1,7.94,3.34l-14.27,34A4.31,4.31,0,0,1,1445.71,324.37Z"/><path class="cls-6" d="M1537.88,348.63a4.36,4.36,0,0,1-1.68-.35,4.31,4.31,0,0,1-2.28-5.65l42.31-99.15a4.31,4.31,0,0,1,7.92,3.38L1541.85,346A4.32,4.32,0,0,1,1537.88,348.63Z"/><path class="cls-6" d="M1194.94,734.8a4.36,4.36,0,0,1-2-.52,4.3,4.3,0,0,1-1.73-5.84l26-48a4.3,4.3,0,1,1,7.57,4.1l-26,48A4.31,4.31,0,0,1,1194.94,734.8Z"/><path class="cls-6" d="M1350,800.8a4.31,4.31,0,0,1-4.31-4.31v-95a4.31,4.31,0,1,1,8.61,0v95A4.31,4.31,0,0,1,1350,800.8Z"/><path class="cls-6" d="M1522,753.3a4.3,4.3,0,0,1-3.71-2.12l-31-52.5a4.31,4.31,0,1,1,7.42-4.38l31,52.5a4.31,4.31,0,0,1-3.71,6.5Z"/></svg>