<?xml version="1.0" encoding="utf-8"?>
<!-- Generator: Adobe Illustrator 24.0.3, SVG Export Plug-In . SVG Version: 6.00 Build 0)  -->
<svg version="1.1" id="_ÎÓÈ_1" xmlns="http://www.w3.org/2000/svg" xmlns:xlink="http://www.w3.org/1999/xlink" x="0px" y="0px"
	 viewBox="0 0 1975.5 1325.1" style="enable-background:new 0 0 1975.5 1325.1;" xml:space="preserve">
<style type="text/css">
	.st0{fill:#F0E6FF;}
	.st1{fill:#FFFFFF;}
	.st2{fill:#89C22E;}
	.st3{fill:#AA5FFF;}
	.st4{fill:#FF5C5C;}
	.st5{fill:#D3C5ED;}
	.st6{fill:#EC4067;}
	.st7{fill:#2A0055;}
	.st8{fill:#FFBFAA;}
	.st9{fill:#00C9B9;}
	.st10{fill:#7D4921;}
</style>
<title>bg-main</title>
<path class="st0" d="M1874.2,605.5c-0.9,0-1.7-0.5-2.2-1.3l-40.1-71.7c-2.3,1.6-5.2,2.4-8,2.1l-32.7-3.3
	c-13.3-1.4-26.3-4.4-38.8-9.1l-30.7-11.6c-2.5-0.9-4.5-2.7-5.9-4.9l-67.3,45.9c-1.1,0.8-2.7,0.5-3.5-0.7c-0.3-0.4-0.4-1-0.4-1.5
	l2.6-75.8c1.4-39.8,26.8-74.8,64.3-88.4c4.9-68.1,22.6-121.1,54-162c20.7-27.1,44.1-44.4,66.3-59.2c1.2-0.8,2.7-0.4,3.5,0.7
	c0.8,1.2,0.4,2.7-0.7,3.5c-21.8,14.5-44.8,31.5-65.1,58c-31,40.5-48.3,93.1-53,161c-0.1,1-0.7,1.9-1.7,2.2
	c-36.2,12.6-61,46.1-62.4,84.4l-2.4,70.8l65.7-44.8c1.1-0.8,2.7-0.5,3.5,0.7c0.2,0.2,0.3,0.5,0.3,0.8c0.6,2.1,2.1,3.8,4.2,4.6
	l30.8,11.6c12.1,4.6,24.7,7.5,37.5,8.8l32.7,3.3c2.4,0.2,4.7-0.8,6.2-2.7c0.5-0.7,1.3-1.1,2.2-1c0.8,0.1,1.6,0.5,2,1.3l39.2,70.2
	l29.5-64.5c16-35.3,8.4-76.7-19-104.1c-0.7-0.7-0.9-1.8-0.5-2.7c25.9-62.6,33.9-117.3,24.2-167.3c-7.4-38.1-23.9-66.5-35.9-87.1
	c-0.7-1.2-0.4-2.7,0.8-3.4c1.2-0.7,2.7-0.4,3.4,0.8c0,0.1,0.1,0.1,0.1,0.2c12.2,21,28.9,49.8,36.5,88.7c9.8,50.5,2,105.7-23.9,168.6
	c27.9,28.9,35.3,71.9,18.7,108.5l-31.5,68.9c-0.4,0.9-1.2,1.4-2.2,1.5H1874.2z"/>
<path class="st0" d="M657.6,935.6c-27.7-47.6-36.6-109,43.3-160.9c-3.2,2.1-43.2-41.5-47.1-45.8c-17-18.8-28.7-41.8-43.9-62.3
	c-25-33.7-11.9-119.6,53.5-106.4c0,0-96.5-24.6-34.5-110.7c-10.1-36.5-60.6-228.4,28.3-198.1c24.4,8.3,40.7,32.2,53.9,55.1
	c4,7,35.8,88.8,30.2,89.1c0,0,98.9-5.5,78.8,105.1c0,0,186.8,85.4,68.9,229.4c0,0,156.8,164.3,47.4,244.1
	c-35.2,25.7-69.5,38.9-99.7,45C765.8,1033.6,695.8,1001.2,657.6,935.6z"/>
<path class="st0" d="M736.8,1096.8c-7.7,11.2-27.7,9.7-39.4,11.4c-19.4,2.8-38.2,8.2-57.9,9.2c-43.4,2.2-111.2-10.8-121.5-61.8
	c-6.8-33.6,13.8-65.6,34-90.4c0,0-74.5,20.5-103.3,2c-62.1-39.8-7.3-115.3-7.3-115.3s-20.2-1-30.1-2.9c-25-4.7-47.8-26.7-53.6-51.4
	c-10.5-44.9,29.3-70.9,63.7-88.7c0,0-22-40.9-9.8-74.9s56.1-60.3,119.9-0.4c2.1,2,4.3,4.1,6.4,6.3c2.5,2.1,4.7,4.6,6.5,7.2
	c-2.9-36,44.8-58,74.9-51.4c14,3.2,26.3,11.5,34.4,23.5c9.6,14.3,10.4,32,10.3,48.6c0,1,0,2,0,2.9c0,0,138.4-36.3,159.2,115.6
	S736.8,1096.7,736.8,1096.8z"/>
<path class="st1" d="M579.7,602.8c-1.4,0-2.5-1.1-2.5-2.5c0-1,0.6-2,1.6-2.3c3-1.2,6-2.3,9.1-3.1c1.3-0.4,2.7,0.3,3.2,1.6
	c0.4,1.3-0.3,2.7-1.6,3.2c-0.1,0-0.2,0.1-0.3,0.1c-2.9,0.8-5.8,1.8-8.5,2.9C580.3,602.8,580,602.8,579.7,602.8z"/>
<path class="st1" d="M799.3,719.2c-0.8,0-1.6-0.4-2.1-1.1c-18.6-28.1-46.5-44.2-82.8-47.9c-16.6-1.7-33.4-0.7-49.6,2.9
	c-1.3,0.4-2.7-0.4-3-1.8c-0.1-0.2-0.1-0.4-0.1-0.7c0-1,0-2,0-2.9c0-16.4-0.7-33.5-9.9-47.2c-7.7-11.4-19.4-19.4-32.9-22.4
	c-8.7-1.9-19.2-1.3-29.7,1.6c-1.3,0.5-2.7-0.1-3.2-1.4c-0.5-1.3,0.1-2.7,1.4-3.2c0.2-0.1,0.3-0.1,0.5-0.1
	c11.2-3.2,22.6-3.7,32.1-1.7c14.7,3.3,27.5,12.1,35.9,24.5c10,14.8,10.8,32.7,10.8,49.8c15.8-3.2,32-4,48.1-2.4
	c26.1,2.6,62.4,13.5,86.6,50.2c0.8,1.2,0.4,2.7-0.7,3.5C800.2,719.1,799.8,719.2,799.3,719.2z"/>
<path class="st0" d="M854.2,1195.7c-2.4,28.3-11.2,56.2-26.5,80.1c-9.8,15.2-3.3,24.7-18.8,35.5c-5.8,3.8-11.9,7.1-18.3,9.7H672.1
	c-14.6-12.4-24.6-30.8-29.2-52.8c0,0-69.4,27.4-79.2-44l-34.3-3.5c-44-4.6-72-50.2-55-91.1c0.2-0.6,0.5-1.2,0.8-1.8
	c14.8-33,52-49.5,86.3-38.3l46.8,15.2c0,0-38.8-44.9-16.5-81.1c3.7-5.9,8.5-11.1,14.2-15.3c36.5-27.9,70.6,15.7,85.5,39.4
	c5,8,7.9,13.8,7.9,13.8c0-4.6,0.4-9.3,1.3-13.8c3.2-16.5,14.1-41.6,50.1-38c5.9,0.6,11.7,1.8,17.4,3.5c3.9,1.1,7.7,2.7,11.3,4.6
	c2.6,1.4,5.1,2.9,7.6,4.6c30.2,21.2,48.7,67.3,58.6,98.1C853.6,1144.7,856.4,1170.3,854.2,1195.7z"/>
<path class="st1" d="M790.6,1323.5H672.1c-0.6,0-1.2-0.2-1.6-0.6c-14.3-12.2-24.4-29.9-29.4-51.4c-8.4,2.8-34,9.5-54.5-2.4
	c-13.4-7.8-21.8-22.2-25-42.6l-32.4-3.4c-21.9-2.2-41.5-14.7-52.6-33.7c-11.1-18.4-12.8-41-4.5-60.9c0.2-0.6,0.5-1.2,0.8-1.8
	c15.3-34.1,53.8-51.2,89.4-39.7l39.2,12.7c-4.7-6.6-8.7-13.7-12-21.1c-9.4-21.4-9.3-40.9,0.3-56.5c3.9-6.2,8.9-11.6,14.8-15.9
	c10.4-8,21.5-11,33-8.9c25,4.5,45.9,32.6,56.1,48.9c1.4,2.3,2.7,4.4,3.8,6.2c0.2-1.7,0.5-3.5,0.9-5.5c3.2-16.6,14.4-43.8,52.8-40
	c6.1,0.7,12,1.9,17.9,3.6c4.1,1.2,8,2.8,11.7,4.8c2.7,1.4,5.3,3,7.8,4.8c23.6,16.6,43.7,50,59.6,99.4c7.8,24.6,10.7,50.5,8.5,76.3
	l0,0c-2.6,29.7-11.9,57.8-26.9,81.2c-3.8,5.8-5,10.7-6.1,15.5c-1.8,7.1-3.4,13.8-13.3,20.7c-5.9,3.9-12.2,7.3-18.8,10
	C791.3,1323.4,790.9,1323.5,790.6,1323.5z M673.1,1318.5h117c6.1-2.5,11.9-5.7,17.4-9.3c8.4-5.9,9.7-11.1,11.3-17.8
	c1.2-4.9,2.6-10.4,6.8-17c14.6-22.8,23.6-50,26.1-78.9c2.2-25.1-0.6-50.3-8.3-74.3c-15.6-48.3-35-80.9-57.7-96.8
	c-2.3-1.6-4.8-3.1-7.3-4.5c-3.4-1.8-7.1-3.3-10.8-4.4c-5.6-1.6-11.2-2.8-17-3.4c-32.8-3.2-43.9,17.8-47.4,36
	c-0.9,4.4-1.3,8.8-1.3,13.3c0,1.2-0.8,2.2-1.9,2.5c-1.1,0.3-2.3-0.3-2.8-1.3c0-0.1-2.8-5.8-7.7-13.5c-9.8-15.6-29.7-42.5-52.8-46.7
	c-10-1.8-19.8,0.9-29,7.9c-5.4,4-10,8.9-13.6,14.6c-21.1,34.2,15.9,77.8,16.3,78.2c0.9,1.1,0.8,2.6-0.3,3.5
	c-0.7,0.6-1.6,0.7-2.4,0.5l-46.8-15.2c-33.1-10.8-69.1,5.2-83.3,37c-0.3,0.6-0.5,1.2-0.8,1.7c-7.7,18.4-6.2,39.3,4.1,56.4
	c10.4,17.6,28.5,29.2,48.8,31.3l34.3,3.6c1.1,0.1,2.1,1,2.2,2.2c2.7,19.8,10.4,33.6,22.8,40.9c22.2,13,52.6,1.2,52.9,1.1
	c1.3-0.5,2.7,0.1,3.3,1.4c0.1,0.1,0.1,0.3,0.1,0.4C649.8,1288.9,659.4,1306.5,673.1,1318.5L673.1,1318.5z M854.1,1195.7
	L854.1,1195.7z"/>
<path class="st1" d="M760.5,609.5c-1,0-2-0.7-2.3-1.6L622.9,238.1c-0.5-1.3,0.2-2.7,1.5-3.2c1.3-0.5,2.7,0.2,3.2,1.5l135.3,369.7
	c0.5,1.3-0.2,2.7-1.5,3.2c0,0,0,0,0,0C761.1,609.4,760.8,609.5,760.5,609.5z"/>
<path class="st1" d="M728.7,534.9c-0.6,0-1.2-0.2-1.7-0.6c-1-0.9-1.1-2.5-0.2-3.5c0,0,0,0,0,0l99.1-112c0.9-1,2.5-1.1,3.5-0.2
	c1,0.9,1.1,2.5,0.2,3.5l-99.1,112C730.1,534.6,729.4,534.9,728.7,534.9z"/>
<path class="st1" d="M716.7,500.8h-0.1l-108-4.4c-1.4-0.1-2.5-1.2-2.4-2.6c0.1-1.4,1.2-2.4,2.6-2.4l108,4.4c1.4,0,2.5,1.2,2.5,2.5
	S718.1,500.8,716.7,500.8L716.7,500.8L716.7,500.8z"/>
<path class="st1" d="M742.4,1001.7c-0.7,0-1.5-0.3-1.9-0.9l-289.2-351c-0.9-1.1-0.7-2.6,0.3-3.5c1.1-0.9,2.6-0.7,3.5,0.3l0,0
	l289.2,351c0.9,1.1,0.7,2.6-0.3,3.5C743.5,1001.5,742.9,1001.7,742.4,1001.7L742.4,1001.7z"/>
<path class="st1" d="M564.7,786.1c-0.2,0-0.3,0-0.5-0.1c-1.4-0.3-2.2-1.6-1.9-3c0,0,0,0,0,0L586,669c0.3-1.4,1.6-2.2,3-1.9
	s2.2,1.6,2,2.9l-23.8,114.1C566.9,785.3,565.9,786.1,564.7,786.1z"/>
<path class="st1" d="M854.2,1198.2h-0.3l-382.3-52.7c-1.4-0.2-2.3-1.5-2.2-2.8c0.2-1.4,1.5-2.3,2.8-2.2l382.3,52.7
	c1.4,0.1,2.4,1.3,2.3,2.7C856.7,1197.2,855.5,1198.3,854.2,1198.2L854.2,1198.2z"/>
<path class="st1" d="M686.1,1175c-1,0-2-0.6-2.3-1.6l-48.4-122.6c-0.5-1.3,0.1-2.7,1.4-3.2s2.7,0.1,3.2,1.4l48.4,122.6
	c0.5,1.3-0.1,2.7-1.4,3.2c0,0,0,0,0,0C686.8,1175,686.5,1175,686.1,1175z"/>
<path class="st0" d="M1009.6,862.9c0,0-236.1-228.2,51.9-259.9c0,0-92.3-161.2,63.9-170.8c0,0-5-165.6,135.8-92.4
	c0,0,14-41.1,54.2-54.5c53.9-18,132.4,4.4,72.4,152.9c0,0,109.3-0.6,87.5,80.1c-5.1,19-24.3,40.1-53.5,57.5c0,0,53.6,12.2,71,43
	c23.3,41.4,16.7,129.1-113.8,181.6C1213.7,866.8,1009.6,862.9,1009.6,862.9z"/>
<path class="st0" d="M1579.9,1244.2c-1.3,11.6-10.9,20.8-21.7,25.1s-22.7,4.5-34.4,4.7c11.2,3.2,18.4,15.5,17.6,27.1
	c0,0.1,0,0.2,0,0.2c-1,12.1-11.1,21.3-23.2,21.2h-211.8c-25-17.3,55.2-43.8,54.3-75.2c-0.2-5.8,0.3-11.6,1.3-17.2
	c1.5-8.2,4-16.2,7.6-23.8c6.2-13-5.8-29.6-6.8-42.7c-0.6-8.3,2.1-15.1,8.9-20c4.6-3.3,9.7-5.8,15.2-7.2c6.1-1.6,14.4,0.5,19.9-1.6
	c5.1-1.9,5-8.4,6.8-12.7c2.3-5.8,6.3-10.7,11.4-14.1c9.4-6,5.6-35.5,15.7-30.8c5.8-11.6-27.2,11.2,31.9-7.7
	c115.3-36.9,110.4,76,81.6,115c-4.3,5.8-20,25.7-27.4,26.9c11.9-2,24.6-1.8,35.4,3.7S1581.3,1232.2,1579.9,1244.2z"/>
<path class="st1" d="M1518.3,1325.1h-211.8c-0.5,0-1-0.2-1.4-0.4c-3.8-2.7-5.8-5.8-5.9-9.3c-0.2-8.8,11.7-17.8,25.4-28.1
	c16-12.1,34.1-25.8,33.7-39.8c-0.2-6,0.3-11.9,1.3-17.8c1.5-8.4,4.1-16.6,7.8-24.4c3.4-7.3,0.3-16.4-2.8-25.2
	c-1.9-5.4-3.8-11.1-4.2-16.3c-0.7-9.5,2.7-17,9.9-22.2c4.8-3.5,10.3-6.1,16.1-7.6c3.3-0.7,6.8-0.9,10.2-0.7c3.6,0.1,7,0.1,9.5-0.8
	c2.3-0.8,3-3.2,4-7c0.3-1.5,0.8-3,1.4-4.4c2.5-6.2,6.8-11.5,12.4-15.2c3.4-2.2,4.9-9.6,6.1-16.1c1.1-5.6,2-10.6,4.3-13.3
	c-0.1-1.3,0.6-2.6,1.6-3.4c1.5-1.3,4.6-2.7,6.8-1c0.8,0.6,1.3,1.5,1.3,2.5c4.7-0.7,13-2.6,28-7.4c53.4-17.1,78.4-1.5,89.9,14.6
	c21.8,30.4,11.5,81.2-5.5,104.2c-1.4,1.9-10.6,14.2-19.2,21.8c10-0.4,18.8,1.3,26.2,5.1c12.5,6.4,20.3,19.4,18.9,31.7l0,0
	c-1.3,11.4-10.4,22-23.3,27.1c-8.3,3.3-17.3,4.3-25.9,4.7c7.3,6.2,11.3,15.4,10.7,25v0.3C1542.9,1314.8,1531.7,1325.1,1518.3,1325.1
	z M1307.3,1320.1h211c10.8,0.1,19.8-8.2,20.7-18.9v-0.2c0.7-11-6.2-21.8-15.8-24.5c-1.3-0.4-2.1-1.8-1.7-3.1
	c0.3-1.1,1.3-1.8,2.4-1.8c11.3-0.2,23-0.4,33.5-4.6c11.2-4.4,19.1-13.5,20.2-23l0,0c1.2-10.2-5.5-21.2-16.2-26.6
	c-9-4.6-20.3-5.8-33.8-3.5l0,0c-1.4,0.2-2.7-0.7-2.9-2s0.7-2.7,2-2.9c5.3-0.9,18.3-15.7,25.8-25.9c15.7-21.3,25.7-70.2,5.5-98.4
	c-15.2-21.2-44.4-25.6-84.3-12.8c-22.3,7.2-31.5,8.4-35.5,7.9c-1.4,1.7-2.4,7-3.2,11c-1.5,7.9-3.1,16-8.3,19.4
	c-4.7,3.2-8.4,7.7-10.5,13c-0.5,1.2-0.8,2.4-1.1,3.7c-1,3.8-2.2,8.6-7.1,10.4c-3.4,1.2-7.4,1.2-11.3,1.1c-3-0.2-5.9,0-8.9,0.5
	c-5.2,1.4-10,3.7-14.4,6.8c-5.8,4.2-8.4,10.1-7.9,17.8c0.3,4.5,2.1,9.6,4,15c3.4,9.8,6.9,19.9,2.6,29c-3.5,7.4-6,15.1-7.4,23.2
	c-1,5.5-1.4,11.1-1.3,16.7c0.5,16.6-18.7,31.1-35.7,43.9c-11.6,8.8-23.6,17.8-23.4,24C1304.2,1316.9,1305.2,1318.5,1307.3,1320.1
	L1307.3,1320.1z"/>
<path class="st0" d="M1367.4,1322.6H952c-36-161.5,252.3-399.3,252.3-399.3c-14.3-161,127.9-130.5,127.9-130.5
	c-8.2-1.7,48.8-110.1,55.5-119c22.2-29.5,49-59.4,85.3-65.5c132.5-22.3,33.9,237.3,14.5,286.7c78,136-64.7,148.5-64.7,148.5
	C1566.9,1176.5,1429.9,1283.9,1367.4,1322.6z"/>
<path class="st1" d="M1367.4,1325.1H952c-1.2,0-2.2-0.8-2.4-2c-8.3-37.4-0.1-81.9,24.4-132.2c19.5-40,49.4-83.8,88.8-130.2
	c62.6-73.8,130-131,139-138.6c-4.3-50.6,6.4-87.6,31.9-110.1c33.6-29.7,81.7-24.6,95.4-22.4c0.7-5.3,5.2-18.9,24.7-58
	c14-28.2,28.7-55.1,32-59.4c22.1-29.4,49.7-60.2,86.9-66.5c24.8-4.2,43.5,1.1,55.4,15.8c19.3,23.9,20.6,72.2,3.8,143.7
	c-12.2,51.7-31.1,102.9-41.5,129.5c24.2,42.5,29.4,77.6,15.5,104.2c-18,34.4-61.9,44-77.3,46.3c44,42,64.2,85.2,60,128.4
	c-6.9,71.3-77.9,125.3-119.6,151C1368.4,1324.9,1367.9,1325,1367.4,1325.1z M954.1,1320.1h412.7c41-25.4,110-78,116.7-146.9
	c4.1-42.9-16.8-85.9-62.3-127.9c-1-0.9-1.1-2.5-0.1-3.5c0.4-0.4,1-0.7,1.6-0.8c0.6,0,58.5-5.6,78.7-44.3c13.2-25.2,7.8-59-16-100.4
	c-0.4-0.7-0.4-1.5-0.2-2.2c19.8-50.1,81-217.4,39-269.3c-10.7-13.2-27.7-17.9-50.6-14c-35.5,6-62.2,36-83.7,64.6
	c-3,4-17.6,30.8-31.1,57.9c-18.4,36.8-24.8,54-24.7,57.8c0.7,0.6,1,1.5,0.8,2.4c-0.3,1.4-1.6,2.2-3,1.9c0,0,0,0,0,0l0,0
	c-1-0.2-58.2-11.8-94.8,20.6c-24.4,21.6-34.5,57.7-30.1,107.2c0.1,0.8-0.3,1.6-0.9,2.2c-0.7,0.6-72.7,60.2-139.4,138.8
	c-39.1,46.1-68.7,89.5-88.1,129.1C954.9,1241.5,946.7,1284.2,954.1,1320.1z M1332.8,790.3L1332.8,790.3z"/>
<path class="st1" d="M1229.5,1218.7c-0.4,0-0.7-0.1-1.1-0.2c-1.2-0.6-1.8-2.1-1.2-3.3c0,0,0,0,0,0l285.3-602.9
	c0.6-1.2,2.1-1.8,3.3-1.2c1.2,0.6,1.8,2.1,1.2,3.3l-285.3,602.9C1231.3,1218.2,1230.5,1218.7,1229.5,1218.7z"/>
<path class="st1" d="M1402.9,1158.9c-0.3,0-0.5,0-0.7-0.1l-127.1-38.9c-1.3-0.4-2.1-1.7-1.7-3.1s1.7-2.1,3.1-1.7c0,0,0.1,0,0.1,0
	l127.1,38.9c1.3,0.4,2.1,1.8,1.7,3.1C1404.9,1158.2,1404,1158.9,1402.9,1158.9z"/>
<path class="st1" d="M1326.9,1010.8c-1.1,0-2.1-0.8-2.4-1.8l-28-109.3c-0.3-1.3,0.6-2.7,1.9-3c1.3-0.3,2.6,0.5,2.9,1.7l28,109.3
	c0.3,1.3-0.5,2.6-1.8,3C1327.3,1010.7,1327.1,1010.7,1326.9,1010.8z"/>
<path class="st1" d="M1245,651.8c-0.3,0-0.5,0-0.8-0.1c-1.3-0.4-2-1.8-1.6-3.1l117.2-367.9c0.4-1.3,1.7-2.1,3.1-1.8
	c1.3,0.4,2.1,1.7,1.8,3.1c0,0.1,0,0.2-0.1,0.2l-117.2,367.9C1247,651.1,1246,651.8,1245,651.8z"/>
<path class="st1" d="M1559.4,348c-0.5,0-1-0.2-1.4-0.4L1404,241c-1.2-0.7-1.5-2.3-0.8-3.4c0.7-1.2,2.3-1.5,3.4-0.8
	c0.1,0,0.1,0.1,0.2,0.1l154.1,106.6c1.1,0.8,1.4,2.3,0.6,3.5C1561.1,347.6,1560.3,348,1559.4,348L1559.4,348z"/>
<path class="st1" d="M517.4,911.1c-1.4,0.1-2.6-1-2.6-2.4s1-2.6,2.4-2.6L656.7,893c1.4-0.1,2.6,0.9,2.7,2.3c0.1,1.4-0.9,2.6-2.2,2.7
	c0,0,0,0,0,0l-139.5,13.1L517.4,911.1z"/>
<path class="st1" d="M692.9,941.7c-0.1,0-0.2,0-0.4,0c-1.3-0.2-2.3-1.5-2.1-2.8l27.6-181.3c0.2-1.4,1.4-2.4,2.8-2.2s2.4,1.4,2.2,2.8
	c0,0.1,0,0.1,0,0.2l-27.6,181.3C695.2,940.8,694.2,941.7,692.9,941.7z"/>
<path class="st1" d="M1288.4,517.4c-1.4,0.1-2.6-1-2.6-2.4s1-2.6,2.4-2.6l185.7-19.4c1.4-0.1,2.6,0.9,2.8,2.2s-0.9,2.6-2.2,2.8
	l-185.7,19.4L1288.4,517.4z"/>
<path class="st0" d="M1591.9,877.4c-0.9,0-1.8-0.5-2.2-1.3l-6.4-11.7l-11.7-6.4c-1.2-0.7-1.7-2.2-1-3.4c0.2-0.4,0.6-0.8,1-1
	l11.7-6.4l6.4-11.7c0.4-0.8,1.3-1.3,2.2-1.3l0,0c0.9,0,1.8,0.5,2.2,1.3l6.4,11.7l11.8,6.4c1.2,0.7,1.7,2.2,1,3.4
	c-0.2,0.4-0.6,0.8-1,1l-11.8,6.4l-6.4,11.7C1593.6,876.9,1592.8,877.4,1591.9,877.4z M1577.9,855.8l8.4,4.6c0.4,0.2,0.8,0.6,1,1
	l4.6,8.4l4.6-8.4c0.2-0.4,0.6-0.8,1-1l8.4-4.6l-8.4-4.6c-0.4-0.2-0.8-0.6-1-1l-4.6-8.4l-4.6,8.4c-0.2,0.4-0.6,0.8-1,1L1577.9,855.8z
	"/>
<path class="st2" d="M842.5,721.4l-12.9,6.4c-74.9,37.3-115.5,120.1-99.1,202.2l29,144.8L893,929L842.5,721.4z"/>
<path class="st1" d="M772.7,1023.7c-2.2,0-3.9-1.7-4-3.9l-3.5-103.1c-2.8-85.4,51.9-162.1,133.6-187.2l13.7-4.2
	c2.1-0.6,4.3,0.5,5,2.7c0.1,0.3,0.1,0.6,0.2,0.9l11,146.7c0.2,2.2-1.5,4.1-3.7,4.3c-2.2,0.2-4.1-1.5-4.3-3.7L910,734.4l-8.9,2.7
	c-78.2,24.1-130.6,97.6-127.9,179.3l3.5,103.1c0.1,2.2-1.7,4.1-3.9,4.1H772.7z"/>
<path class="st2" d="M1131.3,721.4l12.9,6.4c74.9,37.3,115.5,120.1,99.1,202.2l-29,144.8L1080.8,929L1131.3,721.4z"/>
<path class="st1" d="M1198.7,1045.9h-0.2c-2.2-0.1-3.9-1.9-3.9-4.1l4.2-125.3c2.6-81.8-49.7-155.2-127.9-179.3l-8.9-2.7l-12.5,167.2
	c-0.2,2.2-2.1,3.9-4.3,3.7c-2.2-0.2-3.9-2.1-3.7-4.3l12.9-172.2c0.2-2.2,2.1-3.9,4.3-3.7c0.3,0,0.6,0.1,0.9,0.2l13.7,4.2
	c81.6,25.2,136.3,101.9,133.6,187.2l-4.2,125.3C1202.5,1044.2,1200.8,1045.9,1198.7,1045.9z"/>
<polygon class="st3" points="918,960.4 820.4,1208.9 1146.5,1208.9 1037.1,894.5 "/>
<circle class="st3" cx="889.6" cy="1192.8" r="89.5"/>
<path class="st3" d="M1156.3,1242.3c0,29.8-12,58.3-33.4,79H969.5c-43.6-42.4-44.6-112.1-2.2-155.7c42.4-43.6,112.1-44.6,155.7-2.2
	C1144.2,1184.1,1156.3,1212.5,1156.3,1242.3z"/>
<path class="st1" d="M1122.7,1214.3c0,0.6,0,1.1,0,1.7c-0.6-0.7-1.3-1.4-1.9-2.1c-23.6-24.6-62.7-25.5-87.4-1.8
	c-11.8,11.3-18.6,26.8-19,43.1c-22.5-25.7-20-64.7,5.7-87.3c25.7-22.5,64.7-20,87.3,5.7C1117.2,1184.8,1122.7,1199.3,1122.7,1214.3
	L1122.7,1214.3z"/>
<path class="st4" d="M1031.9,1051.8c0,56.4-45.9,102.1-45.9,102.1s-45.9-45.7-45.9-102.1s20.5-102.1,45.9-102.1
	S1031.9,995.4,1031.9,1051.8z"/>
<path class="st3" d="M710.7,1315.3c0,2-0.1,4-0.2,5.9H548.4c-0.1-2-0.2-3.9-0.2-5.9c-0.5-44.9,35.5-81.7,80.4-82.2
	c44.9-0.5,81.7,35.5,82.2,80.4C710.7,1314.1,710.7,1314.7,710.7,1315.3L710.7,1315.3z"/>
<path class="st3" d="M1443.5,1321.2h-108.4c3.3-29.9,30.3-51.5,60.3-48.2C1420.7,1275.9,1440.7,1295.9,1443.5,1321.2z"/>
<circle class="st5" cx="571.8" cy="1091.7" r="27.7"/>
<circle class="st5" cx="1419.8" cy="984.4" r="27.7"/>
<circle class="st5" cx="1361.8" cy="1143.4" r="38.4"/>
<circle class="st5" cx="1273.1" cy="1008.7" r="16.9"/>
<circle class="st5" cx="694" cy="1118.6" r="16.9"/>
<circle class="st5" cx="596.9" cy="944.4" r="27.7"/>
<path class="st3" d="M1012.7,1293.4c0,9.4-1.5,18.8-4.4,27.8H838.1c-15.4-47,10.2-97.5,57.2-112.9c9-2.9,18.4-4.4,27.9-4.4
	c6.4,0,12.8,0.7,19.1,2C983.4,1214.9,1012.7,1251.3,1012.7,1293.4L1012.7,1293.4z"/>
<path class="st1" d="M1361.1,1321.2h-141.7c0-39.1,31.7-70.8,70.8-70.8c0,0,0,0,0,0c0.8,0,1.7,0,2.5,0
	C1330.9,1251.7,1361.1,1283,1361.1,1321.2L1361.1,1321.2z"/>
<path class="st3" d="M1293.2,1259.8c0,21.9-6.5,43.3-18.7,61.4h-182.7c-34-50.4-20.6-118.8,29.8-152.8
	c50.4-34,118.8-20.6,152.8,29.8c10.5,15.6,16.8,33.5,18.4,52.2C1293,1253.5,1293.2,1256.6,1293.2,1259.8z"/>
<path class="st1" d="M894.4,1274.7c0,2.5-0.1,4.9-0.2,7.3c-0.8,13.5-4,26.8-9.5,39.2H672c-6.4-14.7-9.7-30.5-9.7-46.5
	c-0.1-36.7,17.3-71.3,46.8-93.2c27.7-20.6,63-27.8,96.6-19.7l0,0C857.7,1174.5,894.4,1221.1,894.4,1274.7L894.4,1274.7z"/>
<path class="st3" d="M815.3,1297.4c0,2.5-0.1,4.9-0.2,7.3c-0.3,5.6-1.1,11.1-2.2,16.6H670c-6.4-14.7-9.7-30.5-9.7-46.5
	c-0.1-36.7,17.3-71.3,46.8-93.2c6.5,0.4,13,1.4,19.4,3l0,0C778.6,1197.2,815.3,1243.8,815.3,1297.4L815.3,1297.4z"/>
<path class="st6" d="M1062.7,1085.1c0,94.2-76.6,170.6-76.6,170.6s-76.6-76.4-76.6-170.6s34.3-170.6,76.6-170.6
	S1062.7,990.8,1062.7,1085.1z"/>
<path class="st1" d="M1031.9,1051.8c0,56.4-45.9,102.1-45.9,102.1s-45.9-45.7-45.9-102.1s20.5-102.1,45.9-102.1
	S1031.9,995.4,1031.9,1051.8z"/>
<path class="st1" d="M1246.9,1253.8c0,19.4-10.4,37.2-27.3,46.8c11.6-27.3-1.1-58.8-28.4-70.4c-15.3-6.5-32.8-5.6-47.4,2.6
	c11.6-27.3,43.2-39.9,70.4-28.3C1234,1212.9,1246.9,1232.3,1246.9,1253.8L1246.9,1253.8z"/>
<path class="st1" d="M1080.8,933c-0.4,0-0.8-0.1-1.2-0.2c-2.1-0.6-3.3-2.9-2.7-5c0,0,0,0,0,0l16.8-55.3c0.6-2.1,2.9-3.3,5-2.7
	s3.3,2.9,2.7,5l-16.8,55.3C1084.1,931.8,1082.6,933,1080.8,933z"/>
<path class="st6" d="M1268.5,450.8c0-157.5-128.7-284.9-286.7-282.7c-154.9,2.1-280.2,130.6-278.6,285.5
	c0.4,53.5,16.1,105.8,45.2,150.7c57.5,88.7,110.6,101.2,110.6,296.6v14h253.8v-19.2c0-196,55.9-204.7,112.4-294.4
	C1253.5,556.3,1268.6,504.1,1268.5,450.8z"/>
<path class="st1" d="M863.5,455.7c-2.2,0-4-1.7-4-4c0-1.2,0.5-2.3,1.4-3c4.7-5.8,57.2-90.3,91.6-146.2c1.2-1.9,3.6-2.5,5.5-1.3
	c1.9,1.2,2.5,3.6,1.3,5.5c-0.2,0.4-22.8,37-45.4,73.3c-13.3,21.3-23.9,38.3-31.7,50.5c-15.3,24.2-15.6,24.3-17.4,24.9
	C864.4,455.6,863.9,455.7,863.5,455.7z"/>
<path class="st1" d="M952.7,455.7c-2.2,0-4-1.7-4-4c0-1.2,0.5-2.3,1.4-3c4.7-5.8,57.2-90.3,91.6-146.2c1.2-1.9,3.6-2.5,5.5-1.3
	c1.9,1.2,2.5,3.6,1.3,5.5c-0.2,0.4-22.8,37-45.4,73.3c-13.3,21.3-23.9,38.3-31.7,50.5c-15.3,24.2-15.6,24.3-17.4,24.9
	C953.6,455.6,953.2,455.7,952.7,455.7z M951.5,447.9L951.5,447.9z"/>
<path class="st1" d="M1042,455.7c-2.2,0-4-1.8-4-4c0-1.2,0.5-2.3,1.4-3c4.7-5.8,57.2-90.3,91.6-146.2c1.2-1.9,3.6-2.5,5.5-1.3
	c1.9,1.2,2.5,3.6,1.3,5.5c-0.2,0.4-22.8,37-45.4,73.3c-13.3,21.3-23.9,38.3-31.7,50.5c-15.3,24.2-15.6,24.3-17.4,24.9
	C1042.9,455.6,1042.4,455.7,1042,455.7z M1040.7,447.9L1040.7,447.9z"/>
<path class="st1" d="M935.3,866.6c-1.9,0-3.5-1.3-3.9-3.1l-71.8-319.1c-0.6-2.1,0.7-4.3,2.9-4.9c2.1-0.6,4.3,0.7,4.9,2.9
	c0,0.1,0,0.2,0.1,0.2l71.8,319.1c0.5,2.1-0.9,4.3-3,4.8C935.9,866.6,935.6,866.6,935.3,866.6z"/>
<path class="st1" d="M1031,886.8c-0.3,0-0.6,0-0.9-0.1c-2.1-0.5-3.5-2.6-3-4.8l76.9-341.3c0.4-2.2,2.5-3.6,4.7-3.2
	c2.2,0.4,3.6,2.5,3.2,4.7c0,0.1,0,0.2-0.1,0.2l-76.9,341.3C1034.5,885.5,1032.9,886.8,1031,886.8z"/>
<path class="st7" d="M1037.4,1046.2H934.3c-20.6,0-37.4-16.7-37.4-37.4c0,0,0,0,0,0l0,0c0-20.6,16.7-37.4,37.4-37.4l0,0h103.2
	c20.6,0,37.4,16.7,37.4,37.4c0,0,0,0,0,0l0,0C1074.8,1029.5,1058.1,1046.2,1037.4,1046.2C1037.4,1046.2,1037.4,1046.2,1037.4,1046.2
	z"/>
<path class="st7" d="M1108.9,928.8H862.8c-20.7,0-37.4-16.7-37.4-37.4l0,0l0,0c0-20.7,16.7-37.4,37.4-37.4h246.2
	c20.6,0,37.4,16.7,37.4,37.4c0,0,0,0,0,0l0,0C1146.3,912.1,1129.6,928.8,1108.9,928.8C1108.9,928.8,1108.9,928.8,1108.9,928.8z"/>
<path class="st7" d="M1108.9,1003.7H862.8c-20.7,0-37.4-16.7-37.4-37.4l0,0c0-20.7,16.7-37.4,37.4-37.4l0,0h246.2
	c20.6,0,37.4,16.7,37.4,37.4c0,0,0,0,0,0l0,0C1146.3,986.9,1129.6,1003.7,1108.9,1003.7L1108.9,1003.7z"/>
<path class="st1" d="M940,931.5h-86.5c-2.2,0-4-1.8-4-4s1.8-4,4-4H940c2.2,0,4,1.8,4,4S942.2,931.5,940,931.5L940,931.5z"/>
<path class="st1" d="M1074.8,1007.7H897.2c-2.2,0-4-1.8-4-4s1.8-4,4-4h177.6c2.2,0,4,1.8,4,4S1077,1007.7,1074.8,1007.7z"/>
<path class="st1" d="M1112,931.5h-37c-2.2,0-4-1.8-4-4s1.8-4,4-4h37c2.2,0,4,1.8,4,4S1114.2,931.5,1112,931.5z"/>
<polygon class="st8" points="508.4,1246.9 508.4,1276.8 543.9,1276.8 543.9,1244.6 "/>
<polygon class="st6" points="560.9,1319.2 504.1,1319.2 506.1,1266.9 548.8,1266.9 560.9,1299 "/>
<polygon class="st8" points="437.3,1257.3 436.4,1278.8 400.8,1279.1 401.7,1255.3 "/>
<polygon class="st6" points="365.4,1319.2 439.5,1319.2 440.5,1260.7 397.7,1261.1 365.2,1299 "/>
<path class="st7" d="M365.3,1309.9c-1.4,0-2.5-1.1-2.5-2.5c0-1.4,1.1-2.5,2.5-2.5l44-1.5c1.4,0,2.5,1,2.6,2.4c0,1.4-1,2.5-2.4,2.6
	L365.3,1309.9L365.3,1309.9z"/>
<path class="st7" d="M410.2,1308.4c-1.4,0-2.5-1.1-2.5-2.5c0-0.5,0.1-0.9,0.4-1.4l13-20H439c1.4,0,2.5,1.1,2.5,2.5s-1.1,2.5-2.5,2.5
	h-15.2l-11.5,17.8C411.8,1308,411,1308.4,410.2,1308.4z"/>
<polygon class="st7" points="393.8,1268.3 448.2,1268.3 500,1007 437.9,1007 "/>
<polygon class="st7" points="502.1,1268.3 556.6,1268.3 551.1,1007 489,1007 "/>
<path class="st2" d="M556.6,1252.3h-54.4c-1.4,0-2.5-1.1-2.5-2.5s1.1-2.5,2.5-2.5h54.4c1.4,0,2.5,1.1,2.5,2.5
	S558,1252.3,556.6,1252.3z"/>
<path class="st2" d="M452.1,1252.3h-55c-1.4,0-2.5-1.1-2.5-2.5s1.1-2.5,2.5-2.5h55c1.4,0,2.5,1.1,2.5,2.5S453.4,1252.3,452.1,1252.3
	z"/>
<polygon class="st8" points="436.8,1011.9 467.8,937.5 479.6,898.8 432.6,890 422,926.2 406,1012.3 "/>
<polygon class="st7" points="511.2,1075.2 463.8,1075.2 458.1,1040.5 524.2,1040.5 "/>
<path class="st7" d="M560.9,1308.4h-44.2l-6.3-22.2h-6.3c-1.4,0-2.5-1.1-2.5-2.5s1.1-2.5,2.5-2.5h10.1l6.3,22.2h40.4
	c1.4,0,2.5,1.1,2.5,2.5S562.3,1308.4,560.9,1308.4z"/>
<path class="st7" d="M541,1292c-1.4,0-2.5-1.1-2.5-2.5c0-1.4,1.1-2.5,2.5-2.5l15.6-0.3c1.4,0,2.5,1,2.5,2.4c0,0,0,0,0,0
	c0,1.4-1.1,2.5-2.4,2.6c0,0,0,0,0,0L541,1292L541,1292z"/>
<path class="st7" d="M381.5,1289.7c-1.4,0-2.5-1.1-2.5-2.5c0-1.4,1.1-2.5,2.5-2.5l15.6-0.3c1.4,0,2.5,1.1,2.5,2.5
	c0,1.4-1.1,2.5-2.5,2.5L381.5,1289.7L381.5,1289.7z"/>
<path class="st8" d="M436.8,1011.9v17.5c-0.3,2.6-2.5,4.6-5.2,4.6H430l-4.8,13.3c-1.2,3.3-4.3,5.5-7.8,5.5h-11.3
	c-3.8,0-6.8-3.1-6.8-6.8c0-0.3,0-0.7,0.1-1l4.1-24.4l2.5-8.2L436.8,1011.9z"/>
<path class="st7" d="M430,1036.5c-1.1,0-2-0.7-2.3-1.7l-1-2.7c-1.8-0.2-3.5-1.1-4.8-2.4c-2-2.2-2.5-5.3-1.8-9.4c0.3-1.4,1.6-2.2,3-2
	c1.4,0.3,2.2,1.6,2,3c-0.5,2.4-0.3,4.2,0.5,5.1c0.7,0.6,1.7,0.9,2.6,0.9l2-0.2l2.2,6.1c0.5,1.3-0.2,2.7-1.5,3.2
	C430.5,1036.5,430.3,1036.5,430,1036.5z"/>
<path class="st2" d="M437.4,1020.7l113.2,0.1l12.7-135.3c0.7-9.3-4.5-17.8-12.6-20.4l-54.6-17.6l-54.6,17.6
	c-8,2.6-13.3,11.1-12.6,20.4L437.4,1020.7z"/>
<path class="st8" d="M477.2,855.9L477.2,855.9c8.5,12.7,25.3,14,35.3,2.7l2.4-2.7v-49.5h-37.8V855.9z"/>
<path class="st1" d="M496,868.9c-0.5,0-1.1,0-1.6-0.1c-7.8-0.6-14.9-4.9-19.2-11.5c-0.8-1.1-0.5-2.7,0.7-3.5
	c1.1-0.8,2.7-0.5,3.5,0.7c3.4,5.3,9.1,8.8,15.4,9.3c6.1,0.3,12-2.2,16-6.8l2.4-2.7c0.9-1,2.5-1.1,3.5-0.2c1,0.9,1.1,2.5,0.2,3.5
	l-2.4,2.7C509.8,865.7,503.1,868.8,496,868.9z"/>
<path class="st8" d="M513.6,837.2H478c-3.5,0-6.4-2.9-6.4-6.4v-47.1l0,0h42l0,0L513.6,837.2L513.6,837.2z"/>
<path class="st7" d="M433.6,948.4c-1.3,0-2.4-1-2.5-2.3l-3.6-46.6c-0.1-1.4,0.9-2.6,2.3-2.7c1.4-0.1,2.6,0.9,2.7,2.3l3.7,46.6
	c0.1,1.4-0.9,2.6-2.3,2.7c0,0,0,0,0,0L433.6,948.4z"/>
<path class="st7" d="M516.7,810.4c0,0,15-11.8,2.9-17.4c0,0,11.4-9.9-1.1-12.3c0,0,5-16.8-8.5-12.5c0,0-12.6-15.7-21.4,0.5
	c0,0-8.6-17.3-17.4-1.3c0,0-15.6,2.5-11.4,16.6c0,0-2.3,19.2,8.8,13.1c0,0-5.2,11.2,3.6,5.7c0,0,1.8-7.2-0.8-11c0,0,12.8,8,19,1.6
	c0,0,3.4,4.5,10.6,0.2c0,0,2.9,8.7,8.1,5.6C509.1,799.4,509.5,819.5,516.7,810.4z"/>
<path class="st7" d="M483.4,840.1c-2,0-4-0.2-6-0.4c-1.4-0.2-2.4-1.4-2.2-2.8s1.4-2.4,2.8-2.2c7,0.9,9.9,0.1,11-0.7
	c1-1,2.6-0.9,3.5,0.1c1,1,0.9,2.6-0.1,3.5c-0.2,0.1-0.3,0.3-0.5,0.4C490.1,839.4,487.3,840.1,483.4,840.1z"/>
<path class="st8" d="M515.9,821.1L515.9,821.1c4.5,0,8.2-4.1,8.2-9.1v-3.2c0-5-3.7-9.1-8.2-9.1l0,0c-4.5,0-8.2,4.1-8.2,9.1v3.2
	C507.7,817,511.4,821.1,515.9,821.1z"/>
<path class="st7" d="M513.2,815.4c-1.4,0-2.5-1.1-2.5-2.5c0-0.7,0.3-1.3,0.7-1.8l5.3-5.3c1-1,2.6-0.9,3.5,0.1c0.9,1,0.9,2.5,0,3.5
	l-5.3,5.3C514.5,815.1,513.9,815.4,513.2,815.4z"/>
<polygon class="st9" points="429.8,877.5 413.7,945.9 447.9,945.9 458.7,880.2 "/>
<path class="st1" d="M484.7,980.6h-79.1c-1.2,0-2.2-0.8-2.4-1.9l-22.5-95.4c-0.2-0.7,0-1.5,0.5-2.1c0.5-0.6,1.2-1,2-1h67.8
	c1.1,0,2,0.7,2.4,1.7l33.8,95.4c0.3,0.8,0.2,1.6-0.3,2.3C486.3,980.2,485.5,980.6,484.7,980.6z M407.6,975.6h73.5l-32-90.4h-62.9
	L407.6,975.6z"/>
<path class="st8" d="M565,937.3l10.3,36c3.5,12.3-5.3,24.7-16.9,23.8l-77.7-6.6v-34.7l35.3-2.1l6.2-5.8L565,937.3z"/>
<polygon class="st7" points="406,979.5 473.8,979.5 439.6,882.5 371.8,882.5 "/>
<polygon class="st2" points="562.4,877.4 574.8,945.9 515.9,953.5 509.5,919.9 "/>
<path class="st7" d="M515.9,956c-1.2,0-2.2-0.8-2.5-2l-7.6-38.7c-0.3-1.4,0.6-2.7,2-3c1.4-0.3,2.7,0.6,3,2l7.6,38.7
	c0.3,1.4-0.6,2.7-2,2.9c0,0,0,0,0,0C516.2,956,516.1,956,515.9,956z"/>
<polygon class="st8" points="479.4,952.5 439.5,952.5 444.3,987.8 480.6,990.4 480.6,957.5 "/>
<path class="st8" d="M469.9,952.4l0.3-4.3c0.3-3.2,3.6-4.8,5.9-2.8c2.5,2.2,4.8,5.1,4.6,8.2l-0.2,2.1L469.9,952.4z"/>
<path class="st7" d="M562.4,879.9c-1.1,0-2-0.7-2.4-1.7l0,0c0-0.1-2.7-8.1-9.6-10.2c-5.4-1.7-12.2,0.6-20.1,6.7
	c-1.1,0.8-2.7,0.6-3.5-0.5c-0.8-1.1-0.6-2.7,0.5-3.5c9.3-7.2,17.6-9.7,24.7-7.5c9.4,2.9,12.7,13,12.8,13.4c0.4,1.3-0.3,2.7-1.6,3.2
	C562.9,879.8,562.7,879.9,562.4,879.9L562.4,879.9z"/>
<path class="st1" d="M492.7,1077.7c-1.3,0-2.5-1.1-2.5-2.4l-0.3-8.4c-7.1-6.9-10.8-16.5-10.1-26.3c0.1-1.4,1.3-2.4,2.7-2.3
	s2.4,1.3,2.3,2.7c-0.6,8.7,2.7,17.2,9.2,23c0.5,0.5,0.8,1.1,0.8,1.8l0.3,9.4c0.1,1.4-1,2.5-2.4,2.6c0,0,0,0,0,0L492.7,1077.7z"/>
<path class="st2" d="M551.3,1168.1c-18.2,0-33.3-15.8-34.2-35.8l-0.8-17.8H554c1.4,0,2.5,1.1,2.5,2.5s-1.1,2.5-2.5,2.5h-32.5
	l0.6,12.5c0.8,17.4,13.7,31.1,29.3,31.1c1.4,0,2.5,1.1,2.5,2.5S552.7,1168.1,551.3,1168.1z"/>
<path class="st2" d="M538.4,1138.5c-4.3,0.3-8.1-3-8.4-7.3s3-8.1,7.3-8.4c4.3-0.3,8.1,3,8.4,7.3c0,0.2,0,0.4,0,0.5
	C545.9,1134.9,542.6,1138.4,538.4,1138.5z M538.4,1127.8c-1.6-0.3-3.1,0.7-3.4,2.3c-0.3,1.6,0.7,3.1,2.3,3.4s3.1-0.7,3.4-2.3
	c0-0.2,0.1-0.4,0.1-0.6C540.9,1129.2,539.9,1128,538.4,1127.8z"/>
<path class="st2" d="M411.5,1166.3c-1.4,0-2.5-1.1-2.5-2.5c0-1,0.7-2,1.6-2.3c11.4-4.2,19.5-16,20.1-29.5l0.6-12.5h-10.8
	c-1.4,0-2.5-1.1-2.5-2.5s1.1-2.5,2.5-2.5h16l-0.8,17.8c-0.7,15.7-9.9,29-23.4,33.9C412.1,1166.3,411.8,1166.3,411.5,1166.3z"/>
<path class="st2" d="M419.1,1138.5c-1,0-2-0.2-2.9-0.6c-1.3-0.6-1.8-2.1-1.2-3.3c0.6-1.3,2.1-1.8,3.3-1.2c0.3,0.1,0.5,0.2,0.8,0.2
	c1.4-0.2,2.4-1.4,2.3-2.8c0-1.7-1.3-3.1-2.7-2.8c-1.4,0.3-2.7-0.6-3-2c-0.3-1.4,0.6-2.7,2-2.9c0.4-0.1,0.9-0.1,1.3-0.1
	c4.3,0.3,7.6,4,7.4,8.3C426.2,1135.1,423,1138.3,419.1,1138.5L419.1,1138.5z"/>
<path class="st1" d="M537.9,1054.2c-4.7,0-10.5-0.9-15-4.2s-7-8.5-7.3-15.3c-0.1-1.4,1-2.6,2.4-2.6s2.6,1,2.6,2.4
	c0.3,5.2,2,9.1,5.3,11.5c7.2,5.4,19.3,2.5,19.5,2.4c1.3-0.3,2.7,0.5,3,1.8c0.3,1.3-0.5,2.7-1.8,3l0,0
	C543.7,1053.8,540.8,1054.2,537.9,1054.2z"/>
<path class="st1" d="M433.3,1054.1c-1.4,0-2.5-1-2.6-2.4c0-1.4,1-2.5,2.4-2.6c9.8-0.6,15-5.5,15.5-14.7c0.1-1.4,1.2-2.4,2.6-2.4
	s2.4,1.2,2.4,2.6l0,0c-0.6,11.8-7.8,18.7-20.2,19.4H433.3z"/>
<path class="st1" d="M423.8,950.2c-7.2,0-15-4.2-19.8-10.7c-0.8-1.1-0.6-2.7,0.5-3.5s2.7-0.6,3.5,0.5c3.9,5.3,10.1,8.7,15.8,8.7
	c3.4,0,6.1-1.2,7.8-3.5c1.8-2.4,2.2-5.8,1-9.5c-2.4-7.9-10.9-14.4-18.8-14.4c-2-0.1-4,0.5-5.7,1.5c-1.2,0.7-2.7,0.4-3.5-0.8
	c-0.7-1.2-0.4-2.7,0.8-3.5l0,0c2.5-1.6,5.5-2.4,8.4-2.3c10.1,0,20.5,7.9,23.5,18c1.6,5.2,0.9,10.2-1.8,13.9S428.8,950.2,423.8,950.2
	z"/>
<path class="st1" d="M413.9,917.8c-1,0-1.9-0.6-2.3-1.6l-3.1-8c-0.5-1.3,0-2.7,1.3-3.3c1.3-0.5,2.7,0,3.3,1.3c0,0.1,0,0.1,0.1,0.2
	l3.1,8c0.5,1.3-0.1,2.7-1.4,3.2c0,0,0,0,0,0C414.5,917.8,414.2,917.9,413.9,917.8z"/>
<path class="st10" d="M1572.8,917.5l-4,34.9l-81.3-25.2l4.2,28.7l73.9,41.5c6.4,2.5,13.2,3.5,20,3l0,0c11.1-0.9,21.5-5.8,29.2-13.8
	l10.7-10.9l-14.8-54.8l-15.8-11.9L1572.8,917.5z"/>
<path class="st10" d="M1500.6,928.2c-1.6-2.1-2.7-4.6-3.2-7.2c-0.8-3.3,0.5-10.4-1.1-13.1c-1.1-1.8-0.8-1.4-2.6-0.4
	c-0.9,0.5-6.4,9.5-6.3,9.5l-4.4-2.6c0,0-16.1-7.9-20.4-9.1l-6.1-1.7c-2-0.5-4.1,0.6-4.8,2.6c-0.7,2.1,0.3,4.3,2.3,5.2l6.6,2.7
	l10.8,5.7l-8.2-2.4c-3-0.9-6.1-1.3-9.2-1.2l-5.4,0.2c-2.4,0.1-4.3,2-4.5,4.3c-0.2,1.7,0.6,3.4,2,4.5l0.8,0.5l-0.4,0.3
	c-1.4,0.9-2.1,2.4-2,4.1c0.2,2.3,2.2,4.1,4.5,4l5.4-0.3c2.8-0.1,5.5,0.4,7.9,1.7l6.4,3.3l-15.9-2c-1.9-0.2-3.5,1.1-3.7,3
	c-0.1,1,0.2,2,1,2.7l0.2,0.2c0.5,0.4,1.2,0.7,1.8,0.8c1.6,0.1,3.1,0.4,4.7,0.7l15.9,3.9c6.9,2.3,19.5,9.3,26.8,9.2h0.5l0,0
	l14.9-19.3C1509.3,934.7,1504.1,932.7,1500.6,928.2z"/>
<rect x="1731.9" y="798.2" transform="matrix(0.9707 -0.2402 0.2402 0.9707 -149.5 451.7196)" class="st6" width="92.3" height="81.7"/>
<rect x="1378.5" y="848.9" transform="matrix(0.9707 -0.2402 0.2402 0.9707 -167.6302 404.3513)" class="st3" width="392.6" height="81.7"/>
<polygon class="st6" points="1394.4,976.3 1374.6,897.2 1351.7,902.8 1322,933.9 1298.6,958.1 1330.7,968.7 1371.6,981.9 "/>
<polygon class="st7" points="1322,933.9 1298.6,958.1 1330.7,968.7 "/>
<path class="st1" d="M1456.3,936.3c-1.4,0-2.5-1.1-2.5-2.5c0-1.2,0.8-2.2,1.9-2.4l163-39.4c1.3-0.3,2.7,0.5,3,1.8s-0.5,2.7-1.8,3
	l-163,39.4C1456.7,936.3,1456.5,936.4,1456.3,936.3z"/>
<path class="st1" d="M1774.5,882.7c-1.2,0-2.2-0.8-2.4-1.9l-19.1-77.3c-0.3-1.3,0.5-2.7,1.8-3c1.3-0.3,2.7,0.5,3,1.8l19.1,77.3
	c0.3,1.4-0.5,2.7-1.9,3C1774.9,882.7,1774.7,882.7,1774.5,882.7L1774.5,882.7z"/>
<path class="st1" d="M1393.5,977.4c-1.1,0-2.2-0.8-2.4-1.9l-19.2-77.7c-0.3-1.3,0.5-2.7,1.8-3c1.3-0.3,2.7,0.5,3,1.8l0,0l19.2,77.7
	c0.3,1.3-0.5,2.7-1.8,3C1393.9,977.4,1393.7,977.4,1393.5,977.4z"/>
<polygon class="st6" points="1552.4,1261.2 1531.1,1281.1 1505.9,1298 1505.9,1318.2 1583.3,1318.2 1583.3,1255.2 "/>
<path class="st7" d="M1566,1305.8c-5.4,0.1-9.8-4.2-9.9-9.5c-0.1-5.4,4.2-9.8,9.5-9.9c5.4-0.1,9.8,4.2,9.9,9.5c0,0.1,0,0.1,0,0.2
	C1575.6,1301.4,1571.3,1305.8,1566,1305.8z M1566,1291.4c-2.6-0.1-4.8,1.9-4.9,4.5c-0.1,2.6,1.9,4.8,4.5,4.9s4.8-1.9,4.9-4.5
	c0-0.1,0-0.1,0-0.2C1570.6,1293.6,1568.6,1291.4,1566,1291.4L1566,1291.4z"/>
<path class="st7" d="M1543.2,1290.3h-24.9c-1.4,0-2.5-1.1-2.5-2.5s1.1-2.5,2.5-2.5h24.9c1.4,0,2.5,1.1,2.5,2.5
	S1544.6,1290.3,1543.2,1290.3z"/>
<path class="st7" d="M1555.6,1280.2h-24.9c-1.4,0-2.5-1.1-2.5-2.5s1.1-2.5,2.5-2.5h24.9c1.4,0,2.5,1.1,2.5,2.5
	S1557,1280.2,1555.6,1280.2z"/>
<polygon class="st6" points="1789.8,1223.8 1797.9,1254.5 1800.5,1285.3 1817.8,1294.8 1854.3,1224.6 1800.2,1194.9 "/>
<path class="st7" d="M1824,1246.8c-1.6,0-3.1-0.4-4.5-1.2c-4.6-2.6-6.3-8.4-3.9-13.1c1.2-2.3,3.2-4,5.7-4.8c2.4-0.7,5-0.5,7.2,0.8
	l0,0c4.6,2.6,6.4,8.4,3.9,13.1C1830.9,1244.8,1827.6,1246.8,1824,1246.8z M1824,1232.4c-0.4,0-0.9,0.1-1.3,0.2
	c-1.2,0.4-2.2,1.2-2.7,2.3c-1.2,2.3-0.4,5.1,1.9,6.4c1,0.6,2.2,0.7,3.4,0.3c1.2-0.4,2.2-1.2,2.7-2.3c1.2-2.3,0.4-5.1-1.9-6.4l0,0
	C1825.5,1232.6,1824.8,1232.4,1824,1232.4L1824,1232.4z"/>
<path class="st7" d="M1797.7,1271.8c-1.4,0-2.5-1.1-2.5-2.5c0-0.4,0.1-0.8,0.3-1.2l5.6-10.8c0.6-1.2,2.1-1.7,3.4-1.1
	c1.2,0.6,1.7,2.1,1.1,3.4l-5.6,10.8C1799.5,1271.2,1798.6,1271.8,1797.7,1271.8z"/>
<path class="st7" d="M1794.8,1255.7c-1.4,0-2.5-1.1-2.5-2.5c0-0.4,0.1-0.8,0.3-1.2l5.7-11c0.6-1.2,2.1-1.7,3.4-1.1
	c1.2,0.6,1.7,2.1,1.1,3.4l-5.7,11C1796.6,1255.2,1795.8,1255.7,1794.8,1255.7z"/>
<path class="st2" d="M1806.5,1194.9l-18.6,34.9l-13.9-7.5l-9.4-5.1l-6.3-3.4l-9.4-5.1l-84.9-45.8c-10.2-5.5-17.7-15-20.7-26.2
	l-15.7-68.9l-9.4-41.2l61.9-19.2l1.3,5.3l1.2,5.1l17.3,70.6l4.6,18.9l68.7,58.9l8.2,7.1l5.5,4.7l8.2,7.1L1806.5,1194.9z"/>
<path class="st2" d="M1704.7,1083.4l-4.7,5.2l-52.6,58l-2.6,2.9l-34,70.7l-5.3,10.9l-3.5,7.3l-5.3,10.9l-6.6,13.7h-46.9
	c0,0,29.4-107.6,33.5-119.8c6-17.7,13.9-34.7,23.5-50.7c10.3-17.2,19.9-34.4,29.6-52l8.3-15l65.1-10.4l8,15
	C1720.5,1047.4,1717.8,1068.8,1704.7,1083.4z"/>
<path class="st6" d="M1703.2,1015.1l-84.9,11.7l-20.2-64.5l0,0c-9.7-3-17.3-10.7-20.2-20.4c-1.4-4.8-2.1-9.7-2.1-14.7v-5.3
	c0-8.6,1.8-17.1,5.3-25l0,0c3.1-7.1,10.1-11.7,17.8-11.7h78.9c11.8,0,20.9,10.6,19.5,22.6l-4.5,60.2L1703.2,1015.1z"/>
<polygon class="st1" points="1641.8,894.1 1604.7,925.9 1612.8,894.1 1612.8,848.4 1641.8,848.4 "/>
<rect x="1612.8" y="825.3" class="st10" width="29.1" height="54.1"/>
<path class="st7" d="M1619.7,896.6h-6.9c-1.4,0-2.5-1.1-2.5-2.5s1.1-2.5,2.5-2.5h6.9c5.6,0,11.2-1.4,16.2-4.1l4.8-2.6
	c1.2-0.7,2.7-0.2,3.4,1s0.2,2.7-1,3.4l-4.8,2.6C1632.5,895,1626.1,896.6,1619.7,896.6z"/>
<path class="st10" d="M1649.4,826.2V838c0,19.2-15.1,34.7-33.7,34.7h-11.8c-6-0.1-11-4.7-11.5-10.7c0-0.4-0.1-0.8-0.1-1.2v-29.9
	c0-15.2,12-27.5,26.8-27.5h8.1C1639.4,803.3,1649.4,813.6,1649.4,826.2z"/>
<path class="st7" d="M1612.6,875.7c-1.4,0-2.5-1.1-2.5-2.5s1.1-2.5,2.5-2.5c4.6,0,9.1-1,13.3-3c1.2-0.6,2.7-0.1,3.3,1.2
	c0.6,1.2,0.1,2.7-1.2,3.3C1623.3,874.6,1618,875.8,1612.6,875.7z"/>
<path class="st7" d="M1659.7,846.5l-17.9,26.2c-12.5-66.8-48.9-25.6-44-57.3c-5.9,10-1.1,14.3-11.2,16.5l0.3-3.5
	c1.4-13.7,11-23.7,23.6-27.4c10.1-2.9,22.4-3,31.5,3.1C1653.3,811.6,1661.1,832.9,1659.7,846.5z"/>
<path class="st1" d="M1634.2,834.5c-0.7,0-1.4-0.3-1.9-0.8c-6.1-7-12.8-7.8-18.7-8.6c-4.4-0.6-8.6-1.1-11-4.4
	c-2.1-2.8-2.6-6.8-1.6-13.2c0.2-1.4,1.5-2.3,2.9-2.1c1.4,0.2,2.3,1.5,2.1,2.8c-0.7,4.7-0.5,7.9,0.6,9.4s4.1,2,7.7,2.5
	c6.1,0.8,14.4,1.9,21.8,10.2c0.9,1,0.8,2.6-0.2,3.5C1635.5,834.3,1634.9,834.5,1634.2,834.5L1634.2,834.5z"/>
<path class="st7" d="M1654.4,810.3c-3.5,8.5-13.2,12.7-21.8,9.2c-0.2-0.1-0.3-0.1-0.5-0.2c-8.6-4-12.5-14.1-8.7-22.9
	c3.5-8.6,13.2-12.7,21.8-9.2c0.2,0.1,0.3,0.1,0.5,0.2C1654.3,791.4,1658.1,801.5,1654.4,810.3z"/>
<path class="st1" d="M1651.4,817.5c-0.9,0-1.7-0.5-2.2-1.2c-5.9-10-19-13.9-28.5-14.2c-1.4,0-2.5-1.2-2.5-2.5c0-1.4,1.2-2.5,2.5-2.5
	l0,0h0.1c11.2,0.4,25.6,4.9,32.6,16.6c0.7,1.2,0.3,2.7-0.9,3.4C1652.3,817.3,1651.9,817.5,1651.4,817.5L1651.4,817.5z"/>
<path class="st1" d="M1623.7,953.6c-6.1,0-12.1-1.3-17.5-4c-1.2-0.7-1.6-2.2-0.9-3.4c0.7-1.2,2.1-1.6,3.3-1
	c10.9,5.2,23.6,4.4,33.8-2.1c1.2-0.7,2.7-0.4,3.4,0.8c0.7,1.2,0.4,2.7-0.8,3.4C1638.7,951.4,1631.3,953.6,1623.7,953.6z"/>
<path class="st1" d="M1583.8,953.4c-1.4,0-2.5-1-2.6-2.4c0-1.4,1-2.5,2.4-2.6l0,0c5.7-0.5,11.2-2.3,16.1-5.4
	c1.2-0.7,2.7-0.4,3.4,0.8c0.7,1.2,0.4,2.7-0.8,3.4l0,0c-5.5,3.5-11.8,5.6-18.3,6.1L1583.8,953.4z"/>
<path class="st6" d="M1606.2,943.1H1566c0.3-6.5,0.8-13,0.9-19.4c0-9.2,0.1-19.5,5.6-27.1c4.9-7,12.9-11.2,21.4-11.3l6.6-0.1
	L1606.2,943.1z"/>
<path class="st10" d="M1728.6,978c0,0-47.6,45.1-54.8,48.5l-0.7,0.3l-18.4-8.9l32.6-58.9l-26.4-33l38.4-23.1l31.5,46.1
	C1737,958,1736.1,970,1728.6,978z"/>
<path class="st1" d="M1576.3,936.8c-1.2,0-2.3-0.9-2.5-2.1c-3.2-20,0.4-43.3,15.6-50.1c1.2-0.7,2.7-0.2,3.4,1c0.7,1.2,0.2,2.7-1,3.4
	c-0.1,0.1-0.3,0.1-0.4,0.2c-12.7,5.7-15.5,27.2-12.7,44.8c0.2,1.4-0.7,2.6-2.1,2.9C1576.5,936.8,1576.4,936.8,1576.3,936.8z"/>
<path class="st6" d="M1722.4,926.1l-53,20.4l-30.2-49.8l30-11c11.8-4.5,25.1-0.4,32.2,10.1L1722.4,926.1z"/>
<polygon class="st1" points="1781.5,1173.4 1758.4,1213.9 1749,1208.8 1773.2,1166.4 "/>
<polygon class="st1" points="1795.2,1185.2 1774.1,1222.3 1764.7,1217.3 1787,1178.2 "/>
<polygon class="st1" points="1610.7,1220.2 1605.4,1231.1 1552.3,1231.1 1555.5,1220.2 "/>
<polygon class="st1" points="1601.9,1238.4 1596.7,1249.3 1547.1,1249.3 1550.2,1238.4 "/>
<path class="st1" d="M1646.7,1147.8c-1.4,0-2.5-1.1-2.5-2.5c0-0.6,0.2-1.2,0.7-1.7l53.3-56.8c0.9-1,2.5-1.1,3.5-0.1s1.1,2.5,0.1,3.5
	l-53.3,56.8C1648,1147.6,1647.4,1147.8,1646.7,1147.8z"/>
<path class="st7" d="M1835.6,1229.2c-0.4,0-0.8-0.1-1.2-0.3c-1.2-0.7-1.7-2.2-1-3.4l5.2-9.5c0.6-1.2,2.1-1.7,3.4-1.1
	c1.2,0.6,1.7,2.1,1.1,3.4c0,0,0,0.1-0.1,0.1l-5.2,9.5C1837.4,1228.7,1836.6,1229.2,1835.6,1229.2z"/>
<path class="st7" d="M1766.5,1180.7c-0.5,0-1.1-0.2-1.5-0.5l-59.8-45.4c-6.5-4.9-11.6-11.3-15-18.7c-0.6-1.3,0-2.7,1.2-3.3
	c1.3-0.6,2.7,0,3.3,1.2c3,6.6,7.6,12.4,13.4,16.8l59.8,45.4c1.1,0.8,1.3,2.4,0.5,3.5C1768,1180.3,1767.2,1180.7,1766.5,1180.7
	L1766.5,1180.7z"/>
<path class="st10" d="M1593.8,838l-8,12.4c-0.4,1,0,2.2,1.1,2.6c0.2,0.1,0.5,0.2,0.8,0.2h7.2L1593.8,838z"/>
<path class="st1" d="M1668.5,947.9l-1-1.4c-0.9-1.3-1.9-2.7-2.9-4c-3.2-4.3-6.2-8.8-8.9-13.4c-0.7-1.2-0.4-2.7,0.8-3.5
	c1.2-0.7,2.7-0.4,3.5,0.8c0.1,0.1,0.1,0.2,0.1,0.3c2.6,4.5,5.5,8.8,8.6,12.9c0.7,0.9,1.3,1.8,1.9,2.7l9.2-2.2c1.3-0.3,2.7,0.5,3,1.8
	c0.3,1.3-0.5,2.7-1.8,3L1668.5,947.9z"/>
<path class="st10" d="M1626,856.1L1626,856.1c-5.7-0.1-10.3-4.8-10.2-10.5v-3.7c-0.1-5.7,4.5-10.4,10.2-10.5l0,0
	c5.7,0.1,10.3,4.8,10.2,10.5v3.7C1636.3,851.3,1631.7,856,1626,856.1z"/>
<path class="st7" d="M1623,849.4c-1.4,0-2.5-1.1-2.5-2.5c0-0.6,0.2-1.2,0.6-1.7l5.9-6.9c0.9-1.1,2.4-1.2,3.5-0.4
	c1.1,0.9,1.2,2.4,0.4,3.5c0,0-0.1,0.1-0.1,0.1l-5.9,6.8C1624.4,849.1,1623.7,849.4,1623,849.4z"/>
<path class="st7" d="M1659.1,829.6c0,0,23.7-14.5,30.8,8c0,0,31-7.8,35,20c0,0,31,16.9,8.8,33c0,0-7,21.8-37.9,8
	c0,0-19.6,17.4-31-3.8c0,0-36.9,2.9-27-18.7C1637.8,876.1,1607.7,847.1,1659.1,829.6z"/>
<path class="st1" d="M1730.2,893.2c-10.5,0-12.7-4.5-13.1-5.5l4.7-1.7c0-0.1,0-0.1-0.1-0.2c0,0,1.9,3.1,11.8,2.2
	c1.4-0.1,2.6,0.9,2.7,2.3s-0.9,2.6-2.3,2.7C1732.6,893.2,1731.3,893.2,1730.2,893.2z"/>
<path class="st1" d="M1695.8,901.1c-1.4,0-2.5-1.1-2.5-2.5c0-0.9,0.4-1.7,1.2-2.1c2.3-1.7,4-4.1,4.7-6.9c0.3-1.4,1.6-2.2,2.9-2
	c1.4,0.3,2.2,1.6,2,2.9c0,0.1,0,0.1,0,0.2c-1,4.1-3.5,7.6-6.9,10C1696.8,900.9,1696.3,901.1,1695.8,901.1z"/>
<path class="st10" d="M1637.8,878.6c-1.4,0-2.5-1.1-2.5-2.5c0-0.2,0-0.3,0-0.5c0.1-0.6,1.4-6,5.8-8.6c2.4-1.4,5.3-1.8,8-0.9
	c1.3,0.4,2.1,1.7,1.8,3.1c-0.4,1.3-1.7,2.1-3.1,1.8l0,0c-1.3-0.5-2.8-0.3-4.1,0.4c-2.1,1.3-3.3,4.4-3.5,5.4
	C1640,877.9,1638.9,878.6,1637.8,878.6z"/>
<path class="st10" d="M1653.5,1019.6l-11.2,4.3l-12.8-0.7c-1.2,0-2.2,0.9-2.2,2.1c0,0.5,0.2,1,0.5,1.4l3.3,4.1l-4.7,2.8
	c-3.9,2.3-7.2,5.6-9.5,9.5l-3.3,5.6c-1.1,1.8-0.7,4.2,1,5.5l0,0c1.7,1.3,4.2,1,5.5-0.8c0,0,0,0,0,0l4.4-5.8l11.4-6.6l-4.6,7.4
	c-1.7,2.7-2.9,5.7-3.7,8.8l-1.3,5.4c-0.6,2.3,0.6,4.7,2.8,5.7l0,0c1.6,0.7,3.4,0.4,4.8-0.8l0.7-0.6l0.1,0.5c0.4,1.6,1.7,2.8,3.2,3.1
	l0,0c2.3,0.5,4.5-1,5-3.3l1.3-5.4c0.6-2.7,2-5.3,3.9-7.3l5-5.4l2.3,11c0.4,1.9,2.2,3.2,4.2,2.9c0.5-0.1,1-0.3,1.4-0.6l0,0
	c0.9-0.7,1.5-1.8,1.5-2.9l0.3-11.6l2.5-3.8c2.4-3.6,4.3-7.7,5.4-11.9l1.3-4.9l7-4.9l-13.7-19L1653.5,1019.6z"/>
<path class="st1" d="M1687.4,961.4c-1.4,0-2.5-1.1-2.5-2.5c0-0.7,0.3-1.3,0.7-1.8c3.5-3.5,12.7-8.6,22.2-3.4c1.2,0.7,1.6,2.2,1,3.4
	s-2.2,1.6-3.4,1c-8.6-4.8-16,2.3-16.3,2.6C1688.7,961.2,1688,961.4,1687.4,961.4z"/>
<path class="st7" d="M1594.8,1219.7c-0.3,0-0.6-0.1-0.9-0.2c-1.3-0.5-1.9-2-1.4-3.3c0,0,0,0,0,0l37.4-91.8l46-48.7
	c0.9-1,2.5-1.1,3.5-0.1s1.1,2.5,0.1,3.5l0,0l-45.4,48.1l-37,90.9C1596.8,1219.1,1595.8,1219.7,1594.8,1219.7z"/>
<path class="st7" d="M1711.2,1047.7c-5,0-9.5-2.7-11.9-7.1l-5.2-9.4c-0.7-1.2-0.2-2.7,1-3.4s2.7-0.2,3.4,1l5.2,9.4
	c2.1,4,7,5.6,11.1,3.7c1.2-0.6,2.7-0.1,3.3,1.1c0.6,1.2,0.1,2.7-1.1,3.3c0,0,0,0,0,0C1715.2,1047.3,1713.2,1047.7,1711.2,1047.7z"/>
<path class="st6" d="M1374,456.9c-3,0-5.5-2.4-5.5-5.5c0-2.4,1.6-4.5,3.9-5.2l123-38c2.9-0.8,5.9,1,6.7,3.9c0.7,2.8-0.8,5.6-3.5,6.6
	l-123,38C1375.1,456.8,1374.5,456.9,1374,456.9z"/>
<path class="st6" d="M625,456.9c-0.4,0-0.8,0-1.2-0.1l-146-31c-2.9-0.8-4.7-3.7-3.9-6.7c0.7-2.8,3.4-4.5,6.2-4l146,31
	c3,0.7,4.8,3.6,4.2,6.5C629.8,455.1,627.6,456.9,625,456.9z"/>
<path class="st6" d="M1230,242.9c-3,0-5.5-2.4-5.5-5.5c0-0.9,0.2-1.8,0.7-2.6l58-108c1.4-2.7,4.7-3.7,7.4-2.2s3.7,4.7,2.2,7.4l0,0
	l-58,108C1233.9,241.8,1232,242.9,1230,242.9z"/>
<path class="st6" d="M729,243.9c-1.3,0-2.5-0.4-3.5-1.3l-66-55c-2.3-1.9-2.6-5.4-0.7-7.7c1.9-2.3,5.4-2.6,7.7-0.7l66,55
	c2.3,1.9,2.6,5.4,0.7,7.7C732.2,243.2,730.6,243.9,729,243.9z"/>
<path class="st6" d="M983,146.9c-3,0-5.5-2.4-5.5-5.5V5.4c0-3,2.5-5.5,5.5-5.5c3,0,5.4,2.4,5.5,5.5v136
	C988.5,144.5,986,146.9,983,146.9z"/>
<path class="st0" d="M1880.3,455.2c29.9-72.1,32.5-126.5,24.4-168.7c-9-46.7-31.3-78.4-44.4-102.3c-2.5-4.5-8.2-6.2-12.7-3.7
	c-0.3,0.2-0.6,0.3-0.8,0.5c-22.4,15.6-56.5,34-85.4,71.7c-26.2,34.2-48.2,84.2-53.6,162.4c-37.3,12.8-62.8,47.3-64.1,86.7l-2.6,75.7
	l69.8-47.5c0.8,2.9,2.9,5.2,5.7,6.3l30.8,11.6c12.3,4.6,25.1,7.7,38.2,9l32.7,3.3c3.2,0.3,6.4-1.1,8.4-3.7l41.6,74.5l31.5-68.9
	C1916.3,525.9,1908.5,483.2,1880.3,455.2z"/>
<path class="st0" d="M1904.7,286.5l-143.4-33.8c28.9-37.8,63-56.1,85.4-71.7c4.3-2.9,10.1-1.9,13,2.4c0.2,0.3,0.4,0.6,0.5,0.8
	C1873.4,208.1,1895.7,239.8,1904.7,286.5z"/>
<path class="st0" d="M1778.2,610.7c-7,29.8-36.9,48.2-36.9,48.2s-18.5-29.8-11.5-59.6c7-29.8,23.5-51.3,36.9-48.2
	C1780,554.3,1785.2,581,1778.2,610.7z"/>
<path class="st1" d="M1768.3,600.2c-3.6,15.4-19.1,25-19.1,25s-9.6-15.5-6-30.8c3.6-15.4,12.2-26.6,19.1-25
	C1769.2,570.9,1771.9,584.8,1768.3,600.2z"/>
<path class="st0" d="M1815.2,512.6c-0.2,0.8-0.4,1.5-0.6,2.3l-6.7,20l-9.4,28.1l-12.3,36.7l-58.7-13.8l5.4-38.3l4.1-29.4l2.9-20.8
	c3.6-20.9,23.4-34.9,44.3-31.3c20.9,3.6,34.9,23.4,31.3,44.3C1815.5,511.2,1815.3,511.9,1815.2,512.6L1815.2,512.6z"/>
<path class="st1" d="M1786.2,602.2c-0.2,0-0.4,0-0.6-0.1l-58.7-13.8c-1.3-0.3-2.1-1.5-1.9-2.8l12.5-88.5
	c3.8-22.3,24.9-37.2,47.1-33.5s37.2,24.9,33.5,47.1c-0.1,0.8-0.3,1.7-0.5,2.5c-0.2,0.9-0.4,1.7-0.7,2.5l-28.4,84.8
	C1788.2,601.5,1787.3,602.2,1786.2,602.2z M1730.3,584l54.2,12.8l27.6-82.6c0.2-0.6,0.4-1.3,0.6-2.1l0,0c4.5-19.3-7.6-38.6-26.9-43
	c-19.3-4.5-38.6,7.6-43,26.9c-0.1,0.6-0.3,1.3-0.4,1.9L1730.3,584z"/>
<path class="st1" d="M1838.4,212.8l-22.4,27L1838.4,212.8z"/>
<path class="st1" d="M1816,242.4c-1.4,0-2.5-1.1-2.5-2.5c0-0.6,0.2-1.1,0.6-1.6l22.4-27c0.8-1.1,2.4-1.3,3.5-0.5
	c1.1,0.8,1.3,2.4,0.5,3.5c-0.1,0.1-0.1,0.1-0.2,0.2l-22.4,27C1817.5,242,1816.8,242.4,1816,242.4z"/>
<path class="st1" d="M1803.8,422.5c-2.2,0-4.5-0.3-6.6-0.8c-15.4-3.7-24.8-19.1-21.2-34.4c3.7-15.4,19.1-24.8,34.4-21.2
	s24.8,19.1,21.2,34.4C1828.5,413.4,1817,422.5,1803.8,422.5z M1803.7,369.9c-13.1,0-23.8,10.7-23.7,23.8c0,13.1,10.7,23.8,23.8,23.7
	c11,0,20.6-7.6,23.1-18.3l0,0c3-12.8-4.9-25.6-17.7-28.6C1807.4,370.1,1805.6,369.9,1803.7,369.9L1803.7,369.9z"/>
<path class="st1" d="M1820.4,352c-15.9,0-28.8-12.9-28.8-28.8s12.9-28.8,28.8-28.8c10,0,19.3,5.2,24.5,13.6c4,6.5,5.3,14.3,3.5,21.7
	l0,0C1845.3,342.8,1833.7,352,1820.4,352z M1820.3,299.4c-13.2,0-23.8,10.7-23.8,23.8c0,13.2,10.7,23.8,23.8,23.8
	c13.2,0,23.8-10.7,23.8-23.8c0-11-7.6-20.6-18.3-23.2C1824,299.7,1822.2,299.4,1820.3,299.4L1820.3,299.4z M1845.9,329.3
	L1845.9,329.3z"/>
<path class="st1" d="M1880.6,455l-53.7,101.4L1880.6,455z"/>
<path class="st1" d="M1826.9,558.9c-0.4,0-0.8-0.1-1.2-0.3c-1.2-0.7-1.6-2.2-1-3.4l53.7-101.4c0.6-1.2,2.2-1.7,3.4-1
	c1.2,0.6,1.7,2.2,1,3.4l-53.7,101.4C1828.7,558.4,1827.9,558.9,1826.9,558.9z"/>
<path class="st1" d="M1708.3,414.4l2.8,114.7L1708.3,414.4z"/>
<path class="st1" d="M1711.1,531.6c-1.4,0-2.5-1.1-2.5-2.4l-2.8-114.7c0-1.4,1.1-2.5,2.4-2.6c1.4,0,2.5,1.1,2.6,2.4l2.8,114.7
	C1713.6,530.4,1712.6,531.6,1711.1,531.6C1711.2,531.6,1711.2,531.6,1711.1,531.6L1711.1,531.6z"/>
<path class="st0" d="M1700.6,678.6c-0.2,0-0.4,0-0.6-0.1c-1.3-0.3-2.2-1.7-1.9-3l6-25.3c0.4-1.3,1.8-2.1,3.1-1.7
	c1.2,0.4,2,1.6,1.8,2.8l-6,25.3C1702.8,677.8,1701.8,678.6,1700.6,678.6z"/>
<path class="st0" d="M1771.3,684c-0.2,0-0.4,0-0.6-0.1c-1.3-0.3-2.2-1.7-1.9-3l3.4-14.6c0.3-1.3,1.7-2.2,3-1.9
	c1.3,0.3,2.2,1.7,1.9,3l-3.4,14.6C1773.4,683.2,1772.4,684,1771.3,684z"/>
<path class="st0" d="M1727.4,737.4c-0.2,0-0.4,0-0.6-0.1c-1.3-0.3-2.2-1.6-1.9-3c0,0,0,0,0,0l6-25.3c0.3-1.3,1.7-2.2,3-1.9
	c1.3,0.3,2.2,1.7,1.9,3l-6,25.3C1729.6,736.6,1728.6,737.4,1727.4,737.4z"/>
<polygon class="st5" points="186.7,1077.4 221.6,1077.3 242.3,1027.8 206.1,1027.8 "/>
<polygon class="st0" points="178.1,1077.4 213,1077.4 233.7,1027.8 197.5,1027.8 "/>
<path class="st8" d="M170.4,1011l9.4-11.3c5.1-3.2,11.3-4,17-2.2l0,0c0.2,0.1,0.3,0.2,0.2,0.4l-0.1,0.3c-1.6,5.3-4.7,9.9-9.1,13.2
	l0,0c-0.1,0.1-0.2,0.3-0.1,0.5c0,0,0,0,0,0l13.7,16.6c2.9,3.5,4.8,7.9,5.2,12.4c1,9.4-0.9,16.5-6.7,20.8c-0.1,0.1-0.2,0.1-0.3,0.1
	c-8.9-2.8-18.3-8.8-28.6-20.3c-0.1-0.1-0.1-0.2-0.1-0.2l-0.8-30C170.3,1011.2,170.3,1011.1,170.4,1011z"/>
<path class="st7" d="M171,1043.8c-0.1,0-0.3,0-0.4,0c-1.4-0.3-2.2-1.5-2-2.9l2.2-12.5c0.3-1.4,1.6-2.2,3-1.9c1.3,0.3,2.2,1.5,2,2.8
	l-2.2,12.4C173.3,1042.9,172.3,1043.8,171,1043.8z"/>
<path class="st8" d="M163.2,1029.2l13.5-24.2l-63.4-44.8l14.1-31.7l-42.3-19.9l-24,53.9c-2.6,5.9-2.8,12.5-0.5,18.6
	c2.2,6,6.7,10.8,12.5,13.4L163.2,1029.2z"/>
<polygon class="st7" points="104.4,1266.8 81.9,1286.7 62.7,1301.8 62.7,1318.7 105.1,1318.6 109.9,1297.9 111.3,1297.9 
	113.9,1318.6 119.4,1318.6 123.8,1266.8 "/>
<path class="st1" d="M63.9,1304.2c-1.4,0-2.5-1.1-2.5-2.5s1.1-2.5,2.5-2.5h16.9l16-18.9c0.8-1.1,2.4-1.3,3.5-0.4
	c1.1,0.8,1.3,2.4,0.4,3.5c0,0.1-0.1,0.1-0.1,0.2l-16.8,19.8c-0.5,0.6-1.2,0.9-1.9,0.9H63.9z"/>
<path class="st7" d="M187.3,790.8c-0.2,0-0.4,0.1-0.6,0.2L187.3,790.8z"/>
<path class="st8" d="M158.9,848.2h0.1c9.1,0,16.4-7.4,16.4-16.4v-35.9h-44.7v24.2C130.7,835.6,143.3,848.2,158.9,848.2
	C158.9,848.2,158.9,848.2,158.9,848.2z"/>
<polygon class="st7" points="169.7,1266.8 177.7,1286.1 203.9,1301.7 203.9,1318.6 163.6,1318.6 157.7,1297.8 154,1297.8 
	149.3,1318.6 139.4,1318.6 142.4,1266.8 "/>
<path class="st3" d="M113.6,995.2c-11.6,25.2-39.2,53.1-29.2,82.8c0.7,1.9,1.4,3.9,1.9,5.9c1.5,6.8-0.9,171.4-0.8,190.4l39,1.4
	l44.2-221.9L113.6,995.2z"/>
<path class="st3" d="M182.9,1002.1c2.7,24.1,2.6,51.2,0.5,81c-4,55.1-5.2,119.8-9.9,191.2h-35.1l-31.7-270.2L182.9,1002.1z"/>
<path class="st2" d="M95,905.9l-0.1,59.8L59,950.8l21.7-45.3c4.7,2.7-5.3-0.5,0,0C85.4,905.9,90.2,906.1,95,905.9z"/>
<path class="st8" d="M323.9,901.7l-19-19.9l-59.1,50.7L220,910l-30.1,36.5l44,38.3c4.7,4.1,11,6.2,17.2,5.6c6.3-0.6,12-3.8,15.9-8.8
	L323.9,901.7z"/>
<polygon class="st8" points="124.9,787.4 128.1,892.3 159.6,892.3 158.6,881.8 158.6,881.8 155.8,855.5 148.8,787.4 "/>
<path class="st2" d="M258.3,927l-50.5,40l-12.3-10.4l-7.4,31l-0.8,3.3l-3.8,15.9l-75,0.6l-3.1-10.3l-0.7-2.3l-9.6-31.8l-3.2-10.7
	l-5.4-18.1c-0.1-0.4-0.2-0.7-0.2-1.1c-2.1-10.3,0.7-21,7.6-28.9c0.5-0.6,1-1.2,1.6-1.7c0.8-0.7,1.5-1.5,2.4-2.2l9.7-8.1l2-1.6
	l5.4-4.4l2.3-1.9l13.4-11l-1.6,14l35.2-16.8l8,4.8l2,1.2l10,6l2,1.2l21,12.6l2.3,1.4l2.1,1.2l8.7,5.2l2.9,1.7L258.3,927z"/>
<path class="st1" d="M94.4,963.1c-1.1,0-2.1-0.7-2.4-1.8L84,935v-0.1c-0.1-0.4-0.2-0.8-0.3-1.2c-1.4-6.9-0.8-14,1.8-20.6
	c0.5-1.3,2-1.9,3.2-1.4c1.3,0.5,1.9,2,1.4,3.2c-2.2,5.6-2.8,11.8-1.5,17.7c0.1,0.3,0.1,0.6,0.2,1l7.9,26.2c0.4,1.3-0.4,2.7-1.7,3.1
	C94.9,963.1,94.6,963.1,94.4,963.1z"/>
<polygon class="st1" points="131,861.5 128.3,887.8 124.2,868.3 "/>
<path class="st1" d="M128.8,1218.7c-1.3,0-2.4-1-2.5-2.3l-11.6-138.9c-5.6-4.5-10.3-9.9-14-16c-0.7-1.2-0.3-2.7,0.9-3.4
	s2.7-0.3,3.4,0.9l0,0c3.6,5.9,8.2,11,13.6,15.2c0.6,0.4,0.9,1.1,1,1.8l11.7,140c0.1,1.4-0.9,2.6-2.3,2.7L128.8,1218.7z"/>
<path class="st6" d="M156.2,808.7c-6.7-0.7-5.5,17.4-7.6,11.8c0,0-5.4-4.1-19.1,2c-4.4,2-10.7,2.8-14.8-0.3
	c-6.5-4.9-4.8-14.8-3.1-21.6c7.5-30.8,41.9-36.4,66.2-23.4c8.9,4.8,14.5,14.4,6.1,22.8C177,807.1,165.7,809.8,156.2,808.7z"/>
<path class="st7" d="M155.2,850.6h-0.3c-5.2-0.7-10.2-2.7-14.4-5.9c-1.1-0.8-1.3-2.4-0.5-3.5c0.8-1.1,2.4-1.3,3.5-0.5h0
	c3.5,2.7,7.6,4.4,12,4.9c1.4,0.1,2.4,1.3,2.4,2.7C157.7,849.6,156.5,850.6,155.2,850.6L155.2,850.6L155.2,850.6z"/>
<polygon class="st1" points="127.6,883 159.1,859.9 165.2,874.7 127.6,889.4 "/>
<path class="st8" d="M303.1,883.7l2.8-14.5c2.9-5.3,7.9-9.1,13.8-10.5l0,0c0.2,0,0.3,0.1,0.4,0.2c0,0,0,0,0,0l0.1,0.3
	c1.1,5.4,0.6,11.1-1.7,16.1l0,0c-0.1,0.2,0,0.4,0.2,0.4c0,0,0,0,0,0l19.8,7.6c4.2,1.6,7.9,4.5,10.5,8.2c5.3,7.7,7,14.9,4.1,21.5
	c0,0.1-0.1,0.2-0.2,0.2c-9.1,2-20.2,1.5-34.6-3.3c-0.1,0-0.2-0.1-0.2-0.2L303.1,884C303.1,883.9,303.1,883.8,303.1,883.7z"/>
<path class="st1" d="M195.5,959.1c-0.5,0-0.9-0.1-1.4-0.4l-10.3-6.7l-9.9-6.4c-1.2-0.8-1.5-2.3-0.7-3.5c0.8-1.2,2.3-1.5,3.5-0.7
	l20.2,13.2c1.2,0.7,1.5,2.3,0.8,3.5C197.2,958.7,196.4,959.1,195.5,959.1L195.5,959.1z"/>
<path class="st1" d="M185.1,1304.2c-1.4,0-2.5-1.1-2.5-2.5s1.1-2.5,2.5-2.5h16.4c1.4,0,2.5,1.1,2.5,2.5s-1.1,2.5-2.5,2.5H185.1z"/>
<path class="st6" d="M89.4,912.3c20.2,3.2,41.6,8.3,62.4,8.8c4.8,0.1,9.6,0,14.4-0.4c5.3-0.5,11-1.5,15.7-4.2c2-1.2,3.9-2.7,5.4-4.5
	c8.4-10.2,7.5-26.9,1.5-38.1c-7.6-14.1-21.8-23.3-26-39.5c-1.9-7.5-7.2-25.8,1-31.9c0.4-0.3,0.9-0.6,1.4-0.8l-53.6,16.8
	c0,0,12.5,35.5-36.5,43.4C40,867.6,26.8,902.4,89.4,912.3z"/>
<path class="st8" d="M161.5,825.9L161.5,825.9c4.7-0.1,8.5-4,8.5-8.7c0,0,0,0,0,0v-3.1c0.1-4.7-3.7-8.7-8.5-8.7c0,0,0,0,0,0l0,0
	c-4.8,0.1-8.5,4-8.5,8.7v3.1C152.9,821.9,156.7,825.8,161.5,825.9C161.5,825.9,161.5,825.9,161.5,825.9z"/>
<path class="st7" d="M158.8,820.5c-1.4,0-2.5-1.1-2.5-2.5c0-0.7,0.3-1.4,0.8-1.8l5.5-5.1c1-0.9,2.6-0.9,3.5,0.2s0.9,2.6-0.2,3.5
	l-5.5,5.1C160,820.2,159.4,820.5,158.8,820.5z"/>
<path class="st1" d="M93.4,782.4l-15.2,13.7L93.4,782.4z"/>
<path class="st0" d="M78.2,798.1c-1.1,0-2-0.9-2-2c0-0.6,0.2-1.1,0.7-1.5L92,780.9c0.8-0.7,2.1-0.7,2.8,0.2c0.7,0.8,0.7,2.1-0.2,2.8
	l-15.2,13.7C79.1,797.9,78.7,798.1,78.2,798.1z"/>
<path class="st1" d="M125.1,735l-7.3,19.4L125.1,735z"/>
<path class="st0" d="M117.8,756.4c-0.2,0-0.5,0-0.7-0.1c-1-0.4-1.6-1.5-1.2-2.6c0,0,0,0,0,0l7.2-19.4c0.4-1,1.5-1.6,2.6-1.2
	s1.6,1.5,1.2,2.6l0,0l-7.3,19.4C119.4,755.8,118.7,756.4,117.8,756.4z"/>
<path class="st1" d="M94.2,757l-17.6-10.2L94.2,757z"/>
<path class="st0" d="M94.2,759c-0.4,0-0.7-0.1-1-0.3l-17.6-10.2c-1-0.6-1.3-1.8-0.7-2.7c0.6-1,1.8-1.3,2.7-0.7l17.6,10.2
	c1,0.6,1.3,1.8,0.7,2.7C95.6,758.6,94.9,759,94.2,759L94.2,759z"/>
<path class="st5" d="M430.3,414l-0.6,0.1l-1.1,0.2l-3.2,0.4l-105.9,14.6l-15.6-40.1l18.2,3.5l105.2,20.4l2.5,0.5L430.3,414z"/>
<polygon class="st5" points="430.9,414.6 430.8,414.7 322.1,393.1 329.8,373.8 "/>
<polygon class="st0" points="428.6,414.3 430.9,414.7 430.7,414.9 425.4,414.7 312.6,411.8 282,411 303.8,389.2 322.1,392.9 
	428.5,414.3 "/>
<path class="st0" d="M431,414.6L431,414.6l-1.3-0.4l-2.3-1l-97.1-38.7l0.3-0.3l22.5-12.4l76.7,51.9l0.6,0.5L431,414.6z"/>
<path class="st5" d="M284.6,761.6c-1.8-0.7-3.7-1.3-5.6-2l1.6-4.7c1.9,0.7,3.8,1.3,5.7,2L284.6,761.6z"/>
<path class="st5" d="M267.7,755.9c-3.8-1.2-7.6-2.4-11.4-3.6l1.5-4.8c3.8,1.2,7.7,2.4,11.5,3.6L267.7,755.9z M244.9,748.8
	c-4.4-1.4-8-2.5-11.5-3.6l1.6-4.8c3.4,1.1,7,2.2,11.4,3.6L244.9,748.8z M222,741.3c-4-1.4-7.7-2.8-11.3-4.3l1.9-4.6
	c3.5,1.4,7.1,2.8,11.1,4.2L222,741.3z M199.7,732.2c-3.8-1.8-7.4-3.6-10.8-5.5l2.4-4.4c3.3,1.8,6.8,3.6,10.5,5.4L199.7,732.2z
	 M178.4,720.3c-3.4-2.3-6.7-4.8-9.8-7.3l3.2-3.9c2.9,2.4,6.1,4.8,9.4,7L178.4,720.3z M159.7,704.4c-2.7-3.2-5-6.8-6.9-10.5l4.5-2.2
	c1.7,3.4,3.8,6.6,6.2,9.5L159.7,704.4z M148.6,682.2c-1-4-1.6-8.2-1.8-12.3l5-0.3c0.2,3.8,0.8,7.7,1.7,11.4L148.6,682.2z
	 M151.6,657.9l-5-0.2c0.1-3.6,0.4-7.4,0.9-12.1l5,0.5C152,650.7,151.8,654.4,151.6,657.9L151.6,657.9z M153.7,634.3l-5-0.6
	c0.4-3.8,0.9-7.9,1.2-11.8l5,0.4C154.7,626.3,154.2,630.4,153.7,634.3L153.7,634.3z M155.7,610.2l-5-0.1c0-0.9,0-1.8,0-2.7
	c0-3.2-0.1-6.1-0.4-8.9l5-0.5c0.3,3,0.4,6,0.4,9.4C155.8,608.2,155.8,609.2,155.7,610.2L155.7,610.2z M148.4,587.1
	c-1-3.7-2.4-7.2-4.1-10.6l4.4-2.3c1.9,3.7,3.4,7.6,4.5,11.6L148.4,587.1z M137.9,566.9c-2.5-2.9-5.2-5.6-8.2-8l3.2-3.9
	c3.2,2.6,6.2,5.5,8.8,8.7L137.9,566.9z M120.2,552.2c-3-1.9-6.4-3.7-10.3-5.7l2.2-4.5c4,2,7.5,3.9,10.7,5.9L120.2,552.2z
	 M99.2,541.4c-1.8-0.8-3.6-1.6-5.5-2.4l-5.5-2.4l2.1-4.6l5.4,2.4l5.5,2.4L99.2,541.4z M77.4,531.4c-0.9-0.4-1.7-0.9-2.5-1.3
	c-2.8-1.5-5.5-3.1-8.1-4.9l2.9-4.1c2.4,1.7,4.9,3.2,7.5,4.6c0.8,0.4,1.6,0.9,2.5,1.3L77.4,531.4z M57.2,517.3
	c-2.9-2.9-5.7-6-8.1-9.4l4-3c2.3,3.1,4.8,6,7.6,8.7L57.2,517.3z M42.7,497.4c-1.9-3.7-3.5-7.5-4.8-11.4l4.7-1.6
	c1.2,3.7,2.7,7.2,4.5,10.7L42.7,497.4z M34.8,474.1c-0.8-4-1.2-8.1-1.4-12.2l5-0.2c0.2,3.9,0.6,7.7,1.3,11.5L34.8,474.1z
	 M38.7,450.1l-5-0.5c0.4-4.1,1.1-8.1,2-12.1l4.9,1.2C39.7,442.4,39.1,446.2,38.7,450.1L38.7,450.1z M44.1,427.5l-4.6-1.9
	c1.4-3.6,3.1-7.2,5-10.6l0.3-0.5l4.3,2.5l-0.3,0.5C47,420.7,45.5,424.1,44.1,427.5L44.1,427.5z M55.6,407.4l-4-3
	c2.5-3.3,5.1-6.4,7.9-9.3l3.6,3.5C60.4,401.3,57.9,404.2,55.6,407.4L55.6,407.4z M71.7,390.5l-3.2-3.9c3.1-2.6,6.4-5,9.8-7.3
	l2.8,4.2C77.8,385.7,74.7,388,71.7,390.5L71.7,390.5z M91.1,377.4l-2.4-4.4c3.5-1.9,7.2-3.7,11-5.3l2,4.6
	C98,373.9,94.5,375.6,91.1,377.4L91.1,377.4z M240.3,375.5c-3.9-1.3-7.7-2.5-11.4-3.5l1.4-4.8c3.7,1.1,7.6,2.3,11.5,3.6L240.3,375.5
	z M217.5,368.8c-3.9-1-7.8-1.9-11.5-2.7l1-4.9c3.8,0.8,7.8,1.8,11.8,2.8L217.5,368.8z M112.7,368.2l-1.6-4.8
	c3.8-1.3,7.8-2.4,11.7-3.3l1.2,4.9C120.1,365.9,116.3,366.9,112.7,368.2L112.7,368.2z M194.3,363.8c-4-0.7-7.9-1.2-11.7-1.7l0.6-5
	c3.9,0.5,8,1,12,1.7L194.3,363.8z M135.5,362.7l-0.8-4.9c2.9-0.5,5.9-0.8,8.8-1.1c1.1-0.1,2.2-0.2,3.3-0.3l0.4,5
	c-1.1,0.1-2.1,0.2-3.2,0.3C141.2,361.9,138.3,362.2,135.5,362.7z M170.8,361.1c-3.5-0.2-7.1-0.3-10.5-0.3H159v-5h1.3
	c3.6,0,7.2,0.1,10.8,0.3L170.8,361.1z"/>
<path class="st5" d="M257.3,381.5l-5.6-2l1.7-4.7c1.9,0.7,3.8,1.4,5.7,2.1L257.3,381.5z"/>
<path class="st1" d="M1904.4,286.5l-143.1-33.7L1904.4,286.5z"/>
<path class="st1" d="M1904.4,289c-0.2,0-0.4,0-0.6-0.1l-143.1-33.7c-1.3-0.3-2.2-1.7-1.9-3s1.7-2.2,3-1.9l0,0L1905,284
	c1.3,0.3,2.2,1.7,1.8,3C1906.6,288.2,1905.6,289,1904.4,289z"/>
<path class="st0" d="M341.6,242.1c-0.5,0-1-0.2-1.3-0.5c-0.8-0.7-0.8-1.9-0.1-2.7c0,0,0,0,0,0c31-32.8,29.6-84.6-3.2-115.6
	C321.8,109,301.7,101,280.8,101c-1.1,0.1-2-0.7-2-1.8c-0.1-1.1,0.7-2,1.8-2c0.1,0,0.2,0,0.3,0c47.3,0,85.6,38.3,85.6,85.5
	c0,21.9-8.4,42.9-23.4,58.8C342.6,241.9,342.1,242.1,341.6,242.1z"/>
<path class="st0" d="M201.3,158.6c-0.2,0-0.4,0-0.6-0.1c-1-0.3-1.5-1.4-1.2-2.4c0,0,0,0,0,0c7.5-22.9,24.3-41.5,46.2-51.4
	c0.9-0.5,2.1-0.1,2.6,0.8c0.5,0.9,0.1,2.1-0.8,2.6c-0.1,0-0.1,0.1-0.2,0.1c-20.9,9.5-37,27.3-44.1,49.1
	C202.9,158.1,202.1,158.6,201.3,158.6z"/>
<path class="st0" d="M327.2,273H42.7c7.4-15.7,23.3-25.7,40.6-25.7c0.6,0,1.1,0,1.7,0c9.9-14.1,26-22.5,43.3-22.5
	c2.3,0,4.7,0.2,7,0.5c15.9-38.2,59.8-56.3,98.1-40.4c18.1,7.5,32.5,21.9,40.2,39.9c0.3,0,0.6,0,0.9,0
	C301.9,224.8,324.8,245.7,327.2,273z"/>
<path class="st1" d="M327.2,275.5H42.7c-1.4,0-2.5-1.1-2.5-2.5c0-0.4,0.1-0.7,0.2-1.1c7.9-16.6,24.6-27.1,42.9-27.2h0.5
	c10.4-14.1,27-22.4,44.5-22.5c1.8,0,3.7,0.1,5.5,0.3c17.4-39.1,63.2-56.7,102.3-39.2c17.4,7.7,31.3,21.6,39.1,39
	c28.4,0.4,51.9,22.2,54.4,50.5c0.1,1.4-0.9,2.6-2.3,2.7C327.3,275.5,327.3,275.5,327.2,275.5L327.2,275.5z M46.9,270.5h277.5
	c-3.7-24.7-24.8-43.1-49.8-43.2h-0.8c-1.1,0.1-2-0.5-2.4-1.5c-15.6-36.9-58.2-54.1-95-38.4c-17.5,7.4-31.3,21.4-38.6,38.9
	c-0.4,1-1.5,1.7-2.6,1.5c-2.2-0.3-4.5-0.5-6.7-0.5c-16.4,0-31.8,8-41.2,21.4c-0.5,0.7-1.3,1.1-2.2,1.1c-0.5,0-1,0-1.6,0
	C68.4,249.8,54.6,257.7,46.9,270.5z"/>
<path class="st0" d="M1917.9,932.8c-0.6,0-1.2-0.2-1.6-0.6l-46.4-38.9c-1.1-0.9-1.2-2.5-0.3-3.5c0.9-1.1,2.5-1.2,3.5-0.3l46.4,38.9
	c1.1,0.9,1.2,2.5,0.3,3.5C1919.3,932.5,1918.6,932.8,1917.9,932.8L1917.9,932.8z"/>
<path class="st0" d="M1892.9,966.7c-0.6,0-1.2-0.2-1.6-0.6l-47-39.4c-1.1-0.9-1.2-2.5-0.3-3.5c0.9-1.1,2.5-1.2,3.5-0.3l47,39.4
	c1.1,0.9,1.2,2.4,0.3,3.5C1894.4,966.4,1893.6,966.7,1892.9,966.7L1892.9,966.7z"/>
<path class="st0" d="M1900.9,969.1c-3.4,0-6.7-1-9.5-2.9c-4.3-3-6.9-7.9-7.4-13.7c-0.3-5.9,1.4-11.8,4.8-16.7
	c7.4-10.7,20.5-14.5,29.3-8.5s9.9,19.7,2.5,30.4C1915.8,965.1,1908.1,969.1,1900.9,969.1z M1908.7,929.5c-5.5,0-11.6,3.4-15.6,9.2
	c-2.8,3.9-4.2,8.7-4,13.5c0.1,4,2,7.7,5.2,10c6.5,4.5,16.5,1.2,22.3-7.2s5.3-19-1.2-23.4C1913.4,930.2,1911.1,929.5,1908.7,929.5z"
	/>
<path class="st0" d="M1904.8,949.3c-0.6,0-1.2-0.2-1.6-0.6l-31.9-26.8c-1-0.9-1.1-2.5-0.2-3.5c0.9-1,2.4-1.1,3.4-0.3l31.9,26.8
	c1.1,0.9,1.2,2.5,0.3,3.5C1906.3,949,1905.6,949.3,1904.8,949.3L1904.8,949.3z"/>
<path class="st0" d="M1855.6,931.1c-3.4,0-6.7-1-9.5-2.9c-4.3-3-7-7.9-7.4-13.7c-0.3-5.9,1.4-11.8,4.8-16.7
	c7.4-10.7,20.5-14.5,29.3-8.5c4.3,3,7,7.9,7.4,13.7c0.3,5.9-1.4,11.8-4.8,16.7l0,0C1870.4,927,1862.8,931.1,1855.6,931.1z
	 M1863.3,891.4c-5.5,0-11.6,3.4-15.6,9.2c-2.8,3.9-4.2,8.7-4,13.5c0.3,4.3,2.1,7.8,5.2,10c6.5,4.5,16.5,1.2,22.4-7.2l0,0
	c2.8-3.9,4.2-8.7,4-13.5c-0.1-4-2-7.7-5.2-10C1868.1,892.1,1865.7,891.4,1863.3,891.4L1863.3,891.4z M1873.3,918.3L1873.3,918.3z"/>
<g>
	<path class="st0" d="M1529.4,364.9c-1.4,0-2.5-1.1-2.5-2.5c0-0.2,0-0.4,0.1-0.6l16.6-68.6c0.3-1.3,1.7-2.2,3-1.8
		c0.7,0.2,1.3,0.7,1.7,1.3l20,40.6c0.5,1.1,0.2,2.4-0.7,3.1l-36.6,28C1530.5,364.8,1530,364.9,1529.4,364.9z M1546.8,301.1l-13.3,55
		l29.3-22.4L1546.8,301.1z"/>
	<path class="st0" d="M1566,336.9c-1,0-1.8-0.5-2.2-1.4l-20-40.6c-0.6-1.2-0.1-2.7,1.1-3.3c0.8-0.4,1.7-0.3,2.5,0.1l56.3,36.3
		c1.2,0.8,1.5,2.3,0.7,3.5c-0.4,0.6-1.1,1-1.8,1.1l-36.3,4.4C1566.2,336.9,1566.1,336.9,1566,336.9z M1552.2,300.8l15.2,31l27.7-3.3
		L1552.2,300.8z"/>
	<path class="st0" d="M1529.4,364.9c-1.4,0-2.5-1.1-2.5-2.5c0-0.8,0.4-1.5,1-2l36.6-28c0.4-0.3,0.8-0.4,1.2-0.5l36.3-4.4
		c1.4-0.2,2.6,0.8,2.8,2.2c0.1,0.8-0.2,1.6-0.8,2.1l-30.7,28.7c-0.4,0.4-0.9,0.6-1.5,0.7l-42.2,3.6H1529.4z M1567,336.9l-29.2,22.3
		l32.8-2.8l24.5-22.9L1567,336.9z"/>
</g>
<path class="st0" d="M288.7,619.4c-0.6,0-1.2-0.2-1.7-0.7l-32-29.4c-0.9-0.8-1.1-2.2-0.4-3.3l23-33.5c0.8-1.2,2.3-1.5,3.5-0.7
	c1.2,0.8,1.5,2.3,0.7,3.5c0,0,0,0.1-0.1,0.1l-21.8,31.7l30.4,28c1,0.9,1.1,2.5,0.1,3.5C290,619.2,289.3,619.5,288.7,619.4
	L288.7,619.4z"/>
<path class="st0" d="M230.4,599c-1.4,0-2.5-1.1-2.5-2.5c0-1.1,0.7-2,1.7-2.4l26.2-9c1.3-0.5,2.8,0.2,3.2,1.5
	c0.5,1.3-0.2,2.8-1.6,3.2l-26.2,9C231,599,230.7,599,230.4,599z"/>
<g>
	<path class="st0" d="M230.4,599c-1.4,0-2.5-1.1-2.5-2.5c0-0.5,0.2-1,0.4-1.4l23-33.5c0.3-0.4,0.7-0.8,1.2-1l26.2-9
		c1.3-0.4,2.7,0.3,3.2,1.6c0.3,0.7,0.1,1.6-0.3,2.2l-23,33.5c-0.3,0.5-0.7,0.8-1.2,1l-26.2,9C231,599,230.7,599,230.4,599z
		 M255.1,565.1l-18.3,26.6l18.3-6.3l18.3-26.6L255.1,565.1z M256.7,587.5L256.7,587.5z"/>
	<path class="st0" d="M288.7,619.4c-0.6,0-1.2-0.2-1.7-0.7l-32-29.4c-0.9-0.8-1.1-2.2-0.4-3.3l23-33.5c0.8-1.1,2.3-1.4,3.5-0.6
		c0.1,0.1,0.2,0.1,0.3,0.2l32,29.4c0.9,0.8,1.1,2.2,0.4,3.3l-23,33.5c-0.4,0.6-1.1,1-1.8,1.1L288.7,619.4z M259.9,587.1l28.3,26
		l20.2-29.4l-28.3-26L259.9,587.1z"/>
	<path class="st0" d="M262.4,628.4c-0.6,0-1.2-0.2-1.7-0.7l-32-29.4c-1-0.9-1.1-2.5-0.1-3.5c0.3-0.3,0.6-0.5,1-0.7l26.2-9
		c0.9-0.3,1.8-0.1,2.5,0.5l32,29.4c1,0.9,1.1,2.5,0.2,3.5c-0.3,0.3-0.6,0.5-1,0.7l-26.2,9C263,628.4,262.7,628.5,262.4,628.4z
		 M235.2,597.5l27.8,25.6l20.9-7.2l-27.8-25.6L235.2,597.5z"/>
</g>
<path class="st0" d="M329.5,91.9c-0.3,0-0.6-0.1-0.8-0.2c-0.9-0.5-1.3-1.6-0.9-2.5c0,0,0,0,0,0l18.6-37.8c0.4-1,1.5-1.4,2.5-1
	c1,0.4,1.4,1.5,1,2.5c0,0.1-0.1,0.1-0.1,0.2l-18.6,37.7C330.9,91.5,330.2,91.9,329.5,91.9z"/>
<path class="st0" d="M375.5,217.9h-28c-1.1,0.1-2-0.7-2-1.8c-0.1-1.1,0.7-2,1.8-2c0.1,0,0.2,0,0.3,0h28c1.1-0.1,2,0.7,2,1.8
	c0.1,1.1-0.7,2-1.8,2C375.7,217.9,375.6,217.9,375.5,217.9z"/>
<path class="st0" d="M201.5,124.9c-0.3,0-0.6-0.1-0.8-0.2l-17-8c-0.9-0.5-1.3-1.7-0.7-2.6c0.5-0.8,1.5-1.2,2.4-0.9l17,8
	c0.9,0.5,1.3,1.6,0.9,2.6C202.9,124.5,202.2,124.9,201.5,124.9z"/>
<path class="st0" d="M255.5,91.9c-0.8,0-1.5-0.5-1.8-1.2l-9-23c-0.4-1,0.1-2.1,1.1-2.5c1-0.4,2.1,0.1,2.5,1.1l0,0l9,23
	c0.4,1-0.1,2.1-1.1,2.5c0,0,0,0,0,0C256,91.9,255.7,91.9,255.5,91.9z"/>
<path class="st0" d="M374.5,156.9c-1,0-1.9-0.8-1.9-1.8c0-0.9,0.6-1.7,1.5-1.9l27-7c1-0.3,2.1,0.3,2.3,1.3c0.3,1-0.3,2.1-1.3,2.3
	l-27,7C374.9,156.9,374.7,156.9,374.5,156.9z"/>
<path class="st0" d="M1861.5,132.5c-0.1,0-0.3,0-0.4,0c-1.4-0.2-2.3-1.5-2.1-2.9l6-37c0.2-1.4,1.5-2.3,2.9-2.1
	c1.4,0.2,2.3,1.5,2.1,2.9l-6,37C1863.8,131.6,1862.7,132.5,1861.5,132.5z"/>
<path class="st0" d="M1902.5,154.5h-22c-1.4,0-2.5-1.1-2.5-2.5s1.1-2.5,2.5-2.5h22c1.4,0,2.5,1.1,2.5,2.5S1903.9,154.5,1902.5,154.5
	z"/>
<path class="st0" d="M1832.5,148.5c-0.7,0-1.3-0.3-1.8-0.7l-16-16c-1-1-0.9-2.6,0.1-3.5c1-0.9,2.5-0.9,3.5,0l16,16c1,1,1,2.6,0,3.5
	C1833.8,148.2,1833.2,148.5,1832.5,148.5z"/>
<polygon class="st0" points="1419,108 1433.1,132.4 1447.2,156.8 1419,156.8 1390.8,156.8 1404.9,132.4 "/>
<polygon class="st0" points="1419,170.7 1433.1,195.1 1447.2,219.5 1419,219.5 1390.8,219.5 1404.9,195.1 "/>
<path class="st0" d="M548.5,283.6h-49c-1.1,0-1.9-0.9-1.9-1.9c0-0.3,0.1-0.7,0.3-0.9l24.5-42.5c0.5-0.9,1.7-1.2,2.6-0.7
	c0.3,0.2,0.5,0.4,0.7,0.7l24.5,42.5c0.5,0.9,0.2,2.1-0.7,2.6C549.2,283.5,548.8,283.6,548.5,283.6z M502.8,279.8h42.4L524,243.1
	L502.8,279.8z"/>
<path class="st0" d="M548.5,338.1h-49c-1.1,0-1.9-0.9-1.9-1.9c0-0.3,0.1-0.7,0.3-0.9l24.5-42.5c0.5-0.9,1.7-1.2,2.6-0.7
	c0.3,0.2,0.5,0.4,0.7,0.7l24.5,42.5c0.5,0.9,0.2,2.1-0.7,2.6C549.2,338,548.9,338.1,548.5,338.1L548.5,338.1z M502.8,334.3h42.4
	L524,297.6L502.8,334.3z"/>
<path class="st7" d="M1973,1323.5h-54.5c-1.4,0-2.5-1.1-2.5-2.5s1.1-2.5,2.5-2.5h54.5c1.4,0,2.5,1.1,2.5,2.5
	S1974.3,1323.5,1973,1323.5L1973,1323.5z"/>
<path class="st7" d="M1854.3,1323.5H328.8c-1.4,0-2.5-1.1-2.5-2.5s1.1-2.5,2.5-2.5h1525.5c1.4,0,2.5,1.1,2.5,2.5
	S1855.6,1323.5,1854.3,1323.5z"/>
<path class="st7" d="M290.5,1323.5H2.5c-1.4,0-2.5-1.1-2.5-2.5s1.1-2.5,2.5-2.5h288c1.4,0,2.5,1.1,2.5,2.5
	S291.9,1323.5,290.5,1323.5z"/>
</svg>
