<svg id="_ÎÓÈ_1" data-name="—ÎÓÈ_1" xmlns="http://www.w3.org/2000/svg" viewBox="0 0 4588.07 1518.35"><defs><style>.cls-1{fill:#ffd159;}.cls-2{fill:#ffc33e;}.cls-3{fill:#dd643e;}.cls-4{fill:#9dc431;}.cls-5{fill:#a0ce3c;}.cls-6{fill:#c6e279;}.cls-7{fill:#300000;}.cls-8{fill:#fff;}.cls-9{fill:#81a00e;}.cls-10{font-size:885px;font-family:ProtoGroteskWeb-Regular, Proto Grotesk Web;}.cls-11{letter-spacing:-0.01em;}.cls-12{letter-spacing:-0.02em;}.cls-13{font-size:246.91px;font-family:CSTMXprmntl02, "CSTM Xprmntl 02";letter-spacing:0.43em;}</style></defs><title>logo</title><path class="cls-1" d="M3662.68,1012c-24.38,22.51-13.56,55.52,7.49,76a64.53,64.53,0,0,1,5.55,10.33,42.23,42.23,0,0,1,2.89,10.38,35.78,35.78,0,0,1-.26,11.32c-3.25,18.94-8.12,36.26-8.81,55.25q-.3,7-.29,14.07a320.63,320.63,0,0,0,24.46,122.27c87.64,208.91,370.5,250.48,558.49,164.92,23.11-10.52,42.12-23.49,61.6-39.75s37.86-36.71,54.07-59.87c3.24-4.63,6.38-9.38,9.14-14.3a64.76,64.76,0,0,0,6.45-28.29,362.21,362.21,0,0,1,5.35-56.42,388.2,388.2,0,0,1,12.51-52.89c3.79-12.45,1.62-25.44,2.28-37.75a301.54,301.54,0,0,1,3.95-36.6q1.05-6.13,2.29-12.31c1.22-9.13-1.48-21,3.93-26.45,3.11-2.84,6.39-5.58,9.61-8.44,13.12-10.5,20.15-25.65,21.77-41.88,2.17-23.27-18.39-40-39.16-45.44-4.62-1.74-9.37-3.32-14.14-4.8s-9.56-2.85-14.31-4.16q-20-4.47-40.12-8.06-25.56-3.74-51.25-6.54t-51.46-4.87c-137.51-10-275.51-7.3-413.25-7.73-19.42.87-38.88,1.5-58.25,2.88s-38.63,3.51-57.64,7.42a118.23,118.23,0,0,0-13.6,3.26,70.17,70.17,0,0,0-24.59,13.1C3665.7,1008.37,3664.13,1010.17,3662.68,1012Z"/><path class="cls-2" d="M4433.35,1174.1q-.19-9.74-1-19.43c-.6-6.82-2.62-14.7-3.46-22.45a47.4,47.4,0,0,1,0-11.35c-.43-3,1.19-5.76,2.82-8.46,5.95-10.83,16.77-17.32,22.18-28.68,14.07-30.31-11.36-57.91-39.94-64.78-4.23-1.77-8.59-3.38-13-4.83-6.6-2.19-13.28-4-19.8-5.52-4.6-.92-9.21-1.77-13.83-2.59-2.3-.4-4.62-.8-7-1.18-7.12-.65-14.16-2.28-21.19-2.82a335.8,335.8,0,0,1-83.65-10.22q-4.19-.54-8.35-1.14l8.15,1.7c17.29-.62,21.62,14,20.53,29.14,0,1.09,2.17,2.71,3.25,2.71,17.86,7,40.59,7,50.87,24.89,5.41,9.2.54,20-6.55,26.68a52.78,52.78,0,0,1-5.56,4.85,59.73,59.73,0,0,1-6.29,4.12,79.83,79.83,0,0,1-35.17,9.81c-159.64,11.9-320.36,10.28-478.38-18.21-17.32-2.32-37.88-3.44-49.24,12.26-2.71,3.24.54,8.11,4.32,9.2,82.26,21.64,167.76,24.35,252.72,27,90.91,3.25,181.83-4.87,272.74.54a64.35,64.35,0,0,1,36,12.74c9.88,7.39,17.61,17.5,23.05,29.07a97.82,97.82,0,0,1,6.45,18.28c13.62,110.06-79.36,208.85-177.12,247.09q-13.59,6-27.49,11.08t-28,9.13q-13.47,4.15-27.18,7.49a513.36,513.36,0,0,1-83.18,13.06q-15.57,1-31.19.87c-72.81-.65-145.43-20.73-206.87-59.72,36.34,23.06,66,50.48,106.42,68,38.48,16.71,79.58,26.91,121.17,32a514.1,514.1,0,0,0,75,3.67q12.57-.32,25.12-1.24c15.88-2.92,33.32-1.76,49.91-6.2q12.39-2.17,24.64-5t24.31-6.27q16.1-4.61,31.79-10.35a336.08,336.08,0,0,0,48.83-21.88,259.78,259.78,0,0,0,22.55-14c40.49-29.86,75.36-68.22,97.95-113.36q5-9.32,9.56-19,6.53-13.86,11.94-28.29a331,331,0,0,0,20.4-90.41Q4433.62,1188.2,4433.35,1174.1Z"/><path class="cls-3" d="M3703.33,1021.75c6-10,30.62-14.1,41.68-14.66,20.94-1.05,41.84-2.26,62.81-2.17,46.86.2,93.55,4.62,140.32,6.87q21.63,1,43.18,1.94,18,.43,36,.54c111.32.74,234.19-25.42,341.28,16.08,7,2.71,14.32,6.35,17.69,13.05,15.31,30.49-79.89,31.21-95.36,32.11-97.24,5.66-193.52,1.5-290.7,1.5-47.4-2.21-94.78-5.07-142-9.26-43.48-3.85-93-3.89-133.95-20a45.38,45.38,0,0,1-11.81-6.36C3702,1033.2,3700.32,1026.74,3703.33,1021.75Z"/><path class="cls-4" d="M4198.37,1016.6a160.75,160.75,0,0,0-18.59,5.09c-28.19,7.07-56.08,8.23-85.37,8-4.56,0-9.12,0-13.67,0-23.92-.06-47.76-.53-71.59-1.87-4-.22-7.94-.47-11.88-.74-31.64-4.11-61.85-5.27-91.78-16.27l-11.22-1.8q-5.59-.9-11.13-1.85t-11-2c-21.55-4.25-44.79-10.06-61.68-25.27-2.66-2.33-5.28-4.73-8-7-8-6.84-16.42-12.65-27.46-12.65a87.69,87.69,0,0,1,6.37,8.48c1.94,2.92,3.74,5.93,5.45,9,12.86,38.1,45.18,53.9,80.44,62.61,4.4,1.09,8.86,2.07,13.34,3,46.65,12.27,94.3,12.27,141.56,12.85l14.34.22q14.35.21,28.75.37c5.48.06,11,.12,16.5.09,41.92-1.26,82.6-2.42,124.55-4,4.17-.46,8.35-1.06,12.5-1.76,16.61-2.84,32.73-7.44,47.93-15.29a138.82,138.82,0,0,0,16.5-12.3c11.37-9.79,21.74-21.34,31.67-33.11a47.7,47.7,0,0,0-5,.79C4271.59,1001.5,4237.89,1008.47,4198.37,1016.6Z"/><path class="cls-2" d="M4283.42,1148.5c1.65,4.13-.48,9.93-5.07,10.06a8.86,8.86,0,0,1-8.92-10.65c.5-2.89,4.43-5.87,7.26-4.52A9.24,9.24,0,0,1,4283.42,1148.5Z"/><path class="cls-2" d="M4267.74,1189.41c1.65,4.13-.48,9.94-5.07,10.07a8.86,8.86,0,0,1-8.92-10.65c.49-2.89,4.43-5.87,7.26-4.52A9.25,9.25,0,0,1,4267.74,1189.41Z"/><path class="cls-2" d="M4321.81,1225.81c1.66,4.13-.47,9.93-5.06,10.06a8.86,8.86,0,0,1-8.92-10.65c.49-2.88,4.42-5.87,7.26-4.51A9.2,9.2,0,0,1,4321.81,1225.81Z"/><path class="cls-2" d="M4247.14,1144c.93,2.56,1,6-1.19,8.37-5.05,4.16-14.3,2.13-15.09-5.31-.72-5.15,4.36-8.17,9-7.91A9.62,9.62,0,0,1,4247.14,1144Z"/><path class="cls-2" d="M4210.17,1181.23c.94,2.57,1,6-1.19,8.37-5,4.16-14.3,2.13-15.08-5.31-.73-5.14,4.35-8.16,9-7.9A9.61,9.61,0,0,1,4210.17,1181.23Z"/><path class="cls-2" d="M4176.46,1135.92c.84,2.69.84,6.27-1.41,8.67-5.09,4.22-14.17,2-14.67-5.85-.5-5.45,4.61-8.52,9.16-8.11A9.39,9.39,0,0,1,4176.46,1135.92Z"/><path class="cls-2" d="M3708.64,1311.32a9.74,9.74,0,0,1,2.48-4.87,15.87,15.87,0,0,1,2.07-2c2.24-1.8,4.92-2.81,7.68-2,2.35,2.47,7,3.13,8.38,7.15,1.67,5-2.33,9.69-5.67,13-3.68,2.34-7.36,1.34-10.68-1.28A10.6,10.6,0,0,1,3708.64,1311.32Z"/><path class="cls-2" d="M3726.24,1355.57c.49-4.42,5.11-8.53,9.22-6.49a8.87,8.87,0,0,1,2.83,13.61c-1.79,2.31-6.67,3.08-8.53.55A9.22,9.22,0,0,1,3726.24,1355.57Z"/><path class="cls-2" d="M3759.38,1326.89c.49-4.42,5.1-8.53,9.21-6.48a8.86,8.86,0,0,1,2.84,13.6c-1.8,2.31-6.67,3.09-8.53.56A9.23,9.23,0,0,1,3759.38,1326.89Z"/><path class="cls-2" d="M3705,1261.15c.49-4.42,5.11-8.53,9.21-6.48a8.86,8.86,0,0,1,2.84,13.6c-1.79,2.31-6.67,3.09-8.53.56A9.23,9.23,0,0,1,3705,1261.15Z"/><path class="cls-2" d="M3765,1387.57c.29-3.49,2-7.57,5.92-9.12,8.15-2.14,17.86,5.23,14.75,14.35-1.94,6.41-9.51,7.19-14.81,4.36A12.34,12.34,0,0,1,3765,1387.57Z"/><path class="cls-2" d="M3815.91,1369.53c.45-3.18,2.26-6.8,5.88-8,7.55-1.51,16,5.72,12.7,13.88-2.11,5.74-9,6-13.74,3.19A11.3,11.3,0,0,1,3815.91,1369.53Z"/><path class="cls-2" d="M3831.78,1425c.29-3.5,2-7.57,5.92-9.13,8.15-2.13,17.86,5.24,14.75,14.36-1.94,6.41-9.51,7.19-14.81,4.36A12.34,12.34,0,0,1,3831.78,1425Z"/><path class="cls-2" d="M3738.07,1028.58c-.35-7.78,11.28-7.54,16.17-5.58,2.74,1.09,5.1,5.75,4.33,8.62s-3.88,3.88-6.43,4.27c-4.58.7-13.16-.75-14-6.47C3738.11,1029.13,3738.08,1028.85,3738.07,1028.58Z"/><path class="cls-2" d="M3811.06,1048.73c-1.26,3.68-9.06,4.34-12.18,3.47a15.61,15.61,0,0,1-1.71-.58c-2.78-1.82-6.26-4.14-5.1-7.63a7,7,0,0,1,8.55-4.75l1.87-.07a13.63,13.63,0,0,1,1.93.49c2.32.74,4.91,3.43,6.08,5.55A4.37,4.37,0,0,1,3811.06,1048.73Z"/><path class="cls-2" d="M3793.51,1026.71c-2.72,4-12,5.12-13.54.35-1.17-3.48,1.16-7,3.48-8.13,3.33-1.67,9.1.22,10.5,3.82A4.08,4.08,0,0,1,3793.51,1026.71Z"/><path class="cls-2" d="M4304.9,1038.57c4.42,2.08,7.13,9,2.28,12.28-5,3.33-16.52-2.17-13.08-8.81C4296.59,1037.22,4301.24,1036.85,4304.9,1038.57Z"/><path class="cls-2" d="M4265,1055.66c11.6,10-16,14.91-12.94,4A8,8,0,0,1,4265,1055.66Z"/><path class="cls-5" d="M3496.87,492a38.67,38.67,0,0,0-3.63-6c-7.16-9.76-19.56-17.48-29.84-8.22a24.73,24.73,0,0,0-5.92,9.39,33.12,33.12,0,0,0-1.48,5.53,59.05,59.05,0,0,0-.8,8.61,66,66,0,0,0,.39,8.45c1.75,24.78,14.46,45,27.11,64.17,20.09-16.19,20.69-48.81,17.11-73.58A45.83,45.83,0,0,0,3496.87,492Z"/><path class="cls-5" d="M3499.38,490.5c-4.88-9.52-14.41-20-26-19.8-12.68.24-19.21,13.09-20.57,24.14-3.66,29.76,11.67,56.68,27.42,80.53a3,3,0,0,0,4.56.58c11.61-9.73,16.89-24.16,18.76-38.83,1.91-14.93,2.08-32.68-4.13-46.62-1.52-3.41-6.53-.46-5,2.93,5.51,12.36,5.07,28.84,3.54,42.07-1.59,13.77-6.39,27.24-17.26,36.35l4.57.58c-12.27-18.57-24.18-38-26.55-60.64-1.12-10.76-1.82-27.44,9.19-33.73s22.08,6.72,26.51,15.37C3496.07,496.76,3501.08,493.83,3499.38,490.5Z"/><path class="cls-6" d="M3469.92,552.71c-10.59-15.93-13.91-34.56-14.09-53.41,0-3.74-5.84-3.75-5.81,0,.19,19.81,3.76,39.61,14.88,56.35,2.07,3.1,7.1.19,5-2.94Z"/><path class="cls-1" d="M3476.06,355.4c-20.41,3.1-40.8.17-47.24-13.3-10.36-21.64,3.83-52.21-16.56-62.16-35-17-74.31-39.84-74.71-80.41-.71-71,69.83-119.54,137.13-124a128.37,128.37,0,0,1,22.51.66c42.08,5.39,78.57,31.11,103.57,67.09,33.84,51.84-9.14,101.54-56.76,122.3-28.66,12.5-10.2,42-18.82,63.36C3518.27,346.13,3492.45,352.91,3476.06,355.4Z"/><path class="cls-7" d="M3469.79,328.63c.22-22.35.54-44.92-1.12-67.22-1.41-18.81-3.06-36.66-15.51-51.74-7.51-9.09-24.34-19.91-35.32-9.69-12.83,11.94-.54,33.31,7.59,43.8,22.59,29.12,67.29,30,94.51,6.89,10.13-8.6,16.9-21.43,13.18-34.94-3.34-12.12-16.29-23.73-28.63-15.45-8.22,5.51-12.66,15.88-15.57,24.95-3.44,10.72-4.29,21.63-5.08,32.78-.83,11.61-1.52,22.89-.9,34.55.69,12.91,2.08,25.77,2.31,38.7.07,4.34,6.86,5.11,6.79.72-.56-31.31-5-62.12.56-93.32,1.78-10,11.52-44.43,27.09-31.7,9.59,7.84,9.44,21.71,2.73,31.34-8.77,12.59-25.73,19.39-40.37,21.72-13.47,2.15-28.89-1.9-40-9.72-11.35-8-24.75-24.63-22.17-39.34,1.47-8.39,9.07-9.3,16-6.48s12.16,9.14,16.26,15.34c9.17,13.87,9.38,32.45,10.19,48.56,1,19.8.86,39.71.67,59.53-.05,4.35,6.74,5.11,6.79.72Z"/><path class="cls-7" d="M3447.23,366.81c-8.18,1.27-20.65-5.91-19.14-15.17,1.4-8.56,8.46-12.54,16.32-13.72a225.27,225.27,0,0,1,42.17-2.61c7.47.28,15,.6,22.43,1.26,8.82.8,13.7,5.65,12.62,14.91-2,16.87-23.07,14.64-35.2,14.74l-.72,6.79c11.78-.12,45.26-3.06,35.85,18.59-6.24,14.34-23.22,17.89-37.17,19.48-13.69,1.56-28.25.86-41-4.83-6.69-3-15.31-7.81-16.3-15.79-.87-7.07,3.31-14.21,9.45-17.51,3.85-2.07,1.08-8.32-2.81-6.23-15.36,8.27-18.21,28.57-4.11,39.29,15.77,12,36.77,14,55.87,11.81,18.35-2.09,39.46-8.7,44.1-29.08,1.74-7.67-2.91-15.13-9.45-19-9.94-5.85-22.72-3.65-33.72-3.54-4.34,0-5.12,6.83-.72,6.79,9.64-.08,18.62,1,27.85-2.57,8.14-3.18,13.94-9.4,14.86-18.24.82-7.86-1.68-15.57-8.56-19.9-4.7-2.95-10-2.51-15.38-2.85-6.61-.42-13.22-.82-19.83-1-11.59-.35-22.49.72-33.93,1.94-8.43.9-17.86,1.66-23.9,8.48-5.58,6.3-8.14,17.06-2.77,24.23,5.24,7,15.62,11.82,24.3,10.47,4.33-.67,3.24-7.41-1.12-6.74Z"/><path class="cls-8" d="M3393,197c9.14-3.86,16.39-12.44,21.39-20.8,5.24-8.77,10.07-19.07,10.38-29.61.35-11.66-6.52-24.88-19.78-23.67-24.39,2.22-37.39,28.07-40.31,49.64-1.48,10.91,3.23,25.46,16.3,26.45A25.6,25.6,0,0,0,3393,197Z"/><path class="cls-9" d="M3641,311.16a54.1,54.1,0,0,1,13.76,5.18c4.76,2.66,10.82,7.75,10.92,13.64s-5.5,8-10.54,7.94c-7.43,0-13.5-4.22-19.92-7.52-5.57-2.87-17.94-11.77-9.49-18.72,2.7-2.23,6.6-2.11,10.06-1.56C3637.48,310.4,3639.22,310.74,3641,311.16Z"/><path class="cls-9" d="M4577.94,411.18a54.3,54.3,0,0,1-13.22,6.45c-5.21,1.64-13.07,2.55-17.42-1.43s-2-9.46,1.47-13.12c5.13-5.37,12.34-6.91,19.14-9.3,5.92-2.08,20.88-5,20.13,6-.24,3.49-3,6.25-5.78,8.38C4580.88,409.17,4579.44,410.2,4577.94,411.18Z"/><path class="cls-9" d="M4433.59,135.09a54.22,54.22,0,0,1-9.16,11.5c-4,3.72-10.71,7.92-16.34,6.2s-5.89-7.68-4.32-12.48c2.32-7.05,8.17-11.55,13.29-16.63,4.44-4.42,16.71-13.45,20.73-3.28,1.29,3.26,0,6.93-1.62,10.06C4435.39,132,4434.52,133.56,4433.59,135.09Z"/><path class="cls-9" d="M4034.44,13.29a54.16,54.16,0,0,1,2.77,14.44c.21,5.46-1,13.28-5.94,16.44s-9.66-.53-12.28-4.85c-3.84-6.35-3.45-13.72-4-20.91-.46-6.25.67-21.45,11-17.87,3.31,1.14,5.25,4.53,6.58,7.77Q4033.61,10.73,4034.44,13.29Z"/><path class="cls-5" d="M3805.32,1002.42c-16.34-15.5-24.48-36.42-37.64-54.48-3.82-5.86-7.54-11.67-11.2-17.53-132-210.77-208.73-484-60.33-708.43a420.63,420.63,0,0,1,60.72-72.47,443.21,443.21,0,0,1,73.68-56.64c102-62.13,224.49-85.55,343.23-69.63C4333,43,4475,146.34,4536.61,296.94c89.64,220.21-1.45,458-149.63,627.82q-9.67,11.09-19.65,21.76c-9.92,10.11-19.58,20.32-29.3,30.39q-4.86,5-9.75,10c-4.9,4.65-9.81,9.54-14.81,14.46a172.53,172.53,0,0,1-52.75,41.19,179.66,179.66,0,0,1-20.47,8.87c-4.87,1.21-9.76,2.28-14.67,3.24s-9.84,1.79-14.77,2.48c-47.6,6.46-96.41,1.81-144.39,0l-16.53-1.14-27.56-1.91-13.7-1c-41.83-2.31-83.67-8.12-122.82-20.85q-4.61-1.38-9.18-2.82c-17.92-6.53-35.35-12.34-53.83-17.52A58.93,58.93,0,0,1,3805.32,1002.42Z"/><path class="cls-5" d="M4338,976.91c9.72-10.07,19.38-20.28,29.3-30.39q10-10.68,19.65-21.76c148.18-169.82,239.27-407.61,149.63-627.82C4475,146.34,4333,43,4173.78,23.24c-118.74-15.92-241.2,7.5-343.23,69.63a443.21,443.21,0,0,0-73.68,56.64A420.63,420.63,0,0,0,3696.15,222c-148.4,224.45-71.63,497.66,60.33,708.43q4.83,7.73,9.8,15.37c6.42.46,13.4-.7,19.21,2.79,17.43,13.94,34.87,24.4,54.18,32.14,5.53,2.07,11.16,3.93,16.85,5.66,11.39,3.46,23.05,6.38,34.83,9.44,8,1.92,13.33,7.1,20.16,8.92q5.14,1.41,10.29,2.77c26.4,6.15,53.13,13.12,79.71,16.5q7.14,1.05,14.28,2c23.8,3.19,47.67,5.6,71.56,7,5.47.33,10.94.6,16.43.77,26.89,3.09,52.46-1.56,79.18-4.24,4.63-.62,9.27-1.29,13.91-2l13.92-2.09,22-2.73c26.9-8,62.93,1.34,81.92-22.58,4.57-4.52,9.08-9,13.58-13.26Q4333.17,982,4338,976.91Z"/><path class="cls-4" d="M4541.1,305.05A484.72,484.72,0,0,0,4516,255.41a494.49,494.49,0,0,0-30.59-46.61c-44.26-59.79-102-109.55-169.63-141.41a421.59,421.59,0,0,0-42.68-17.81,407.35,407.35,0,0,0-44.58-13,337.19,337.19,0,0,1,40.84,18.5,350.94,350.94,0,0,1,37.79,23.49c117,78.72,172.39,214.05,176.53,350.34.52,17,.24,34.09-.83,51-3.46,57-14.49,112.84-31.72,166.71q-6.46,20.19-14.06,40.06-7.44,18.75-15.56,37.81c-5.42,12.67-11.09,25.39-17.05,38.05-21.68,55-54,109-94.9,153.19q-12.27,13.26-25.55,25.28c-30.37,32.06-66,52-104.36,63.41q-11.52,3.42-23.34,5.83-5.9,1.22-11.88,2.21c-23.09,4.62-47.49,4.62-71,4.33q-7.77-.15-15.51-.53c-11-.34-20.28-1.51-30.88-2.36q-7.71-.81-15.39-1.81t-15.37-2.21q-7.68-1.2-15.35-2.58t-15.34-2.94c-9.32-1.69-18.6-3.51-27.8-5.55-27.61-6.11-54.54-14.21-79.92-26.93q-9.39-4.89-18.39-10.39-5.09-3-10-6.26a221.4,221.4,0,0,1-28.31-22.22q-6.1-5.51-12-11.31t-11.42-11.94a382.34,382.34,0,0,1-56.69-82.1q-1.83-2.75-3.64-5.51l-1.8-2.77c-8.41-15.65-16.24-31.57-24.14-47.37a33.45,33.45,0,0,0-1.72-3.56c-2.55-4.49-6.25-7.82-12.27-8.39,1.93,4.26,2.65,9,3.05,13.91.1,1.23.18,2.47.27,3.72,1.93,13.22,6.62,25.33,12.13,37.43.47,1,.94,1.91,1.42,2.87q4.31,8.6,8.88,16.91c8.44,14.18,16.29,28,24.1,41.9,2.6,4.63,5.21,9.28,7.9,14,11.73,17.23,20.78,36.31,30.58,55.06,2.45,4.69,5,9.36,7.54,14,4.76,8.5,10.14,17.63,16.27,26.39,3.06,4.38,6.32,8.66,9.78,12.73a74.27,74.27,0,0,0,8.47,10.07,198.59,198.59,0,0,0,49.38,26.72c5.81,2.19,11.71,4.14,17.69,5.89,13.94,3.45,28,6.11,42.2,8.18q10.62,1.55,21.35,2.73c39.43,4,78.74,5.47,118,6.47q11.76.3,23.52.56c62.23-3,129.64,11,186.23-20.38q7.77-4.32,15.16-9.38c19.7-13.44,37.34-30.41,53.45-48.07q5.27-5.52,10.42-11.14c17.2-18.68,33.62-37.86,49.88-55.2,9.2-10.58,18.15-21.38,26.72-32.52s16.77-22.6,24.45-34.51q11.72-17.19,22.61-35c36.28-59.23,65.28-123.1,82.82-190.37a583.54,583.54,0,0,0,18.07-99,496,496,0,0,0-.78-100.95q-2.06-19.95-5.6-39.68t-8.58-39.14A323.94,323.94,0,0,0,4541.1,305.05Z"/><path class="cls-9" d="M4096.38,433.65a54.16,54.16,0,0,1,.34,14.7c-.69,5.42-3.14,12.94-8.56,15.23s-9.45-2.12-11.31-6.81c-2.75-6.9-1.14-14.1-.47-21.28.58-6.24,4.2-21,13.81-15.81,3.07,1.68,4.42,5.34,5.2,8.75Q4096,431,4096.38,433.65Z"/><path class="cls-9" d="M4242.87,32.24a54.52,54.52,0,0,1-6.56,13.16c-3.14,4.47-8.82,10-14.69,9.47s-7.36-6.28-6.82-11.3c.8-7.38,5.58-13,9.52-19,3.43-5.25,13.54-16.64,19.59-7.53,1.94,2.92,1.43,6.79.52,10.17C4244,28.85,4243.46,30.55,4242.87,32.24Z"/><path class="cls-9" d="M3608.76,504.23a54.06,54.06,0,0,1,14.59,1.85c5.25,1.49,12.33,5,13.79,10.74s-3.51,9-8.42,10.17c-7.24,1.69-14.11-1-21.12-2.7-6.08-1.51-20.17-7.29-13.57-16,2.11-2.79,5.94-3.58,9.43-3.84C3605.19,504.3,3607,504.23,3608.76,504.23Z"/><path class="cls-9" d="M3708.65,191.43a54.21,54.21,0,0,1,11.58,9.06c3.75,4,8,10.64,6.33,16.29s-7.63,5.95-12.44,4.42c-7.07-2.26-11.61-8.07-16.74-13.14-4.46-4.41-13.6-16.6-3.46-20.71,3.25-1.31,6.94,0,10.07,1.53C3705.55,189.66,3707.11,190.51,3708.65,191.43Z"/><path class="cls-9" d="M3974.34,115.7a54.3,54.3,0,0,1,2.77,14.45c.21,5.45-1,13.28-5.94,16.44s-9.66-.53-12.28-4.85c-3.84-6.36-3.44-13.72-4-20.91-.46-6.25.67-21.45,11-17.88,3.31,1.15,5.24,4.54,6.58,7.78C3973.17,112.33,3973.79,114,3974.34,115.7Z"/><path class="cls-9" d="M4445.81,311.63a54.17,54.17,0,0,1,10.47-10.33c4.42-3.2,11.58-6.57,17-4.19s4.92,8.33,2.78,12.9c-3.14,6.73-9.49,10.49-15.17,14.93-4.95,3.85-18.21,11.35-21,.77-.89-3.39.85-6.88,2.81-9.79C4443.65,314.48,4444.7,313,4445.81,311.63Z"/><path class="cls-9" d="M3781.72,503.32a54.58,54.58,0,0,1,9.13,11.54c2.7,4.74,5.27,12.22,2.32,17.32s-8.81,4-13.13,1.37c-6.34-3.86-9.39-10.58-13.18-16.71-3.3-5.33-9.31-19.33,1.51-20.94,3.46-.51,6.74,1.6,9.42,3.86C3779.12,500.88,3780.44,502.07,3781.72,503.32Z"/><path class="cls-9" d="M3861.49,312.53a54.54,54.54,0,0,1,9.12,11.53c2.71,4.74,5.28,12.22,2.33,17.32s-8.82,4-13.13,1.37c-6.35-3.86-9.4-10.57-13.19-16.71-3.29-5.33-9.31-19.33,1.51-20.93,3.47-.52,6.75,1.59,9.43,3.85C3858.89,310.08,3860.21,311.27,3861.49,312.53Z"/><path class="cls-9" d="M4215.33,226.39a54.15,54.15,0,0,1,5.38-13.69c2.74-4.72,7.91-10.71,13.8-10.72s7.89,5.62,7.79,10.66c-.15,7.43-4.42,13.44-7.82,19.8-2.95,5.53-12,17.77-18.86,9.22-2.18-2.74-2-6.64-1.4-10.09C4214.52,229.86,4214.88,228.12,4215.33,226.39Z"/><path class="cls-9" d="M4379.54,488.25a54.48,54.48,0,0,1-8.6,11.93c-3.83,3.9-10.32,8.41-16,7s-6.25-7.39-4.9-12.25c2-7.16,7.61-11.93,12.47-17.25,4.23-4.63,16.06-14.23,20.56-4.26,1.44,3.19.3,6.93-1.14,10.12C4381.19,485.08,4380.4,486.68,4379.54,488.25Z"/><path class="cls-9" d="M4547.59,650.9a54.3,54.3,0,0,1-13.72-5.29c-4.74-2.7-10.76-7.84-10.82-13.73s5.56-7.92,10.61-7.86c7.43.1,13.47,4.33,19.85,7.68,5.55,2.92,17.85,11.91,9.35,18.8-2.72,2.2-6.62,2-10.07,1.47C4551.07,651.69,4549.33,651.33,4547.59,650.9Z"/><path class="cls-6" d="M3678.48,745.24c-6.63,9.94-6.39,21.88-3.27,33,3.81,13.63,10.68,26.71,16.64,39.5,12.85,27.58,27.21,54.47,44,79.85,2.06,3.11,7.09.2,5-2.93a595.08,595.08,0,0,1-40.34-72.05c-6-12.48-12-25.1-17.06-38-4.59-11.77-7.46-25.28,0-36.48,2.08-3.12-2.95-6-5-2.93Z"/><path class="cls-5" d="M3676.19,713.46c-46,7.77-93.41-9.56-118.5-52.8-23-40.7-34.37-93.15-84.51-106.07-27.33-7.26-58.51,1.46-74.81,25.6-28.9,46.3,4.57,99.67,36.32,134.2,40.34,44,94.06,62.26,150.09,66.43,5.6.42,11.22.69,16.81.79,28.16-1.57,59.54-.41,83.95-14.35,8.13-4.65,2.32-18.6-.2-28.52q-1.62-5.4-3.9-11.69T3676.19,713.46Z"/><path class="cls-4" d="M3690.05,756.39a29.49,29.49,0,0,0-18.19-2c-1.51.21-3,.44-4.56.67a224.45,224.45,0,0,1-23,2.4,266.4,266.4,0,0,1-48.62-2.86,259.87,259.87,0,0,1-74.54-22.24,239.28,239.28,0,0,1-75.79-56.63C3419,646.35,3397.23,604.6,3415.77,569a32.64,32.64,0,0,1,8.61-10.57,62.18,62.18,0,0,0-26,21.76c-28.9,46.3,4.57,99.67,36.32,134.2,35.33,38.42,84.23,58.79,135.41,65a366.06,366.06,0,0,0,70.83,1.38c10.38-.76,20.66-1.95,30.93-3.63,1-.17,2.1-.37,3.17-.59,9.32-1.78,21.54-7.63,17.06-18.09A9.48,9.48,0,0,0,3690.05,756.39Z"/><path class="cls-9" d="M3433.12,638a54.55,54.55,0,0,1,11.65,9c3.77,3.95,8.08,10.58,6.45,16.24s-7.59,6-12.41,4.51c-7.09-2.21-11.68-8-16.84-13-4.49-4.37-13.71-16.5-3.6-20.68,3.23-1.34,6.93-.08,10.08,1.46Q3430.79,636.62,3433.12,638Z"/><path class="cls-9" d="M3556.59,634.62a53.86,53.86,0,0,1-7.16,12.85c-3.34,4.32-9.26,9.56-15.1,8.79s-7.07-6.61-6.3-11.6c1.14-7.34,6.17-12.73,10.38-18.59,3.67-5.08,14.29-16,19.92-6.62,1.8,3,1.11,6.84.05,10.18C3557.86,631.29,3557.26,633,3556.59,634.62Z"/><path class="cls-5" d="M3437.31,575.45c-.55,6.18,2.34,12.14,5.11,17.48,1.72,3.32,6.74.39,5-2.93-2.32-4.48-4.77-9.37-4.31-14.55.33-3.72-5.48-3.7-5.81,0Z"/><path class="cls-6" d="M3454.35,556.56c28.71-2.33,55.15,13.54,67.57,39.35,1.62,3.37,6.64.43,5-2.93-13.22-27.49-42-44.71-72.59-42.23-3.7.3-3.73,6.12,0,5.81Z"/><path class="cls-9" d="M3821.14,84.14a54,54,0,0,1,10.51,10.29c3.29,4.36,6.78,11.45,4.5,16.88s-8.24,5.08-12.85,3c-6.78-3-10.66-9.3-15.19-14.91-4-4.87-11.68-18-1.15-21,3.37-.95,6.89.74,9.84,2.63C3818.26,82,3819.71,83.05,3821.14,84.14Z"/><path class="cls-9" d="M4025.47,719a54.56,54.56,0,0,1,.34,14.7c-.69,5.42-3.14,12.94-8.57,15.23s-9.44-2.11-11.31-6.81c-2.74-6.9-1.13-14.1-.47-21.28.58-6.24,4.2-21,13.81-15.81,3.08,1.68,4.43,5.34,5.21,8.76C4024.87,715.48,4025.2,717.23,4025.47,719Z"/><path class="cls-9" d="M3723.7,682.49a54.08,54.08,0,0,1,9.13,11.54c2.71,4.73,5.28,12.22,2.32,17.32s-8.81,4-13.13,1.36c-6.34-3.85-9.39-10.57-13.18-16.71-3.3-5.33-9.31-19.32,1.51-20.93,3.46-.52,6.75,1.6,9.43,3.85C3721.1,680,3722.42,681.23,3723.7,682.49Z"/><path class="cls-9" d="M4266.6,762.11A54.42,54.42,0,0,1,4258,774c-3.82,3.9-10.32,8.42-16,7s-6.25-7.39-4.9-12.26c2-7.15,7.61-11.92,12.48-17.24,4.22-4.63,16.05-14.24,20.55-4.26,1.44,3.19.3,6.92-1.14,10.12C4268.25,758.94,4267.46,760.53,4266.6,762.11Z"/><path class="cls-9" d="M4480.71,811.36a54,54,0,0,1-13.73-5.29c-4.74-2.7-10.76-7.83-10.81-13.72s5.56-7.93,10.61-7.86c7.42.09,13.46,4.32,19.85,7.68,5.55,2.91,17.85,11.9,9.35,18.79-2.72,2.21-6.62,2.06-10.08,1.48C4484.19,812.15,4482.45,811.79,4480.71,811.36Z"/><text class="cls-10" transform="translate(0 913.87)"><tspan class="cls-11">C</tspan><tspan class="cls-12" x="709.77" y="0">a</tspan><tspan class="cls-11" x="1246.98" y="0">c</tspan><tspan x="1759.39" y="0">tus</tspan></text><text class="cls-13" transform="translate(1504.65 1243.09)">DESIGN</text></svg>